<svg xmlns="http://www.w3.org/2000/svg" xmlns:xlink="http://www.w3.org/1999/xlink" id="Layer_1" x="0" y="0" version="1.1" viewBox="0 0 49 49" xml:space="preserve" style="enable-background:new 0 0 49 49"><style type="text/css">.st0{fill:#fff}</style><g><path d="M24.5,0.3c-13.3,0-24,10.7-24,24s10.7,24,24,24c13.3,0,24-10.7,24-24S37.7,0.3,24.5,0.3z M24.5,45.5 C12.8,45.5,3.2,36,3.2,24.3S12.8,3.1,24.5,3.1c11.7,0,21.2,9.5,21.2,21.2C45.7,36,36.1,45.5,24.5,45.5z" class="st0"/><path d="M24.5,3.9C13.2,3.9,4,13.1,4,24.3s9.2,20.4,20.4,20.4c11.2,0,20.4-9.2,20.4-20.4S35.7,3.9,24.5,3.9z M24.5,44.1c-10.9,0-19.8-8.9-19.8-19.8S13.6,4.6,24.5,4.6c10.9,0,19.7,8.9,19.7,19.8S35.3,44.1,24.5,44.1z" class="st0"/></g><g><path d="M16.5,31c0-0.2,0-0.3,0.1-0.3c0.1-0.1,0.2,0,0.4,0.1c0.4,0.3,0.9,0.7,1.4,1.2c0.2,0.3,0.6,0.6,1.2,0.7 c0.1,0,0.1,0,0.1,0c0,0,0,0,0,0c0-0.1,0-0.2-0.1-0.3c-0.4-0.1-0.5-0.3-0.9-0.8c0,0-0.1-0.1-0.3-0.2c-0.2-0.1-0.6-0.7-0.8-0.8 c-0.1-0.1-0.9-0.6-1-0.7c-0.8-0.3-1-1.1-1.2-1.4l0,0c-0.2-0.3-0.4-0.6-0.6-1c0,0-0.3-0.5-0.4-0.6c0,0,0,0,0,0 c-0.1-0.1-0.4-0.3-0.4-0.2c0,0.1,0.2,0.5,0.3,0.6c0.1,0.1,0.4,0.6,0.4,0.8c0,0.2,0.4,0.7,0.5,0.8c0.3,0.5,0.5,0.9,0.6,1.2 c0.2,0.5,0.3,0.7,0.4,1.1c0.1,0.6,0.4,1.5,0.7,1.9c0,0.1,0.1,0.1,0.1,0.1c0,0,0-0.1,0-0.2C16.8,32.5,16.5,31.3,16.5,31z" class="st0"/><path d="M18,22.8c0-0.3,0-0.5,0-0.8c0-0.1,0-0.1,0-0.2c0-0.3,0.1-0.5,0.2-0.8c0-0.1,0-0.2,0.1-0.2 c0-0.1,0.1-0.2,0.1-0.2c0.1-0.1,0.1-0.2,0.2-0.3c0-0.1,0-0.1,0.1-0.1c0.1-0.1,0.1-0.3,0.2-0.4c0-0.1,0.1-0.3,0.1-0.4 c0-0.1,0-0.2,0-0.3c0,0,0-0.1,0-0.1c0,0,0,0,0,0l0-0.3l0-0.2l0-0.7c0,0,0-0.1,0-0.1c0-0.3,0.1-0.5,0.3-0.7c0.3-0.3,0.8-0.6,1.3-0.7 c0.4-0.1,0.6,0.2,0.7,0.4c0.5,0.8,1.2,1.3,2,1.7c0.2,0.1,0.4,0.2,0.7,0.3c0.4,0.2,0.6,0.4,0.6,0.8c0,0.1,0,0.1,0,0.2l0,0 c0,0.4-0.1,0.9-0.6,1.4c-0.8,0.7-1.3,1.4-1.5,2.2c-0.1,0.3-0.4,0.7-0.8,0.8c-0.8,0.2-1.5,0.7-1.8,1.2c0,0.1-0.1,0.2-0.1,0.2 c-0.1,0.2-0.1,0.3-0.1,0.5c0,0.2,0,0.4,0.1,0.6l0.1,0.4c0.3,0.8,0.5,1.2,0.6,1.9c0.2,0.8,0.5,2.1,0.8,2.9c0.4,1.3,1,2.4,1.5,3 c0,0,0,0,0,0c0,0,0,0,0,0c-0.6-1.1-1.2-2.9-1.5-3.9c0,0,0,0,0-0.1c0-0.1,0-0.2,0.1-0.2c0,0,0,0,0,0c0.1-0.1,0.1-0.1,0.2-0.1 c0.5,0,1.7,0.4,2.7,0.8c0,0,0,0,0,0c0,0,0,0,0,0c-0.9-0.5-2.2-1-2.9-1.1c-0.2,0-0.3-0.2-0.4-0.5l0,0l0-0.2l0-0.2c0,0,0-0.1,0-0.1 c0-0.1-0.1-0.3-0.1-0.4c0,0,0,0,0,0c0-0.1-0.1-0.3-0.1-0.4c0-0.1-0.1-0.3-0.1-0.4c-0.1-0.4-0.2-0.8-0.4-1.2c0,0,0-0.1,0-0.1 c0-0.1,0-0.1-0.1-0.2c0-0.1,0-0.1,0-0.2c0-0.1,0-0.3,0.1-0.4c0.1-0.2,0.2-0.4,0.5-0.6c0.3-0.2,0.9-0.4,1.2-0.4c0.1,0,0.2,0,0.2,0.1 l0,0l0.1,0.1l0,0v0c0,0.1,0.1,0.1,0.1,0.2c0.1,0.6,0.5,1.3,0.9,1.8c0.4,0.5,0.7,0.9,0.8,1.3c0,0,0,0,0,0.1c0,0,0,0,0,0c0,0,0,0,0,0 c0-0.4-0.3-1-0.6-1.5c-0.4-0.5-0.7-1.2-0.8-1.7c0-0.1,0-0.3,0-0.4c0-0.3,0.1-0.6,0.1-0.9c0.2-0.9,0.9-1.7,1.5-2.2 c0.5-0.4,0.9-1.1,0.9-1.8c0-0.1,0-0.1,0-0.2c0,0,0,0,0,0c0-0.1,0.1-0.3,0.2-0.3c0.1,0,0.3,0,0.4,0.2c0.4,0.9,1.1,1.7,1.7,2.1 c0.9,0.6,1.4,1.3,1.4,2c0,0.6-0.4,1.2-1,1.7c-2,1.3-1.6,3-0.9,4.2c0.4,0.6,0.6,1,0.8,1.3l0,0c0.1,0.2,0.2,0.4,0.2,0.7 c0,0.2,0,0.3-0.1,0.5c-0.2,0.5-0.4,1-0.4,1.5c0,0.5,0.1,1,0.4,1.4c0.4,0.5,0.7,1,0.8,1.4c0,0,0,0.1,0,0.1c0,0,0,0,0-0.1 c-0.1-0.5-0.4-1-0.6-1.3l-0.1-0.1c-0.2-0.3-0.2-0.7-0.2-1.1c0-0.4,0.1-0.8,0.2-1.1l0.3-0.6l0.1-0.2c0.1-0.1,0.2-0.3,0.3-0.3 c0.1,0,0.2,0,0.3,0.1c0.4,0.4,0.7,1.1,0.9,1.5l0,0.1c0.2,0.4,0.5,0.6,0.8,0.7c0.6,0.3,1.4,0.8,1.6,1.5c0,0,0,0,0,0v0 c-0.1-0.7-0.6-1.1-1.3-1.5l-0.1,0c-0.4-0.3-0.6-0.5-0.8-0.9l-0.2-0.4c-0.2-0.6-0.4-1.2-0.9-1.5l-0.3-0.2c-0.2-0.1-0.4-0.2-0.6-0.5 c-0.7-0.9-1.1-1.7-1.1-2.5c0,0,0-0.1,0-0.1c0-0.7,0.5-1.4,1.4-1.9c0.8-0.5,1.2-1.2,1.2-2c0,0,0-0.1,0-0.1c0,0,0,0,0,0 c0-0.1,0-0.2,0.1-0.3c0.1-0.1,0.3-0.1,0.4-0.1c0.8,0.2,1.9,0.7,2.1,2.3c0,0.1,0,0.1,0,0.1c0,0,0,0,0-0.1c0,0,0,0,0,0 c-0.1-0.9-0.4-2-1.6-2.5c-0.2-0.1-0.3-0.1-0.3-0.1H30h0l-0.3-0.1l-0.1,0c-0.2,0-0.5-0.1-0.6-0.4c-0.4-0.7-0.9-1.1-1.4-1.4 c-0.5-0.3-1-1-1.3-1.6c-0.3-0.6-0.7-1.1-1.3-1.1c-0.7,0-1.2-0.2-1.8-0.5c-0.5-0.3-0.9-0.6-1.3-1.1c0-0.1-0.1-0.1-0.1-0.2 c0,0,0-0.1,0-0.1c0,0,0,0,0-0.1c0-0.1,0.1-0.1,0.2-0.1c0.1,0,0.1,0,0.2,0c1.3,0.1,2.2,0.3,3,0.7c0.2,0.1,0.4,0.2,0.5,0.3 c0.1,0.1,0.2,0.2,0.4,0.3c0.2,0.2,0.3,0.3,0.5,0.5c0.1,0.1,0.1,0.1,0.1,0.2c0.4,0.4,0.7,0.8,1,1.3c0.8,1.1,1.9,1.2,3,1.2 c1.4,0,2.3,0.6,2.9,2.2c0.1,0.4,0.2,0.8,0.3,1.1c0,0.2,0.1,0.5,0.1,0.7c0,0.6-0.1,1.1-0.4,1.5c-0.4,0.6-0.6,1.2-0.6,1.9 c0,0.3,0,0.5,0.1,0.8c0.1,0.3,0.1,0.5,0.1,0.8c0,0.2,0,0.4,0.1,0.7c0.1,0.5,0.5,1.1,1,1.7c0.4,0.4,0.5,0.8,0.6,1.3 c0.1,0.4,0.2,0.9,0.6,1.3c0,0,0,0,0,0c0,0,0,0,0,0c-0.1-0.2-0.4-0.7-0.4-1.3c-0.1-0.6-0.3-1-0.6-1.3c-0.2-0.2-0.4-0.5-0.6-1 c0-0.1,0-0.1,0-0.2c0-0.1,0.1-0.2,0.1-0.2c0.1-0.1,0.3-0.1,0.5,0c0.3,0.2,0.7,0.6,1.2,1.1c0.4,0.5,0.8,1.1,1.1,1.8 c0,0.1,0.1,0.3,0.1,0.4c0,0,0,0,0,0c0,0,0,0,0,0c0,0,0,0,0,0c0,0,0-0.1,0-0.1c-0.1-1.1-0.9-2.4-1.9-3.3c-0.1-0.1-0.1-0.1-0.2-0.2 l0,0c-0.5-0.4-1.1-0.9-1.2-1.7c0-0.2-0.1-0.4-0.1-0.5c0-0.5,0.2-1,0.5-1.6c0-0.1,0.1-0.1,0.1-0.2c0.2-0.4,0.3-0.9,0.3-1.5 c0-0.6-0.1-1.4-0.4-2.2c-0.4-1.1-0.9-1.8-1.7-2.2l0,0c0,0-0.1,0-0.1,0c0,0,0,0,0,0c-0.5-0.2-1-0.2-1.4-0.3h-0.1 c-1-0.1-1.8-0.2-2.4-0.9c0,0-0.1-0.1-0.1-0.1L28,18.7c-0.3-0.4-0.8-1.1-1.5-1.8c-0.3-0.2-0.6-0.5-0.9-0.7l0,0l0,0l0,0 c0,0-0.2-0.1-0.3-0.1c-0.4-0.2-0.8-0.4-1.3-0.5c-0.2-0.1-0.4-0.1-0.4-0.1l-0.4,0l-0.6,0c-0.5,0-0.8,0-1,0c0,0-0.4,0.1-0.4,0.1 c-0.7,0.1-1.3,0.3-1.9,0.6h0c-0.3,0.2-0.6,0.4-0.9,0.7c-0.3,0.3-0.6,0.4-0.8,0.5c-0.4,0.1-0.8,0.3-1.2,0.5 c-0.2,0.1-0.4,0.3-0.6,0.4c-0.7,0.5-1.4,1.2-1.9,2.2c0.8-1.3,2.2-2.3,3.7-2.7c0.2-0.1,0.4,0,0.5,0c0.1,0.1,0.2,0.3,0.2,0.5 c0,0.3,0.1,0.6,0.1,0.9c0,0.2,0,0.4-0.1,0.6c-0.1,0.2-0.2,0.5-0.3,0.7l-0.1,0.3c-0.1,0.3-0.2,0.6-0.2,1c0,0.1,0,0.2,0,0.2l0,0.2 c0,0.3,0.1,0.7,0.1,1.1c0,0.6-0.1,1.2-0.5,1.9c0,0,0,0,0,0c0,0,0,0,0,0c0.2-0.2,0.4-0.5,0.5-0.8c0-0.1,0.1-0.2,0.1-0.3 C18,23.6,18,23.2,18,22.8z" class="st0"/><path d="M25.6,24.6c-0.1,0-2.1-0.8-2.2-0.8c-0.3-0.1-0.4,0.1-0.3,0.2c0,0,2,0.8,2.3,0.9C25.9,25.1,25.8,24.7,25.6,24.6 z" class="st0"/><path d="M11.9,29.6C11.9,29.6,11.9,29.6,11.9,29.6c-1.3-1.6-1.7-3.8-1-5.4c0.3-0.8,0.4-1.4,0-2.7 c-0.3-0.9-0.1-1.5,0.3-2c0.2-0.2,0.4-0.3,0.6-0.4c-0.1-2.1-0.2-3.7-0.3-4.4c0-0.3,0.1-0.5,0.2-0.5c0.3-0.1,0.9-0.3,1.4-0.4 c0.4-0.1,0.6-0.2,0.7-0.5c0.1-0.2,0.1-0.4,0.2-0.7c0.3-0.8,1.1-0.8,1.3,0c0.3,1.8,0.2,3.7,0.3,5.3c0.2-0.1,0.4-0.3,0.6-0.4 c0-1.6,0.1-3.4,0.1-4.5c0-1.1,0-2.3,0-3.2c0-0.8,0.1-1.4,0.3-2c0.1-0.2,0.1-0.4,0.1-0.7c-6.6,2.9-11.1,9.5-11.1,17.1 c0,5.9,2.7,11.1,6.9,14.5c-0.1-2.2-0.2-5.5-0.3-9C12.1,29.8,12,29.7,11.9,29.6z" class="st0"/><path d="M35.8,22.1C35.8,22.1,35.8,22.1,35.8,22.1c-0.1-0.2-0.2-0.4-0.4-0.6c-0.1-0.2-0.2-0.3-0.3-0.6 c0-0.1,0-0.2,0-0.3c0-0.2,0-0.4,0-0.6c0-0.3-0.1-0.6-0.3-1c-0.1-0.2-0.2-0.5-0.2-0.7c-0.1-0.3,0-0.6,0.1-0.9 c0.1-0.1,0.2-0.2,0.3-0.3c0-0.1-0.1-0.2-0.2-0.1c-0.2,0.1-0.5,0.3-0.6,0.4c-0.3,0.3-0.1,0.9-0.1,1c0.1,0.2,0.2,0.4,0.3,0.5 c0.1,0.1,0.6,1.1,0.4,1.5c0,0,0,0.3,0,0.3c0,0.1,0.1,0.3,0.1,0.4c0.2,0.3,0.4,0.5,0.5,0.6C35.6,22,35.7,22.1,35.8,22.1 C35.8,22.1,35.8,22.1,35.8,22.1C35.8,22.1,35.8,22.1,35.8,22.1z" class="st0"/><path d="M17.9,25.1c0,0,0.2,0.1,0.3,0.1c0.3,0.1,0.6,0.2,0.8,0.3c0.2,0,0.3,0,0.3,0c0,0,0-0.1-0.1-0.1 c-0.2-0.1-1.1-0.3-1.2-0.4c-0.1,0-0.1,0-0.2,0c0,0,0,0.1,0,0.1C17.7,25,17.8,25,17.9,25.1z" class="st0"/><path d="M15.7,35.2c-0.3,0-1.2-1.1-1.5-1.3c-1.1-0.8-1.3,1.3-0.7,1.5c0.1,0,0.2,0.2,0.3,0.2c0.1,0.1,0,0.2-0.2,0.1 c-0.1-0.1-0.3-0.1-0.5-0.2c-0.1-0.1-0.2,0.1-0.1,0.2c0.1,0.1,0.4,0.2,0.5,0.2c0.1,0.1,0.1,0.2,0,0.2c-0.2-0.1-0.2-0.1-0.4-0.2 c-0.2-0.1-0.2,0.2-0.1,0.3c0.1,0.1,0.3,0.2,0.4,0.2c0.1,0.1,0,0.2-0.1,0.1c-0.1-0.1-0.3-0.1-0.4-0.1c-0.2,0-0.3,0.3-0.1,0.4 c0.2,0.1,0.5,0.3,0.6,0.4c0.2,0.1,0.1,0.3-0.1,0.2c-0.2-0.1-0.3-0.2-0.5-0.2c-0.3,0-0.2,0.4,0,0.5c0.1,0.1,0.4,0.3,0.5,0.3 c0.1,0,0.2,0.3,0,0.2c-0.2-0.1-0.4-0.2-0.5-0.3c-0.1-0.1-0.2,0.1-0.1,0.2c0.1,0.1,0.3,0.2,0.4,0.2c0.1,0.1,0.1,0.2,0,0.1 c-0.1-0.1-0.2-0.1-0.3-0.1c-0.1-0.1-0.1,0.1,0,0.2c0.1,0.1,0.2,0.1,0.3,0.2c0.1,0,0.1,0.2,0,0.2c-0.2-0.1-0.2-0.2-0.3-0.1 c0,0,0,0.1-0.1,0.1c1,0.8,2.2,1.5,3.4,2.1c0-0.3-0.1-0.6-0.1-0.9C16.1,40.2,16.1,35.1,15.7,35.2z" class="st0"/><path d="M18.9,7.6c-0.3,0-1.3-0.3-1.5-0.3c-0.2,0-0.1,0.2,0.1,0.3c0.3,0.1,1,0.3,1.2,0.3c0.2,0,0.3,0.2,0,0.2 c-0.3,0-0.8-0.1-1.2-0.2c-0.4,0-0.2,0.2,0.1,0.3c0.3,0.1,1.2,0.2,1.4,0.3c0.2,0.1,0.2,0.2,0,0.2c-0.2,0-1.1-0.2-1.4-0.2 c-0.5,0-0.3,0.4-0.2,0.4c0.1,0,0.8,0.2,1,0.2c0.2,0,0.2,0.3,0,0.2c-0.2-0.1-0.9-0.1-1.1-0.2c-0.2,0-0.4,0.4,0.4,0.5 c0.2,0.1,0.8,0.1,1,0.2c0.2,0.1,0.3,0.2,0,0.2c-0.3,0-0.9-0.1-1.2-0.1s-0.4,0.4,0.3,0.5c0.3,0,0.5,0.1,0.6,0.1c0.1,0,0.3,0.2,0,0.2 c-0.3-0.1-0.4,0-0.5,0c-0.6,0-0.8,0.6-0.1,0.9c0.2,0.1,0.3,0.1,0.4,0.1c0.2-0.3,1.6-1.8,1.8-2c0.1-0.1,0.3-0.3,0.4-0.4 c0-0.1,1.3-1.5,1.4-1.5c0,0,1-1.7,1.1-1.8c0.1-0.4,0-0.5,0-0.5c-1.6,0.1-3.1,0.5-4.6,1c0.3,0.1,0.5,0.1,0.6,0.1 C19.1,6.8,19.3,7.1,19,7c-0.2,0-0.8-0.1-1.2-0.2c-0.1,0-0.3,0.1-0.4,0.1c0.3,0.1,1.3,0.3,1.6,0.4C19.2,7.5,19.2,7.7,18.9,7.6z" class="st0"/><path d="M21.3,15.1c-0.1-0.1-0.7-0.3-0.9-0.4c-0.2-0.1-0.2-0.2,0-0.2c0.2,0,1,0.5,1.2,0.6c0.2,0.1,0.2,0,0.1-0.1 c-0.1-0.1-0.5-0.3-0.7-0.5c-0.2-0.1-0.1-0.3,0.2-0.1c0.2,0.1,0.8,0.6,1,0.4c0.2-0.2-0.6-0.6-0.8-0.7c-0.2-0.1-0.1-0.3,0.1-0.2 c0.2,0.1,0.8,0.5,1,0.4c0.1-0.1-0.5-0.4-0.6-0.5c-0.1-0.1,0-0.2,0.1-0.1c0.1,0.1,0.6,0.4,0.7,0.3c0.1-0.1-0.5-0.4-0.6-0.5 c-0.1-0.1,0-0.2,0.2-0.1c0.1,0.1,0.7,0.3,0.8,0.2c0.1-0.1-0.4-0.4-0.4-0.5c-0.1-0.1-0.1-0.3,0-0.2c0.2,0.1,0.4,0.2,0.6,0.2 c0.2,0.1,0.3,0,0.2-0.2c0-0.1-0.5-0.3-0.5-0.4c-0.1-0.1,0-0.2,0.1-0.1c0.1,0.1,0.4,0.3,0.5,0.2c0.1-0.1-0.2-0.3-0.3-0.4 c-0.1-0.1,0.1,0,0.1,0s0.4,0.2,0.5,0.4c0.1-0.1,0.1-0.1,0.2-0.2c0,0,0,0,0,0c-0.1-0.1-0.2-0.4,0-0.3c0.1,0.1,0.1,0.1,0.2,0.1 c0,0,0.1,0,0.1,0c0,0,0,0,0,0c0,0,0-0.1,0-0.1c0-0.1-0.4-0.3-0.5-0.4c-0.1-0.1,0.1-0.1,0.2-0.1c0.1,0.1,0.2,0.3,0.4,0.4 c0,0,0.1,0,0.1,0c0.1,0,0.1,0,0.2-0.1h0c0,0,0-0.1,0-0.1c-0.1-0.1-0.2-0.2-0.3-0.3c-0.1-0.1,0-0.2,0.1-0.2c0.1,0,0.3,0.3,0.5,0.4 c0.1,0.1,0.1,0.1,0.2,0.1c0,0,0,0,0.1,0c0,0,0.1,0,0-0.1c0-0.1-0.4-0.4-0.5-0.4c-0.1-0.1,0.1-0.1,0.2,0c0.1,0.1,0.4,0.3,0.5,0.4 c0,0,0.1,0.1,0.2,0.1c0,0,0.1,0,0.1,0c0,0,0,0,0,0c0-0.1-0.2-0.3-0.3-0.4c-0.1-0.1,0-0.2,0.1-0.1c0.1,0.1,0.3,0.4,0.5,0.5 c0,0,0,0,0,0c0.1,0,0.3,0,0.3,0c-0.1-0.1-0.4-0.4-0.5-0.5c-0.1-0.1,0.1-0.2,0.1-0.1c0.1,0.1,0.5,0.4,0.7,0.6c0.1,0,0.2,0,0.2,0 c0,0,1.1-0.1,1.3-0.2c0.1,0,0.1-0.1,0.1-0.1c-0.1-0.1-0.3-0.2-0.4-0.2l-0.6-0.2c-0.1,0-0.3,0-0.5,0c-0.3,0-0.6,0-0.9-0.1 c-0.6-0.2-1.1-0.2-1.4,0h0c-0.2,0.1-0.4,0.2-0.6,0s-0.7,0-1,0.2c-0.1,0.1-0.3,0.1-0.4,0c-0.1,0-0.1-0.1-0.1-0.2c0-0.1,0-0.1,0-0.2 c0.2-0.9,0.7-1.7,1.3-2.3c0-0.2,0.1-0.3-0.1-0.4c-0.2-0.1-0.6-0.6-0.7-0.6c-0.1-0.1,0-0.3,0.2-0.2c0.2,0.1,0.5,0.4,0.6,0.4 c0.1,0,0.1-0.2,0-0.3c-0.1-0.1-0.3-0.2-0.5-0.3c-0.1-0.1-0.1-0.3,0-0.2c0.1,0.1,0.2,0.2,0.3,0.1s-0.1-0.5-0.1-0.5 c0-0.1-0.3-0.4-0.3-0.4c0,0-0.1,0-0.1,0.1c-0.7,1.5-1.4,2.7-3.1,4.2c-0.8,0.7-1.7,1.6-2.2,2.7c0,0-0.7,1.2-0.8,1.3 c-0.9,1.7-0.4,2.9,0.3,2.7c0.7-0.6,2.1-1.6,2.3-1.6c0.3,0,0.6,0,0.8,0c0.2-0.1-0.3-0.2-0.6-0.3c-0.2-0.1,0-0.1,0.1-0.1 c0.1,0,0.6,0.3,0.8,0.4C21.1,15.2,21.2,15.2,21.3,15.1L21.3,15.1C21.4,15.2,21.4,15.2,21.3,15.1z" class="st0"/><path d="M25,12.6c-0.2,0.1-0.4,1.1-0.3,1.3c0.5-0.1,2.1-0.3,2.7-0.3c0.1-0.4,0.1-0.8,0.2-1.3c-0.3,0-0.5,0.1-0.9,0.1 C26.5,12.4,25.2,12.6,25,12.6z" class="st0"/><path d="M34.4,21.4c0,0,0-0.1,0-0.1c0-0.2-0.3-0.8-0.6-1c-0.3-0.2-0.5,0-0.4,0c0.1,0.1,0.6,0.6,0.7,0.9 C34.2,21.3,34.3,21.3,34.4,21.4z" class="st0"/><path d="M21.8,39.5c-2.2-0.8-4.1-2.2-5.5-3.9c0,0,0.1,0.1,0.1,0.1c0.1,1.6,0.2,3.9,0.2,5.7c1.8,0.9,3.8,1.4,5.9,1.7 C22.3,41.9,22,40.4,21.8,39.5L21.8,39.5z" class="st0"/><path d="M26.8,40.4c-0.4,0-0.7,0.1-1.1,0.1c0,0.2,0.1,0.6-0.3,0.5c-0.1,0,0,0.4,0,0.5c0,0.2-0.3,0.3-0.5,0.3 c-0.5-0.1-0.8,0.4-0.8,0.5c0,0.1,0,0.5,0,0.8c0.1,0,0.3,0,0.4,0c1,0,2-0.1,3-0.3C27.2,41.7,26.9,40.5,26.8,40.4 C26.9,40.4,26.8,40.4,26.8,40.4z" class="st0"/><path d="M23.9,5.8c0.3,0.4,0.5,1,0.6,1.7c0,0.2,0.1,0.4,0.1,0.7c0,0.1,0,0.3,0,0.4c0.1,0,0.2,0.1,0.2-0.1 c0-0.2,0-0.4,0-0.5C24.9,8,25,7.9,25,8.1c0,0.2,0,0.4,0,0.6c0,0.2,0,0.9,0,1.2c0,0.2,0,0.4,0,0.5c0,0.1-0.1,0.2-0.1,0.1 c0-0.1,0-0.8,0-0.9c0-0.1,0-0.3-0.1-0.2c0,0-0.1,0-0.1,0c0,0.4,0,0.9,0,1.4l0,0c0.4-0.2,1-0.2,1.7,0c0.2,0.1,0.5,0.1,0.8,0.1 c0.2,0,0.3,0,0.5,0c0.1-1.3,0.2-2.6,0.2-3.7c0-0.4,0-0.8-0.1-1.2c-1.1-0.2-2.2-0.3-3.4-0.3c-0.3,0-0.6,0-0.8,0 C23.7,5.6,23.8,5.7,23.9,5.8z" class="st0"/><path d="M36.6,33.9c-0.4-1.7-1.8-2.8-2.3-3.2c-0.1-0.1-0.2-0.1-0.3,0c0,0,0,0.1,0,0.2c0.2,0.5,0.4,0.7,0.5,0.9 c0.2,0.3,0.5,0.7,0.6,1.4c0.1,0.8,0.4,1.2,0.4,1.2c0.1,0.1,0,0.2,0,0.3c-0.1,0.1-0.2,0-0.3,0c-0.4-0.4-0.5-0.9-0.6-1.4 c-0.1-0.5-0.2-0.8-0.6-1.2c-0.6-0.6-0.9-1.2-1.1-1.8c-0.1-0.3-0.1-0.5-0.1-0.7c0-0.2,0-0.4-0.1-0.7c-0.2-1-0.1-2,0.5-2.9 c0.5-0.8,0.5-1.8,0.1-3.1c-0.2-0.5-0.6-1.1-0.7-1c-0.1,0.1-0.6-0.7-0.7-0.8c-0.1-0.1-0.2-0.2-0.2-0.1c0,0.1,0.2,0.4,0,0.3 c-0.2,0-0.5-0.3-0.6-0.4c-0.1-0.1-0.2-0.1-0.2,0c0,0.1,0.2,0.3,0,0.3c-0.1,0-0.4-0.3-0.5-0.3c-0.1-0.1-0.2,0-0.1,0.1 c0.1,0.1,0.1,0.2,0,0.1c-0.1,0-0.1-0.1-0.2-0.2c-0.1,0-0.2,0-0.2,0c0,0.1-0.1-0.1-0.2-0.1c-0.1,0-0.2-0.1-0.2,0 c0,0.1,0.2,0.2,0,0.2c-0.1,0-0.2-0.2-0.4-0.2c-0.1,0-1.1-0.3-1.4-0.8c-0.2-0.5-0.6-0.8-0.6-1c0,0,0,0,0-0.1 c-0.3-0.4-0.7-0.9-1.1-1.3c-0.3-0.1-0.7-0.3-0.9-0.4C24.9,17,24.3,17,24,17.1c-0.3,0.1-0.9-0.3-1.1-0.3c-0.2,0.1-0.3,0.1-0.3,0.2 c0,0,0.1,0.1,0.1,0.2c0.6,0.4,1.3,0.7,2.1,0.7c0.8,0.1,1.1,0.6,1.5,1.2c0.3,0.6,0.7,1.2,1.2,1.5c0.5,0.3,1.1,0.7,1.5,1.4 c0.1,0.2,0.3,0.2,0.5,0.3l0.1,0c0,0,0.3,0.1,0.3,0.1c0,0,0.1,0,0.1,0c0.1,0,0.2,0,0.4,0.1c1.5,0.6,1.7,2,1.7,2.6 c0,0.2-0.1,0.3-0.2,0.3c-0.1,0-0.2,0-0.2-0.2c-0.2-1.1-0.9-1.9-2-2.1c-0.1,0-0.2,0-0.3,0c0,0-0.1,0.1-0.1,0.2 c0,0.9-0.4,1.7-1.3,2.3c-0.8,0.5-1.2,1.1-1.3,1.8c0,0.7,0.3,1.6,1,2.5c0.2,0.2,0.3,0.3,0.6,0.4l0.3,0.2c0.6,0.3,0.8,0.9,1,1.6 l0.2,0.4c0.1,0.4,0.3,0.5,0.7,0.8l0.1,0c0.7,0.5,1.2,0.9,1.4,1.6c0,0.1,0,0.2-0.1,0.2c-0.1,0-0.2,0-0.2-0.2 c-0.2-0.6-0.9-1.1-1.5-1.3c-0.3-0.1-0.6-0.3-0.9-0.8l0-0.1c-0.2-0.4-0.5-1.1-0.8-1.4c0,0-0.1-0.1-0.1-0.1c-0.1,0-0.1,0.1-0.2,0.2 L28.3,32L28,32.6c-0.2,0.5-0.3,1.5,0,2l0.1,0.1c0.2,0.4,0.5,0.9,0.6,1.4c0,0.2,0,0.3-0.1,0.3c0,0-0.1,0.1-0.2,0.2 c-0.1,0-1.1,0-1.2-0.1c-0.1-0.1,0.1-0.2,0.2-0.1c0.1,0,0.7,0.1,0.9,0c0,0,0.1,0,0.1,0c0,0-0.1-0.1-0.1-0.2 c-0.1-0.3-0.4-0.8-0.8-1.3c-0.6-0.8-0.6-1.9-0.1-3c0.2-0.3,0.1-0.7-0.1-1l0,0c-0.2-0.3-0.5-0.6-0.8-1.3c-0.7-1.3-1.1-3.1,1-4.4 c0.6-0.4,0.8-1,0.8-1.5c0-0.7-0.6-1.3-1.4-1.8c-0.7-0.4-1.2-1.2-1.6-2.2c0-0.1,0-0.1-0.1-0.1c0,0-0.1,0.1-0.1,0.1 c0.1,0.9-0.3,1.7-0.9,2.2c-0.5,0.4-1.2,1.2-1.4,2.1c-0.1,0.5-0.2,0.8-0.1,1.3c0.1,0.5,0.4,1.1,0.8,1.6c0.3,0.5,0.6,1.1,0.6,1.5 c0,0.2-0.1,0.3-0.1,0.3c0,0-0.2,0-0.2-0.2c-0.1-0.4-0.3-0.8-0.7-1.3c-0.4-0.5-0.8-1.2-1-1.8c0-0.1,0-0.1-0.1-0.2 c0,0-0.1-0.1-0.1-0.1c0,0-0.1,0-0.1,0c-0.2,0-0.8,0.2-1.1,0.4c-0.5,0.4-0.6,0.7-0.4,1.2c0.4,0,0.3,0.3,0.2,0.3c0,0-0.1,0-0.1,0 c0.1,0.2,0.2,0.5,0.2,0.7c0.1,0,0.5,0,0.5,0.1c0,0.1-0.1,0.1-0.3,0.1c-0.1,0-0.1,0-0.2,0c0,0.2,0.1,0.3,0.1,0.5 c0.1,0,0.2,0.1,0.4,0.1c0.2,0.1,0.3,0.2,0.1,0.2c-0.1,0-0.3,0-0.4,0c0,0.1,0,0.2,0.1,0.3c0.1,0,0.1,0.1,0.2,0.1 c0.2,0.1,0.3,0.1,0.1,0.2c-0.1,0-0.2,0-0.3,0c0,0,0,0.1,0,0.1l0.1,0.3c0.2,0.1,0.3,0.2,0.1,0.2c0,0-0.1,0-0.1,0 c0,0.2,0.1,0.4,0.3,0.4c0.7,0.1,2,0.6,2.9,1.2c0.1,0.1,0.1,0.2,0.1,0.3c0,0.1-0.1,0.1-0.3,0.1c-0.9-0.4-2.1-0.7-2.6-0.8 c0.1,0.1,0.3,0.2,0.3,0.2c0.1,0.1,0.3,0.3-0.1,0.2c-0.1,0-0.2,0-0.3,0c0,0.1,0.1,0.2,0.1,0.3c0.1,0.1,0.2,0.1,0.2,0.2 c0,0.1,0.2,0.2,0.3,0.3c0.2,0,1.1,0.4,1.3,0.5c0.1,0.1,0.1,0.3,0,0.3c-0.2,0-1.3-0.4-1.4-0.5c-0.1,0-0.1,0.6,0.5,0.8 c0.2,0.1,1.5,0.6,1.6,0.6c0.1,0,0,0.4-0.2,0.3c-2.5-0.7-0.9,1.1-0.4,1.3c0.4,0.2,0.8,0.3,0.9,0.4c0,0.1-0.5-0.1-0.6,0 c-0.1,0-0.4,0-0.1,0.1c0.3,0.1,0.4,0.2,0.7,0.2c0.3,0.1,0.4,0.3,0.1,0.2c-0.3-0.1-1.1-0.3-1.3-0.3c-0.3,0-1.2,0.4-0.4,0.9 c0.2,0.1,0.9,0.3,1,0.3c0.1,0,0.3,0.2,0,0.2c-0.3,0-1.2-0.3-1.5-0.4c-0.2-0.1-0.7,0.5,0.2,0.8c0.2,0.1,0.6,0.3,0.4,0.3 c-0.2,0.1-0.2,0.2,0,0.3c0.2,0,1.3,0.5,1.3,0.7c0.1,0.2,0.2,0.7,0.9,0.9c7.7,0.7,10-1.7,10.4-2.2c-0.8,0.6-2,1.1-2.4,1.2 c-0.4,0.1-2.4,0.7-4.9,0.6c-0.1,0-1.5,0.1-1.8,0c-0.3,0-0.1-0.1,0-0.1c0.1,0,0.1-0.1,0.3-0.1c0.1,0,1.5,0,1.7,0 c0.2,0.1,4.2,0.3,7.4-1.9c0.1-0.1,0.1-0.1,0.2-0.2c0,0,0.1-0.1,0.1-0.1c0-0.1,0.1-0.1,0.1-0.2c0.1-0.2,0.6-1.2,0.6-1.5 c0-0.3,0-1-0.1-1.2c0,0,0-0.1-0.1-0.2c0,0,0,0-0.1,0C36.8,34.1,36.7,34.1,36.6,33.9z M23.1,24.1c-0.2-0.1,0-0.4,0.3-0.2 c0.1,0,2,0.8,2.2,0.8c0.2,0.1,0.2,0.4-0.2,0.3C25.2,24.9,23.2,24.1,23.1,24.1z M25.9,34.1c0.1,0,0.6,0.1,0.6,0.2 c0,0,0.1,0.2-0.1,0.2c-0.2,0-0.4-0.1-0.6-0.1C25.5,34.3,25.7,34,25.9,34.1z M26.6,35.3c-0.1,0-0.5-0.1-0.6-0.1 c-0.1,0,0-0.2,0.1-0.2c0.1,0,0.4,0.1,0.6,0.1C26.8,35.1,26.7,35.3,26.6,35.3z M26.8,35.9c-0.1-0.1,0-0.2,0.1-0.2c0.2,0,0.3,0,0.5,0 c0.2,0,0.1,0.2-0.1,0.2C27.2,36,27,35.9,26.8,35.9z M27.6,37.1c0.1,0,0.7,0.1,0.9,0c0.1-0.1,0.3,0,0.3,0c0,0-0.1,0.1-0.2,0.2 c-0.1,0-1.1,0-1.2-0.1C27.3,37.1,27.5,37,27.6,37.1z M28.9,37.9c-0.1,0-1.1,0-1.1-0.1c-0.1-0.1,0.1-0.2,0.2-0.1 c0.1,0,0.7,0.1,0.9,0c0.2-0.1,0.3,0,0.3,0C29.2,37.8,29.1,37.9,28.9,37.9z M34.1,37.6c-0.2,0.1-1.2,0.2-1.4,0.2 c-0.2,0,0-0.2,0.2-0.2c0.2,0.1,1.1-0.2,1.2-0.3C34.4,37.3,34.3,37.5,34.1,37.6z" class="st0"/><path d="M20.9,31.7C20.9,31.7,20.9,31.7,20.9,31.7c-0.1-0.1-0.3-0.1-0.4-0.1c-0.1,0-1.4-0.5-1.5-0.4c0,0,0,0.2,0,0.2 c0,0.1,0.1,0.1,0.2,0.2l0.1,0l0.1,0c0.2,0.1,1.4,0.5,1.5,0.5c0.1,0,0.1,0,0.2-0.1c0,0,0,0,0,0C21,31.9,20.9,31.8,20.9,31.7z" class="st0"/><path d="M33.6,28.4c0.1,0.7,0.6,1.2,1.1,1.5c-0.5-1-0.8-2.1-0.8-3.2c-0.2,0.4-0.3,0.8-0.3,1.2 C33.5,28.1,33.5,28.3,33.6,28.4z" class="st0"/><path d="M21.3,23.9c0.4-0.1,0.6-0.4,0.6-0.6c0.2-0.8,0.8-1.6,1.6-2.3c0.4-0.4,0.4-0.8,0.5-1.2l0,0 c0.1-0.5-0.1-0.6-0.5-0.8c-0.3-0.1-0.7-0.3-0.9-0.5c-0.1,0-0.1,0-0.2-0.1c0,0,0,0,0,0c-0.2-0.1-0.4-0.3-0.6-0.4 c-0.1,0-0.1-0.1-0.1-0.1c-0.1-0.1-0.5-0.2-0.6-0.4c-0.7-0.9-1.4-0.3-1.7-0.2c-0.2,0.1-0.4,0.3-0.5,0.6c0,0,0,0,0,0l0,0.2 c0,0,0,0,0,0c0.2,0.1,0.8,0.2,1,0.3c0.2,0.1,0.3,0.3,0,0.3c-0.3,0.1-0.8-0.1-0.9-0.1c0,0-0.1,0-0.1,0l0,0.4c0,0,0,0,0,0.1 c0.3,0.1,0.4,0.1,0.5,0.1c0.2,0.1,0,0.3,0,0.3s-0.3-0.1-0.5-0.1c0,0.2,0,0.4-0.1,0.6c0.1,0.1,0.3,0.1,0.4,0.2 c0.2,0.1,0.2,0.4,0,0.3c-0.2-0.1-0.3-0.1-0.5-0.2c0,0.1-0.1,0.2-0.1,0.3c0.1,0.1,0.2,0.1,0.3,0.2c0.2,0.1,0.1,0.2,0,0.2 c-0.1,0-0.2-0.1-0.3-0.1c-0.1,0.1-0.1,0.2-0.2,0.4c-0.1,0.1-0.1,0.2-0.1,0.4c0.1,0,0.1,0.1,0.3,0.1c0.2,0.1,0.1,0.2,0,0.2 c-0.2,0-0.3,0-0.4,0.1c0,0.1,0,0.2,0,0.3c0,0.1,0,0.2,0,0.4c0.1,0.1,0.1,0.2,0.2,0.2c0.2,0.1,0.4,0.1,0.5,0.1 c0.1,0.1,0,0.2-0.2,0.2c-0.2,0-0.3,0.1-0.4,0.2c0,0.1,0,0.2,0,0.2c0,0.1,0.1,0.1,0.2,0.2c0.4,0.2,0.6,0.2,0.6,0.3 c0,0.2-0.3,0.1-0.5,0.1c-0.2,0-0.3,0-0.4,0c0,0.2-0.1,0.3-0.1,0.5c0.4,0.1,1.2,0.4,1.3,0.4c0.1,0.1,0,0.2,0.1,0.3 c0,0,0.1,0.1,0.2,0.1C19.8,24.6,20.5,24.1,21.3,23.9z" class="st0"/><path d="M15.3,18.2c0-0.6-0.1-1.3-0.1-2c0-1.1,0-2.3-0.2-3.4c0-0.3-0.2-0.5-0.4-0.5c-0.2,0-0.4,0.1-0.5,0.5 c-0.1,0.3-0.1,0.5-0.2,0.7c-0.1,0.4-0.4,0.6-0.8,0.6c0.2,0.1,0.3,0.2,0.4,0.3c0.1,0,0,0.2-0.2,0.1c-0.1,0-0.6-0.2-0.7-0.2 c-0.1,0-0.3,0-0.2,0.1c0.2,0.1,0.7,0.4,0.8,0.5c0.1,0,0.1,0.2,0,0.1c-0.1,0-1-0.4-1.2-0.5c-0.1-0.1-0.2,0.1,0,0.3 c0.2,0.1,0.9,0.4,1,0.5c0.2,0,0.2,0.1,0,0.1c-0.2,0-0.6-0.2-0.7-0.2c-0.1,0-0.2,0.1,0,0.2c0.2,0,0.5,0.2,0.7,0.2 c0.2,0,0.1,0.2,0,0.1c-0.1,0-0.4-0.2-0.5-0.2c-0.1,0-0.1,0.1,0,0.1c0.1,0.1,0.6,0.4,0.7,0.4c0.1,0,0.2,0.1,0,0.1 c-0.2,0-0.6-0.2-0.8-0.3c-0.2-0.1-0.2,0.1,0,0.2c0.2,0.1,0.8,0.4,1.1,0.4c0.3,0.1,0.3,0.2,0.1,0.2c-0.2,0-0.8-0.2-1-0.3 c-0.2,0-0.2,0.1,0,0.2c0.2,0,0.8,0.3,1,0.4c0.2,0,0.2,0.1,0.1,0.1c-0.1,0-0.7-0.2-0.9-0.2c-0.2,0-0.2,0.1-0.1,0.1 c0.1,0,0.7,0.3,1.1,0.4c0.3,0.1,0.2,0.3,0.1,0.2s-0.9-0.3-1-0.3c-0.2,0-0.2,0.2,0,0.2c0.2,0.1,0.7,0.2,0.9,0.2c0.1,0,0.2,0.2,0,0.2 c-0.3,0-0.6-0.1-0.8-0.1c-0.2-0.1-0.1,0.2,0.1,0.2c0.3,0,0.6,0.3,0.9,0.3c0.2,0,0,0.3-0.1,0.2c-0.1-0.1-0.3-0.2-0.4-0.2 c-0.1,0-0.1,0.2,0.1,0.2c0.2,0,0.3,0.1,0.4,0.1c0.1,0,0,0.1-0.1,0.2c-0.1,0,0,0.2,0.2,0.2c0.1,0,0.2,0,0.2,0 C14.6,18.7,15,18.4,15.3,18.2z" class="st0"/><path d="M20.5,30.5c-0.1-0.1-0.2-0.1-0.4-0.1c-0.1,0-2.1-0.8-2.3-0.9c-0.3-0.1-1-0.4-1.2-0.5c-0.1,0-0.3-0.1-0.3-0.1 c-0.1,0-0.1,0-0.1,0c0,0-0.1,0.2-0.1,0.3c-0.1,0.4,0.7,0.5,1.2,0.7c0.1,0,0.6,0.2,1.1,0.5c0.2,0.1,0.4,0.2,0.5,0.2 c0.2,0.1,1.5,0.6,1.7,0.6c0.2,0,0-0.2,0-0.3c0,0,0-0.1,0-0.1C20.5,30.6,20.5,30.5,20.5,30.5C20.5,30.5,20.5,30.5,20.5,30.5z" class="st0"/><path d="M24,15.4C24,15.4,24,15.4,24,15.4c0.2-0.1,0.4-0.1,0.5-0.1c0.2,0,0.4,0.3,0.5,0.3c0.2,0,0.1-0.2,0.1-0.3 c0-0.1-0.1-0.2-0.2-0.3c0-0.1,0-0.1,0.1-0.1c0.1,0,0.3,0.4,0.4,0.3c0.1,0,0.3-0.2,0.4-0.1c0.1,0.1,0.2,0.3,0.3,0.3 c0.1,0.1,0.1,0.1,0.1-0.1c0-0.1,0-0.2-0.1-0.3c-0.1-0.1,0.1-0.1,0.1,0c0,0.1,0.2,0.3,0.2,0.4c0,0.1,0.2,0.2,0.2,0 c0-0.1,0-0.3,0-0.4c0-0.1,0.1-0.1,0.1,0c0,0.2,0.1,0.4,0.1,0.4s0.1,0.1,0.2,0.1c0.1,0,0.2,0.1,0-0.3c-0.2-0.3,0.1-0.3,0.1-0.2 c0,0.1,0.2,0.4,0.2,0.5c0,0.1,0.2,0.1,0.2,0c0-0.2-0.1-0.3-0.2-0.4c0-0.1,0-0.3,0.1-0.1c0.1,0.2,0.3,0.6,0.4,0.7 c0,0.1,0.4,0.3,0.3,0.2c0-0.1,0-0.2-0.1-0.4c-0.1-0.1,0.1-0.2,0.1-0.1c0,0.1,0.3,0.6,0.3,0.6c0,0.1,0.3,0.3,0.3,0.1 c-0.1-0.2,0-0.2-0.1-0.3c-0.1-0.1,0.1-0.1,0.2,0c0.1,0.1,0.2,0.5,0.3,0.5c0.1,0.1,0.3,0.3,0.3,0.2c0-0.1-0.1-0.4-0.2-0.5 c-0.1-0.1,0.1-0.2,0.1-0.1c0.1,0.1,0.3,0.6,0.3,0.7c0,0.1,0.3,0.2,0.2,0c0-0.1-0.1-0.5-0.1-0.6c-0.1-0.1,0.1-0.1,0.2,0.1 c0.1,0.2,0.2,0.5,0.2,0.6c0,0.1,0,0.3,0.1,0.3c0.1,0,0.1-0.1,0-0.2c0-0.1,0.1,0,0.2,0.1c0,0.1,0.1,0.3,0.1,0.4c0,0.1,0.2,0.3,0.2,0 c0-0.2,0-0.3-0.1-0.5c-0.1-0.2,0.2,0,0.2,0.1c0,0.1,0.1,0.4,0.2,0.6c0,0.2,0.2,0,0.2,0c0-0.1,0-0.3-0.1-0.4c0-0.1,0.1-0.1,0.2,0.1 c0.1,0.2,0.3,0.9,0.4,1.2s0.2,0.1,0.2,0c0-0.2,0.1-0.3,0.1-0.1c0,0.2,0.2,0.4,0.3,0.7c0.1,0.2,0.2,0.2,0.2,0 c-0.1-0.2-0.1-0.3-0.2-0.5c-0.1-0.2,0.1-0.1,0.1,0.1c0.1,0.2,0.1,0.3,0.2,0.4c0.1,0.1,0.2-0.1,0.1-0.3c-0.1-0.2,0.1-0.2,0.2-0.2 c0.1,0,0-0.4-0.1-0.5c-0.1-0.1-0.3-0.4-0.3-0.5c0-0.2,0.1-0.6,0-0.7c-0.1-0.2,0.1-0.4,0.4-0.4c0.2,0,0.7-0.1,0.8-0.1 c0.1,0,0.4,0,0.5,0.1c0,0,0.1,0,0.1,0c-3.9-3.1-8.6-3-11.9-1.5c0,0.1-0.1,0.1,0.1,0.2c0,0,0,0,0.1,0l0.4,0 C23.6,15.3,23.8,15.4,24,15.4z" class="st0"/><path d="M28.1,18.6l0.2,0.2c0.6,0.7,1.3,0.6,2.3,0.7l0.1,0c0.3,0,0.7,0.1,1.2,0.2c-0.5-1-1.4-2-2.5-2.7 c-0.8-0.6-1.7-0.9-2.5-1c0,0,0,0,0,0c0,0.1-0.3-0.1-0.2,0.1c0.2,0.2,0.3,0.3,0.2,0.3c-0.1,0.1-0.4-0.2-0.5-0.3 c-0.1-0.1-0.3-0.1-0.2,0.1c0,0.1,0.2,0.3,0.4,0.5c0,0,0,0,0,0C27.3,17.5,27.8,18.2,28.1,18.6z" class="st0"/><path d="M19.4,26.8c-0.1-0.1-0.6-0.2-1.1-0.4c-0.5-0.2-0.9-0.3-1.1-0.4c-0.1-0.1,0.2-0.2-0.3-0.4 c-0.7-0.2-1.7-0.8-2.9-1c-0.3-0.1-0.4,0.5-0.3,0.6c0.4,0.2,0.9,0.3,1.3,0.6c0.1,0.1,0.4,0.1,0.6,0.2c0.3,0.1,0.6,0.2,0.8,0.3 c0.2,0.1,0.8,0.3,1.4,0.5c0.6,0.2,1.3,0.4,1.3,0.5c0,0,0.1,0.1,0.2,0c0,0,0.1,0,0.1-0.1c0,0,0,0,0-0.1L19.4,26.8 C19.4,26.8,19.4,26.8,19.4,26.8z" class="st0"/><path d="M19.9,28.2c0,0-2-0.7-2.2-0.7c-0.8-0.4-1,0.1-0.9,0.2c0,0.1,0.4,0.2,0.7,0.3c0.2,0.1,2.4,0.9,2.4,0.9 c0,0,0.2,0,0.2-0.1c0,0,0,0,0-0.1C20,28.7,20,28.5,19.9,28.2C19.9,28.3,19.9,28.3,19.9,28.2z" class="st0"/><path d="M15.4,31.3C15.5,31.3,15.5,31.3,15.4,31.3c0.1-0.1,0.1-0.6-0.2-0.8c0,0-1.5-0.5-1.5-0.5 c-0.1,0-0.1,0.3-0.1,0.3c0,0.1,0,0.3,0.1,0.3c0.1,0,0.3,0.1,0.4,0.1C14.2,30.9,15.4,31.4,15.4,31.3z" class="st0"/><path d="M15.2,29.9c0,0-0.1-0.6-0.3-0.8c-0.1-0.1-1.1-0.6-1.2-0.6c-0.1,0-0.1,0.4-0.1,0.5c0,0,0,0.2,0,0.3 c0,0.1,0.5,0.2,0.8,0.3C14.5,29.7,15.2,30,15.2,29.9z" class="st0"/><path d="M15.7,32.1c-0.3-0.1-1.5-0.5-1.6-0.5c-0.2,0,0.1,0.7,0.3,0.8c0.2,0,1.2,0.4,1.6,0.5 C16.1,32.9,16.1,32.2,15.7,32.1z" class="st0"/><path d="M16.3,24.7c0.5,0.2,0.5,0,0.5-0.1c0,0,0-0.2,0-0.2c0,0-0.1-0.1-0.1-0.1l-0.3-0.1c-0.5-0.2-1.9-0.7-1.9-0.7 c0,0-0.1,0-0.2-0.1c-0.1-0.1-0.3-0.1-0.4-0.1c0,0-0.2,0.1-0.3,0.1C13.4,23.9,15.6,24.4,16.3,24.7z" class="st0"/><path d="M17.6,25.6c0.2,0.1,0.7,0.2,1,0.3l0.3,0.1c0.1,0,0.2,0,0.3,0c0,0,0,0,0-0.1c0,0-0.1-0.1-0.1-0.1 c-0.1,0-0.2-0.1-0.4-0.2c-0.3-0.1-0.8-0.3-1-0.3c-0.1,0-0.2,0-0.2,0C17.5,25.5,17.5,25.6,17.6,25.6z" class="st0"/><path d="M18.8,33.5c0,0,0.7,0.3,0.8,0.2c0,0,0.1-0.1,0.1-0.2c0,0,0-0.1,0-0.2c0-0.1-0.8-0.4-0.9-0.4 c-0.1,0-0.3-0.1-0.6-0.2c-1-0.4-1.1-0.4-1.2-0.4c0,0,0,0,0,0c0,0,0,0.1,0,0.1c0,0.1,0.1,0.4,0.3,0.4C17.5,33,18.4,33.3,18.8,33.5z" class="st0"/><path d="M22,35.1c-0.2-0.1-1-0.3-1.3-0.4c-0.1,0-1.1-0.4-1.2-0.4l-0.2,0l-0.2-0.1c-0.4-0.1-1-0.3-1.2-0.4 c-0.5-0.2-0.6,0.1-0.6,0.1c0.1,0.2,0.3,0.3,0.4,0.4c0.2,0,4.2,1.7,4.4,1.3C22.1,35.3,22.1,35.1,22,35.1z" class="st0"/><path d="M21.1,37.4c-0.1-0.1-1.8-0.7-1.9-0.7c-0.3-0.1-0.4,0.3-0.2,0.4c0.1,0.1,1.8,0.8,2,0.8 C21.7,38.2,21.8,37.7,21.1,37.4z" class="st0"/><path d="M28.2,5.9c0,0.3,0.1,0.7,0.1,1c0,1.2-0.1,2.6-0.2,3.8c0.3,0.1,0.9,0.4,1,0.4c0.3,0.1,0.5,0.6,0.6,0.7 c0,0.1-0.2,0.2-0.4,0.2c-0.4,0-1.1,0-1.4,0c-0.1,0.6-0.1,1.2-0.2,1.6c2.7-0.1,5.5,0.8,8,3c0.2,0.1,0.1,0.4-0.1,0.4 c-0.5,0.1-0.8,0.7-0.4,1.8c0.3,0.7,0.4,1.2,0.3,1.7c0,0.3,0.1,0.5,0.2,0.7c0.1,0.2,0.3,0.4,0.3,0.6c0.1,0.2-0.1,0.5-0.4,0.3 c0,0,0,0-0.1,0c0,0-0.1,0-0.2-0.1c0,0-0.1-0.1-0.1-0.1c-0.8-0.4-1.5-0.7-1.5-0.7c0.4,0.7,0.7,1.5,0.8,2.3c0.1,0.7,0.1,1.3,0,1.9 c-0.1,0.8-0.3,1.6-0.1,2.3C35,29.5,36,31,37,32.6l0,0.1c0.3,0.5,0.5,1,0.6,1.6c0.2,0.9,0,1.7-0.5,2.6c-0.6,1-1.6,1.9-3,2.5 c-1.5,0.6-3.3,1-5.2,0.9c-0.5,0.1-1,0.1-1.5,0l-0.2,0l0.5,2.4c8.8-1.6,15.4-9.2,15.4-18.5C43.2,15.3,36.8,7.7,28.2,5.9z" class="st0"/><path d="M15.7,22c0.3,0.1,1.4,0.6,1.5,0.5c0.1,0,0.1-0.4,0.1-0.4c0,0,0-0.1-0.1-0.1c-0.1,0-0.3-0.1-0.5-0.2 c-0.3-0.1-0.6-0.2-0.7-0.3c-0.2-0.1-1.1-0.4-1.2-0.5c0,0-0.2-0.1-0.2,0c-0.1,0-0.2,0.3-0.2,0.4c0,0,0,0.1,0.1,0.2 C14.7,21.6,15.4,21.9,15.7,22z" class="st0"/><path d="M17.1,23.9c0.1,0,0.2,0,0.3-0.1c0,0,0.1-0.5,0-0.6c0,0,0-0.1-0.1-0.1c-0.2,0-3-1.1-3.1-1.2 c-0.1-0.1-0.3-0.1-0.4,0c0,0-0.1,0.3-0.1,0.3c0,0,0,0.1,0.1,0.1C13.9,22.6,16.9,23.9,17.1,23.9z" class="st0"/><path d="M20,33.2l0.2,0.1c0.1,0.1,0.9,0.3,0.9,0.3c0,0,0.1,0,0.1-0.1c0,0,0-0.1,0-0.1c0,0-0.6-0.2-0.9-0.3 c-0.1,0-0.2-0.1-0.2-0.1C20.1,33,20,33,20,33c0,0-0.1,0-0.1,0.1C19.9,33.1,19.9,33.2,20,33.2z" class="st0"/><path d="M14.8,26.5l1.9,0.7c0.1,0,0.2,0,0.2-0.1c0,0,0-0.2,0-0.2c-0.1,0-2.8-1.1-2.9-1.1c-0.2-0.1-0.2,0-0.2,0.1 c0,0,0,0.1,0,0.2C13.8,26.2,14.3,26.3,14.8,26.5z" class="st0"/><path d="M15.8,27.2c-0.2-0.1-1.1-0.4-1.1-0.4c-0.1,0-0.1,0.2-0.1,0.2c0,0.1,1.4,0.5,1.5,0.7c0,0.1,0.1,0.1,0.1,0 c0,0,0.1-0.1,0.1-0.2c0,0,0-0.1,0-0.2C16.2,27.3,16,27.3,15.8,27.2z" class="st0"/><path d="M12.6,22.3l-0.4-0.6c-0.2-0.3-0.3-0.4-0.4-0.7c-0.1-0.2-0.1-0.5,0-0.8c0.1-0.3,0.4-0.5,0.8-0.5 c0.1,0,0.2-0.1,0.2-0.1c0-0.1-0.1-0.2-0.2-0.2c-0.2-0.1-0.5-0.1-0.7,0c-0.7,0.3-1,1-0.7,1.8c0,0.1,0.1,0.1,0.1,0.2 c0.3,0.5,0.9,0.9,1,1c0.1,0.1,0.2,0.4,0,0.2c-0.2-0.2-0.5-0.3-0.6-0.5c-0.1-0.1-0.1,0.7,0,1c0,0.1,0.8,0.8,1,1 c0.2,0.1-0.1,0.2-0.1,0.1c0-0.1-0.5-0.5-0.7-0.6c-0.2-0.1-0.2,0.1-0.1,0.2c0.1,0.1,0.5,0.4,0.6,0.5c0.1,0.1,0,0.2-0.1,0.1 c-0.1-0.1-0.3-0.2-0.3-0.3c-0.3-0.2-0.3,0-0.4,0.2c-0.1,0.1,0,0.2,0.1,0.2c0.1,0.1,1,0.9,1,1c0.1,0.1,0.1,0.2,0,0.1 c-0.1-0.1-0.7-0.6-0.8-0.7c-0.1-0.1-0.3,0.1-0.1,0.2c0.2,0.2,0.6,0.6,0.7,0.7c0.1,0.1,0,0.2-0.1,0.1c-0.1-0.1-0.8-0.8-0.9-0.9 c-0.1,0-0.2,0-0.2,0.1c0,0-0.1,0.5,0.2,0.7c0.1,0.1,0.9,0.8,1.1,1c0.1,0.2,0.1,0.3,0,0.2c-0.2-0.1-1.1-0.9-1.2-0.9 c-0.1,0-0.3,0.6,0.1,0.9c0.2,0.2,0.6,0.5,0.7,0.6c0.1,0.1,0,0.2-0.1,0.1c-0.1-0.1-0.6-0.4-0.7-0.5c-0.1-0.1,0,0.2,0.1,0.3 c0.1,0.1,0.5,0.5,0.8,0.6c0.2,0.1,0.1,0.2,0,0.1c-0.2-0.1-0.5-0.4-0.7-0.5c-0.1-0.1,0,0.2,0.2,0.4c0.2,0.1,0.3,0.3,0.2,0.3 c-0.3,0.1,0.1,0.6,0.2,0.8c0.1,0.1,0.3,0.2,0.4,0.2c0.2,0,0.3-0.1,0.4-0.3c0.4-0.5,0.5-1.2,0.3-2c-0.1-0.8,0-1.5,0-1.9 C13.3,24.5,13.2,23.2,12.6,22.3z" class="st0"/><path d="M16.4,28.2c0,0-0.1,0.2-0.1,0.2c0.1,0.1,1.3,0.6,1.3,0.6c0.1,0.1,2.6,1,2.6,1c0.1,0,0.1-0.1,0.1-0.2 c0,0,0-0.3-0.2-0.4c-0.2-0.1-0.3-0.1-0.4-0.1l-0.1,0c-0.1,0-1-0.3-1.2-0.4l-0.3-0.1c-0.2-0.1-1.4-0.4-1.5-0.5 C16.5,28.1,16.4,28.1,16.4,28.2z" class="st0"/><path d="M16.4,19c0.1,0,0.2,0.1,0.4,0.2c0.2,0.1,0.5,0.3,0.6,0.3c0.1,0,0.3,0,0.3-0.1c0-0.1,0-0.1-0.1-0.2 c-0.1-0.1-0.9-0.5-1.1-0.6c-0.1,0-0.1,0-0.2,0C16.3,18.9,16.3,18.9,16.4,19C16.3,19,16.3,19,16.4,19z" class="st0"/><path d="M15.9,19.8c0.4,0.2,1.2,0.6,1.4,0.6c0.2,0,0.3-0.1,0.3-0.1c0,0,0-0.1-0.2-0.1c-0.2,0-1.5-0.6-1.6-0.7 c0-0.1-0.1-0.1-0.2,0c0,0-0.1,0-0.1,0.1c0,0-0.1,0.2,0,0.2L15.9,19.8z" class="st0"/><path d="M17.2,21.4c0.1,0,0.3-0.1,0.3-0.3c0,0-0.2-0.1-0.3-0.2c-0.6-0.2-1.7-0.7-1.8-0.8c0-0.1-0.2-0.1-0.2-0.1 c-0.1,0-0.1,0.2-0.1,0.2c0,0,0,0.1,0.1,0.2C15.1,20.6,16.9,21.4,17.2,21.4z" class="st0"/></g></svg>