<svg xmlns="http://www.w3.org/2000/svg" xmlns:xlink="http://www.w3.org/1999/xlink" id="Layer_1" x="0" y="0" version="1.1" viewBox="0 0 49 49" xml:space="preserve" style="enable-background:new 0 0 49 49"><style type="text/css">.st0{fill:#183059}</style><g><path d="M24.5,0.4c-13.3,0-24,10.7-24,24s10.7,24,24,24c13.3,0,24-10.7,24-24S37.7,0.4,24.5,0.4z M24.5,45 C13.1,45,3.9,35.8,3.9,24.4c0-11.4,9.2-20.6,20.6-20.6c11.4,0,20.6,9.3,20.6,20.6C45.1,35.8,35.9,45,24.5,45z" class="st0"/><path d="M24.5,5.2c-10.6,0-19.2,8.6-19.2,19.2s8.6,19.2,19.2,19.2c10.6,0,19.2-8.6,19.2-19.2S35.1,5.2,24.5,5.2z M24.5,43C14.2,43,5.9,34.7,5.9,24.4S14.2,5.8,24.5,5.8c10.3,0,18.6,8.3,18.6,18.6S34.8,43,24.5,43z" class="st0"/><path d="M33.9,36.6c-0.2,0-1,0.3-1.2,0.3c-0.1-0.1-0.4,0.1-0.2,0.2c0.2,0,1.1-0.1,1.3-0.2C34,36.8,34.1,36.6,33.9,36.6 z" class="st0"/><path d="M27.5,35.1c-0.2,0-0.3,0-0.5,0c-0.2,0-0.3,0.1-0.1,0.2s0.4,0.1,0.5,0.1C27.6,35.3,27.7,35.1,27.5,35.1z" class="st0"/><path d="M26.5,33.9c0.2,0,0.1-0.2,0.1-0.2c0,0-0.5-0.1-0.6-0.2c-0.2-0.1-0.3,0.2-0.1,0.2C26.1,33.8,26.3,34,26.5,33.9z" class="st0"/><path d="M26.2,34.4c-0.2,0-0.3,0.2-0.1,0.2c0.2,0,0.5,0.1,0.6,0.1c0.1,0,0.2-0.2,0.1-0.2 C26.6,34.5,26.4,34.4,26.2,34.4z" class="st0"/><path d="M28.6,36.6c0.1,0,0.2-0.1,0.2-0.2c0,0-0.1-0.1-0.3,0c-0.1,0.1-0.7,0-0.8,0c-0.2,0-0.3,0.1-0.2,0.1 C27.5,36.6,28.4,36.7,28.6,36.6z" class="st0"/><path d="M28.9,37c-0.1,0.1-0.7,0-0.8,0c-0.1,0-0.3,0-0.2,0.1c0.1,0.1,1,0.2,1.1,0.1c0.1,0,0.2-0.1,0.2-0.2 C29.1,37,29,37,28.9,37z" class="st0"/><path d="M19.4,7.6c-0.1,0-0.3-0.1-0.6-0.1c-0.2,0.1-0.3,0.1-0.5,0.2c0.4,0.1,1,0.2,1.2,0.2C19.8,7.9,19.6,7.6,19.4,7.6 z" class="st0"/><path d="M35.2,22.1c0.1,0,0.1,0,0.2,0.1c-0.1,0-0.2-0.1-0.3-0.1C35.2,22.1,35.2,22.1,35.2,22.1z" class="st0"/><path d="M36.6,32.2L36.6,32.2c-1-1.6-1.9-3-2.2-4.7c-0.1-0.7,0-1.4,0.1-2.2c0.1-0.6,0.1-1.2,0-1.8 c-0.1-0.8-0.4-1.5-0.8-2.2c0,0,0.7,0.3,1.5,0.7c-0.1-0.1-0.3-0.3-0.5-0.6c-0.1-0.1-0.1-0.2-0.1-0.4c0-0.1,0-0.3,0-0.3 c0.2-0.4-0.3-1.3-0.4-1.4c-0.1-0.1-0.2-0.3-0.3-0.5c0-0.1-0.2-0.7,0.1-1c0.1-0.1,0.4-0.3,0.6-0.4c0.1-0.1,0.2,0,0.2,0.1 c-0.1,0.1-0.2,0.2-0.3,0.3c-0.1,0.2-0.1,0.5-0.1,0.8c0,0.2,0.1,0.4,0.2,0.6c0.1,0.3,0.2,0.6,0.3,0.9c0,0.2,0,0.4,0,0.6 c0,0.1,0,0.2,0,0.3c0,0.2,0.2,0.4,0.3,0.5c0.1,0.2,0.3,0.4,0.3,0.5c0,0,0,0,0,0c0,0,0,0,0,0c0,0,0,0,0,0c0,0,0,0,0.1,0 c0.3,0.2,0.5-0.1,0.4-0.3c-0.1-0.1-0.2-0.3-0.3-0.6c-0.2-0.2-0.3-0.4-0.2-0.7c0.1-0.4,0-0.9-0.3-1.6c-0.4-1-0.2-1.5,0.3-1.7 c0.2,0,0.2-0.3,0.1-0.4c-2.4-2.1-5.1-2.9-7.6-2.9c0.1-0.4,0.2-0.9,0.2-1.5c0.3,0,0.9,0,1.3,0c0.2,0,0.4-0.1,0.4-0.2 s-0.3-0.6-0.6-0.6c-0.2,0-0.7-0.3-1-0.4c0.1-1.2,0.2-2.5,0.2-3.6c0-0.3,0-0.7-0.1-1c-0.1,0-0.3,0-0.4-0.1c0.1,0.4,0.1,0.7,0.1,1.1 c0,1.1-0.1,2.3-0.2,3.5c-0.2,0-0.3,0-0.5,0c-0.3,0-0.5,0-0.7-0.1c-0.7-0.2-1.2-0.2-1.6,0l0,0c0-0.4,0-0.9,0-1.3c0,0,0.1,0,0.1,0 c0.1,0,0.1,0.1,0.1,0.2c0,0.1,0,0.7,0,0.8s0.1,0,0.1-0.1c0-0.1,0-0.2,0-0.5c0-0.2,0-0.9,0-1.1c0-0.2,0-0.4,0-0.6 c0-0.2-0.2,0-0.2,0.1c0,0.1,0,0.3,0,0.5c0,0.2-0.1,0.1-0.2,0.1c0-0.1,0-0.3,0-0.4c0-0.2-0.1-0.4-0.1-0.7c-0.1-0.7-0.3-1.3-0.6-1.7 c-0.1-0.1-0.2-0.2-0.3-0.2c-0.2,0-0.5,0-0.7,0c0.1,0,0.1,0.2,0,0.5c-0.1,0.1-1,1.7-1,1.7c-0.1,0.1-1.3,1.4-1.3,1.5 c-0.1,0.1-0.3,0.2-0.4,0.4c-0.2,0.2-1.5,1.6-1.7,1.9c-0.1,0-0.2-0.1-0.4-0.1c-0.7-0.3-0.5-0.8,0.1-0.8c0.1,0,0.2,0,0.5,0 c0.3,0.1,0.1-0.1,0-0.2c-0.1,0-0.3-0.1-0.6-0.1c-0.7-0.1-0.5-0.5-0.3-0.5s0.9,0.1,1.1,0.1c0.2,0,0.1-0.1,0-0.2 c-0.2-0.1-0.7-0.1-0.9-0.2c-0.7-0.2-0.6-0.6-0.4-0.5c0.2,0,0.8,0.1,1,0.2c0.2,0,0.2-0.2,0-0.2c-0.2,0-0.9-0.2-1-0.2 c-0.1,0-0.3-0.4,0.2-0.4c0.2,0,1.1,0.1,1.3,0.2c0.2,0,0.2-0.1,0-0.2c-0.2-0.1-1-0.2-1.3-0.3c-0.3-0.1-0.5-0.3-0.1-0.3 c0.4,0,0.8,0.1,1.1,0.2c0.3,0,0.2-0.2,0-0.2c-0.2,0-0.9-0.2-1.2-0.3c-0.3-0.1-0.3-0.3-0.1-0.3c0.2,0,1.2,0.3,1.4,0.3 c0.3,0,0.3-0.1,0-0.2c-0.3-0.1-1.2-0.3-1.5-0.4c-0.2,0.1-0.3,0.1-0.5,0.2c0,0.3,0,0.5-0.1,0.7c-0.2,0.6-0.3,1.1-0.3,1.9 c0,0.8,0,1.9,0,3c0,1-0.2,2.7-0.1,4.2c-0.2,0.1-0.4,0.2-0.6,0.4c-0.1-1.5,0-3.3-0.3-5c-0.2-0.8-1-0.8-1.2,0 c-0.1,0.3-0.1,0.4-0.2,0.6c-0.1,0.3-0.3,0.5-0.7,0.5c-0.4,0.1-1,0.2-1.3,0.4c-0.2,0.1-0.3,0.3-0.2,0.5c0.1,0.6,0.2,2.2,0.3,4.2 c-0.2,0.1-0.4,0.2-0.6,0.4c-0.4,0.4-0.5,1.1-0.3,1.9c0.4,1.2,0.3,1.8,0,2.5c-0.6,1.5-0.3,3.6,0.9,5c0,0,0,0.1,0.1,0.1 c0.1,0.1,0.2,0.2,0.3,0.2c0.1,3.3,0.2,6.5,0.3,8.6c0.1,0.1,0.1,0.1,0.2,0.1c0-0.1,0-0.1,0.1-0.1c0.1-0.1,0.1,0,0.3,0.1 c0.2,0.1,0.1-0.1,0-0.2c-0.1-0.1-0.2-0.1-0.3-0.2c-0.1-0.1-0.1-0.2,0-0.2c0.1,0.1,0.2,0.1,0.3,0.1c0.1,0.1,0.1-0.1,0-0.1 s-0.2-0.1-0.4-0.2c-0.1-0.1,0-0.3,0.1-0.2c0.1,0.1,0.3,0.2,0.5,0.3s0.1-0.1,0-0.2s-0.4-0.2-0.5-0.3c-0.2-0.1-0.3-0.5,0-0.5 c0.2,0,0.3,0.2,0.5,0.2c0.2,0.1,0.2-0.1,0.1-0.2c-0.1-0.1-0.5-0.3-0.6-0.4c-0.2-0.1-0.1-0.4,0.1-0.4c0.1,0,0.2,0.1,0.4,0.1 c0.1,0.1,0.2-0.1,0.1-0.1c-0.1-0.1-0.3-0.2-0.4-0.2c-0.1-0.1-0.1-0.4,0.1-0.3c0.2,0.1,0.2,0.1,0.4,0.2c0.2,0.1,0.1-0.1,0-0.2 c-0.1,0-0.4-0.2-0.5-0.2c-0.1-0.1-0.1-0.3,0.1-0.2c0.1,0.1,0.3,0.2,0.4,0.2c0.1,0.1,0.3,0,0.2-0.1c-0.1-0.1-0.2-0.2-0.3-0.2 c-0.6-0.2-0.3-2.2,0.7-1.4c0.2,0.2,1.1,1.3,1.4,1.2c0.4-0.1,0.4,4.7,0.4,4.8c0,0.3,0,0.5,0.1,0.8c0.1,0.1,0.2,0.1,0.4,0.2 c0-1.7-0.1-3.9-0.2-5.4c0,0-0.1-0.1-0.1-0.1c1.4,1.7,3.1,3,5.2,3.7h0c0.2,0.9,0.5,2.3,0.7,3.4c0.5,0.1,1,0.1,1.5,0.1 c0-0.3,0-0.7,0-0.8c0-0.2,0.3-0.6,0.8-0.5c0.3,0,0.5-0.1,0.5-0.2c0-0.1,0-0.5,0-0.5c0.4,0,0.2-0.4,0.3-0.5c0.3,0,0.7,0,1-0.1 c0,0,0.1,0,0.1,0c0,0.1,0.3,1.3,0.5,2.3c0.1,0,0.2,0,0.4-0.1l-0.5-2.3l0.2,0c0.5,0.1,1,0.1,1.5,0c1.8,0,3.5-0.3,4.9-0.9 c1.3-0.6,2.3-1.4,2.9-2.4c0.4-0.8,0.6-1.6,0.4-2.4C37.1,33.2,36.9,32.7,36.6,32.2z M21.6,32.9c0,0,0,0.1,0,0.1c0,0-0.1,0.1-0.1,0.1 c-0.1,0-0.7-0.2-0.9-0.3l-0.2-0.1c-0.1,0-0.1-0.1-0.1-0.1c0,0,0-0.1,0.1-0.1c0,0,0.1,0,0.2,0c0,0,0.1,0.1,0.2,0.1 C21,32.7,21.6,32.9,21.6,32.9z M21.2,31.6c-0.1,0-1.3-0.4-1.5-0.4l-0.1,0l-0.1,0c-0.1,0-0.2,0-0.2-0.2c0,0,0-0.2,0-0.2 c0.1,0,1.3,0.4,1.4,0.4c0.2,0,0.3,0,0.4,0.1c0,0,0,0,0,0c0,0.1,0.1,0.2,0.1,0.3c0,0,0,0,0,0C21.4,31.6,21.3,31.6,21.2,31.6z M26.3,16.7c-0.1-0.2,0.1-0.2,0.2-0.1c0.1,0.1,0.4,0.4,0.5,0.3c0.1,0,0-0.1-0.2-0.3c-0.2-0.2,0.1,0,0.2-0.1c0,0,0,0,0,0 c0.8,0.1,1.6,0.4,2.4,1c1,0.7,1.9,1.6,2.4,2.6c-0.4-0.1-0.8-0.2-1.1-0.2l-0.1,0c-0.9,0-1.7,0-2.2-0.7l-0.2-0.2 c-0.3-0.4-0.8-1.1-1.5-1.7c0,0,0,0,0,0C26.5,16.9,26.3,16.7,26.3,16.7z M18,17.5c0.2-0.1,0.5-0.2,0.8-0.4c0.2-0.2,0.5-0.4,0.8-0.6 h0c0.5-0.3,1.1-0.5,1.8-0.6c0,0,0.4-0.1,0.4-0.1c0.2,0,0.5,0,1,0l0.5,0l0.4,0c0.1,0,0.2,0,0.4,0.1c0.5,0.1,0.9,0.3,1.2,0.5 c0.1,0,0.2,0.1,0.3,0.1l0,0l0,0l0,0c0.3,0.2,0.6,0.4,0.9,0.7c0.7,0.6,1.2,1.3,1.4,1.7l0.2,0.2c0,0,0,0.1,0.1,0.1 c0.6,0.7,1.3,0.8,2.3,0.8h0.1c0.4,0,0.9,0.1,1.4,0.3c0,0,0,0,0,0c0,0,0.1,0,0.1,0l0,0c0.7,0.4,1.2,1,1.6,2.1 c0.2,0.7,0.4,1.5,0.4,2.1c0,0.6-0.1,1-0.3,1.4c0,0.1-0.1,0.1-0.1,0.2c-0.3,0.6-0.5,1-0.5,1.5c0,0.2,0,0.3,0.1,0.5 c0.2,0.8,0.7,1.3,1.2,1.6l0,0c0.1,0.1,0.1,0.1,0.2,0.2c1,0.9,1.7,2.1,1.8,3.1c0,0,0,0.1,0,0.1c0,0,0,0,0,0c0,0,0,0,0,0c0,0,0,0,0,0 c0-0.1-0.1-0.3-0.1-0.4c-0.2-0.7-0.6-1.3-1-1.7c-0.4-0.5-0.9-0.9-1.1-1.1c-0.2-0.1-0.3-0.1-0.4,0c0,0-0.1,0.1-0.1,0.2 c0,0,0,0.1,0,0.2c0.2,0.5,0.4,0.7,0.6,0.9c0.2,0.2,0.5,0.7,0.5,1.2c0.1,0.6,0.3,1.1,0.4,1.3c0,0,0,0,0,0c0,0,0,0,0,0 c-0.3-0.4-0.5-0.8-0.6-1.2c-0.1-0.5-0.2-0.8-0.6-1.2c-0.5-0.6-0.8-1.1-1-1.6c-0.1-0.3-0.1-0.5-0.1-0.7c0-0.2,0-0.4-0.1-0.7 c-0.1-0.3-0.1-0.5-0.1-0.8c0-0.6,0.2-1.3,0.6-1.8c0.3-0.4,0.4-0.9,0.4-1.5c0-0.2,0-0.4-0.1-0.7c-0.1-0.3-0.1-0.7-0.3-1.1 c-0.6-1.5-1.4-2.1-2.7-2.1c-1,0-2.1-0.1-2.8-1.2c-0.3-0.4-0.6-0.8-0.9-1.2c0-0.1-0.1-0.1-0.1-0.2c-0.1-0.2-0.3-0.3-0.5-0.5 c-0.1-0.1-0.2-0.2-0.3-0.3c-0.2-0.1-0.3-0.2-0.5-0.3c-0.7-0.4-1.6-0.6-2.8-0.7c-0.1,0-0.1,0-0.2,0c-0.1,0-0.1,0.1-0.2,0.1 c0,0,0,0,0,0.1c0,0,0,0.1,0,0.1c0,0.1,0,0.1,0.1,0.2c0.3,0.4,0.7,0.8,1.2,1c0.5,0.3,1,0.4,1.7,0.5c0.7,0.1,1,0.5,1.3,1.1 c0.3,0.6,0.7,1.2,1.3,1.5c0.5,0.3,1,0.6,1.3,1.3c0.2,0.3,0.4,0.3,0.6,0.4l0.1,0l0.3,0.1h0h0.1c0,0,0.1,0,0.3,0.1 c1.2,0.5,1.5,1.5,1.6,2.4c0,0,0,0,0,0c0,0,0,0.1,0,0.1c0,0,0,0,0-0.1c-0.3-1.5-1.2-2-2-2.1c-0.2,0-0.3,0-0.4,0.1 c-0.1,0.1-0.1,0.2-0.1,0.3c0,0,0,0,0,0c0,0,0,0.1,0,0.1c0,0.7-0.4,1.4-1.2,1.9c-0.8,0.5-1.2,1.2-1.3,1.9c0,0,0,0.1,0,0.1 c0,0.7,0.4,1.5,1,2.4c0.2,0.2,0.4,0.3,0.6,0.4l0.3,0.2c0.5,0.3,0.7,0.8,0.9,1.4l0.2,0.4c0.2,0.4,0.3,0.6,0.8,0.9l0.1,0 c0.6,0.5,1.1,0.8,1.3,1.5v0c0,0,0,0,0,0c-0.2-0.7-0.9-1.1-1.5-1.4c-0.3-0.1-0.6-0.3-0.7-0.7l0-0.1c-0.2-0.4-0.5-1-0.8-1.4 c-0.1-0.1-0.2-0.1-0.3-0.1c-0.1,0-0.2,0.1-0.3,0.3l-0.1,0.2L27.9,32c-0.1,0.2-0.2,0.6-0.2,1.1c0,0.4,0.1,0.7,0.2,1l0.1,0.1 c0.2,0.4,0.5,0.8,0.6,1.3c0,0,0,0,0,0.1c0,0,0,0,0-0.1c-0.1-0.3-0.4-0.8-0.8-1.3c-0.3-0.4-0.4-0.8-0.4-1.3c0-0.5,0.1-0.9,0.4-1.4 c0.1-0.2,0.1-0.3,0.1-0.5c0-0.2-0.1-0.4-0.2-0.6l0,0c-0.2-0.3-0.4-0.6-0.8-1.2c-0.6-1.1-1-2.8,0.9-4c0.6-0.4,1-1,1-1.6 c0-0.7-0.5-1.4-1.3-1.9c-0.6-0.4-1.2-1.1-1.6-2c-0.1-0.2-0.2-0.2-0.4-0.2c-0.1,0-0.2,0.2-0.2,0.3c0,0,0,0,0,0c0,0.1,0,0.1,0,0.2 c0,0.7-0.3,1.3-0.8,1.7c-0.5,0.4-1.2,1.2-1.4,2.1c-0.1,0.3-0.1,0.6-0.1,0.9c0,0.1,0,0.3,0,0.4c0.1,0.5,0.4,1.1,0.8,1.6 c0.3,0.4,0.5,1,0.6,1.4c0,0,0,0,0,0c0,0,0,0,0,0c0,0,0,0,0-0.1c-0.1-0.4-0.4-0.8-0.7-1.3c-0.4-0.4-0.7-1.1-0.9-1.7 c0-0.1,0-0.2-0.1-0.2v0l0,0l-0.1-0.1l0,0c-0.1,0-0.1-0.1-0.2-0.1c-0.3,0-0.9,0.2-1.1,0.4c-0.2,0.2-0.4,0.4-0.4,0.6 c0,0.1-0.1,0.2-0.1,0.4c0,0.1,0,0.1,0,0.2c0,0.1,0,0.1,0.1,0.2c0,0,0,0.1,0,0.1c0.2,0.4,0.3,0.8,0.4,1.1c0,0.1,0.1,0.2,0.1,0.4 c0,0.1,0.1,0.3,0.1,0.4c0,0,0,0,0,0c0,0.1,0.1,0.3,0.1,0.4c0,0,0,0.1,0,0.1l0,0.2l0,0.2l0,0c0.1,0.3,0.2,0.5,0.4,0.5 c0.6,0.1,1.9,0.6,2.7,1.1c0,0,0,0,0,0c0,0,0,0,0,0c-0.9-0.4-2.1-0.7-2.6-0.8c-0.1,0-0.2,0-0.2,0.1c0,0,0,0,0,0c0,0-0.1,0.1-0.1,0.2 c0,0,0,0.1,0,0.1c0.2,1,0.8,2.7,1.4,3.7c0,0,0,0,0,0c0,0,0,0,0,0c-0.4-0.6-1-1.7-1.4-2.9c-0.3-0.8-0.6-2-0.8-2.8 c-0.2-0.7-0.3-1.1-0.6-1.8L20,26.5c-0.1-0.2-0.1-0.4-0.1-0.6c0-0.2,0-0.3,0.1-0.5c0-0.1,0-0.2,0.1-0.2c0.3-0.5,0.9-1,1.7-1.2 c0.4-0.1,0.7-0.5,0.8-0.8c0.2-0.7,0.7-1.4,1.4-2.1c0.4-0.4,0.5-0.9,0.6-1.3l0,0c0-0.1,0-0.1,0-0.2c0-0.4-0.2-0.6-0.6-0.8 c-0.2-0.1-0.5-0.2-0.7-0.3c-0.8-0.4-1.4-0.8-1.9-1.6c-0.1-0.2-0.3-0.4-0.7-0.4c-0.4,0.1-1,0.4-1.3,0.7c-0.2,0.2-0.3,0.4-0.3,0.7 c0,0,0,0.1,0,0.1l0,0.7l0,0.2l0,0.3c0,0,0,0,0,0c0,0,0,0.1,0,0.1c0,0.1,0,0.2,0,0.3c0,0.1,0,0.3-0.1,0.4c0,0.1-0.1,0.3-0.2,0.4 c0,0,0,0.1-0.1,0.1c0,0.1-0.1,0.2-0.1,0.3c0,0.1-0.1,0.1-0.1,0.2c0,0.1,0,0.1-0.1,0.2c-0.1,0.2-0.1,0.5-0.1,0.7c0,0.1,0,0.1,0,0.2 c0,0.3,0,0.5,0,0.8c0,0.4,0,0.7-0.1,1.1c0,0.1-0.1,0.2-0.1,0.3c-0.1,0.3-0.2,0.5-0.5,0.7c0,0,0,0,0,0c0,0,0,0,0,0 c0.3-0.6,0.4-1.2,0.4-1.8c0-0.4,0-0.7-0.1-1.1l0-0.2c0-0.1,0-0.2,0-0.2c0-0.3,0.1-0.6,0.2-0.9l0.1-0.3c0.1-0.2,0.2-0.5,0.3-0.7 c0-0.2,0.1-0.3,0.1-0.5c0-0.3,0-0.5-0.1-0.9c0-0.2-0.1-0.4-0.2-0.4c-0.1-0.1-0.2-0.1-0.4,0c-1.4,0.4-2.7,1.4-3.5,2.6 c0.4-0.9,1.1-1.6,1.8-2.1c0.2-0.1,0.4-0.3,0.6-0.4C17.3,17.8,17.7,17.7,18,17.5z M18,20.3c0.2,0,0.2,0.1,0.2,0.1 c0,0-0.1,0.1-0.3,0.1c-0.3,0-1-0.4-1.4-0.6l-0.2-0.1c-0.1,0,0-0.2,0-0.2c0,0,0-0.1,0.1-0.1c0,0,0.1,0,0.2,0 C16.6,19.7,17.8,20.2,18,20.3z M16.9,19.2c0,0,0-0.1,0.1-0.1c0,0,0.1-0.1,0.2,0c0.2,0.1,0.9,0.5,1,0.6c0.1,0,0.1,0.1,0.1,0.2 c0,0.1-0.1,0.1-0.3,0.1c-0.1,0-0.4-0.2-0.6-0.3C17.2,19.4,17.1,19.3,16.9,19.2C16.9,19.2,16.9,19.2,16.9,19.2z M15.3,21.1 c0,0,0.2,0,0.2,0c0.1,0.1,0.9,0.4,1.1,0.5c0.1,0,0.4,0.1,0.7,0.2c0.2,0.1,0.4,0.2,0.5,0.2c0.1,0,0.1,0.1,0.1,0.1 c0,0.1-0.1,0.4-0.1,0.4c-0.1,0.1-1.2-0.4-1.5-0.5c-0.2-0.1-0.9-0.4-1.1-0.5c-0.1,0-0.1-0.1-0.1-0.2C15.1,21.3,15.2,21.1,15.3,21.1z M17.7,21.5c-0.3,0-1.9-0.8-2-0.9c0,0-0.1-0.1-0.1-0.2c0,0,0.1-0.2,0.1-0.2c0.1,0,0.2,0,0.2,0.1c0.1,0.1,1.1,0.5,1.7,0.8 c0.1,0,0.3,0.1,0.3,0.2C18,21.4,17.9,21.5,17.7,21.5z M14.6,22.1c0.1-0.1,0.3-0.1,0.4,0c0.1,0.1,2.7,1.1,3,1.1 c0.1,0,0.1,0.1,0.1,0.1c0,0,0,0.5,0,0.6c-0.1,0.1-0.2,0.1-0.3,0.1c-0.2,0-3-1.3-3.2-1.4c0,0-0.1-0.1-0.1-0.1 C14.5,22.4,14.5,22.1,14.6,22.1z M18.6,23.9c0.1,0,0.2,0,0.4,0c0.2,0.1,0.5,0.1,0.5-0.1c0-0.1-0.2-0.1-0.6-0.3 c-0.1,0-0.2-0.1-0.2-0.2c0-0.1,0-0.2,0-0.2c0.1-0.1,0.2-0.2,0.4-0.1c0.2,0,0.3-0.1,0.2-0.2c-0.1-0.1-0.3,0-0.4-0.1 c-0.1,0-0.1-0.1-0.2-0.2c0-0.1,0-0.2,0-0.3c0-0.1,0-0.2,0-0.3c0.1-0.1,0.2-0.1,0.4-0.1c0.1,0,0.2-0.1,0-0.2c-0.2,0-0.2-0.1-0.3-0.1 c0-0.1,0.1-0.3,0.1-0.4c0.1-0.1,0.1-0.2,0.2-0.3c0.1,0,0.2,0.1,0.3,0.1c0.2,0.1,0.2-0.1,0-0.2c-0.1-0.1-0.2-0.1-0.3-0.2 c0-0.1,0.1-0.2,0.1-0.3c0.1,0,0.3,0.1,0.4,0.2c0.2,0.1,0.2-0.2,0-0.3c-0.1,0-0.2-0.1-0.4-0.1c0.1-0.2,0.1-0.4,0.1-0.5 c0.2,0,0.4,0.1,0.4,0.1s0.2-0.2,0-0.3c-0.1,0-0.1,0-0.4-0.1c0,0,0,0,0-0.1l0-0.4c0,0,0.1,0,0.1,0c0.1,0,0.6,0.2,0.9,0.1 c0.3-0.1,0.2-0.2,0-0.3c-0.2-0.1-0.8-0.2-1-0.3c0,0,0,0,0,0l0-0.2c0,0,0,0,0,0c0.1-0.2,0.3-0.5,0.4-0.5c0.3-0.1,1-0.6,1.6,0.2 c0.1,0.2,0.5,0.3,0.6,0.4c0,0,0.1,0,0.1,0.1c0.2,0.2,0.3,0.3,0.5,0.4c0,0,0,0,0,0c0,0.1,0.1,0.1,0.2,0.1c0.3,0.2,0.6,0.3,0.9,0.4 c0.4,0.2,0.5,0.3,0.5,0.7l0,0c-0.1,0.4-0.1,0.8-0.5,1.2c-0.8,0.7-1.3,1.4-1.5,2.2c-0.1,0.2-0.2,0.5-0.6,0.6 c-0.8,0.2-1.4,0.7-1.7,1.2c0-0.1-0.1-0.1-0.1-0.1c0,0,0-0.2-0.1-0.3c-0.1,0-0.9-0.3-1.2-0.4C18.6,24.2,18.6,24,18.6,23.9z M18.2,25.3c0.2,0,0.6,0.2,0.9,0.3c0.2,0,0.3,0.1,0.4,0.2c0.1,0,0.1,0.1,0.1,0.1c0,0,0,0.1,0,0.1c0,0.1-0.1,0.1-0.3,0l-0.3-0.1 c-0.3-0.1-0.8-0.2-1-0.3C18,25.5,18,25.4,18,25.3C18,25.3,18.1,25.3,18.2,25.3z M19.4,25.4c-0.2,0-0.5-0.2-0.7-0.3 c-0.1-0.1-0.3-0.1-0.3-0.1c-0.1,0-0.1-0.1-0.1-0.1c0,0,0-0.1,0-0.1c0,0,0.1,0,0.2,0c0.1,0.1,0.9,0.4,1.2,0.4c0.1,0,0.1,0.1,0.1,0.1 C19.7,25.4,19.6,25.4,19.4,25.4z M20.3,28C20.3,28,20.4,28,20.3,28c0.1,0.2,0.2,0.4,0.2,0.6c0,0,0,0,0,0.1c0,0.1-0.2,0.1-0.2,0.1 c0,0-2.1-0.8-2.3-0.9c-0.3-0.1-0.6-0.2-0.7-0.3c0-0.1,0.1-0.6,0.9-0.2C18.4,27.4,20.3,28,20.3,28z M18.6,28.4l0.3,0.1 c0.2,0.1,1,0.4,1.1,0.4l0.1,0c0.1,0,0.2,0,0.4,0.1c0.2,0.1,0.2,0.4,0.2,0.4c0,0.1,0,0.2-0.1,0.2c-0.1,0-2.4-0.8-2.5-0.9 c0,0-1.1-0.5-1.2-0.6c0,0,0.1-0.2,0.1-0.2c0-0.1,0.1-0.1,0.2,0C17.3,28,18.4,28.3,18.6,28.4z M14.6,23.2c0,0,0.2,0.1,0.4,0.1 c0.1,0,0.2,0.1,0.2,0.1c0.1,0,1.4,0.5,1.8,0.7l0.3,0.1c0.1,0,0.1,0.1,0.1,0.1c0,0,0,0.2,0,0.2c0,0,0,0.2-0.5,0.1 c-0.7-0.2-2.7-0.7-2.6-1.3C14.3,23.3,14.5,23.1,14.6,23.2z M14.7,24.4c1.1,0.3,2.1,0.7,2.7,1c0.5,0.2,0.2,0.3,0.3,0.4 c0.2,0.1,0.5,0.2,1,0.4c0.5,0.2,0.9,0.3,1,0.4c0,0,0,0,0,0.1l0.1,0.2c0,0,0,0.1,0,0.1c0,0,0,0.1-0.1,0.1c0,0-0.1,0-0.2,0 c-0.1-0.1-0.7-0.3-1.3-0.5c-0.6-0.2-1.2-0.4-1.3-0.5c-0.2-0.1-0.5-0.2-0.8-0.3c-0.2-0.1-0.5-0.1-0.6-0.2c-0.4-0.2-0.9-0.3-1.3-0.5 C14.4,25,14.5,24.4,14.7,24.4z M14.5,25.7c0-0.1,0-0.2,0.2-0.1c0.1,0,2.6,1,2.8,1c0,0,0.1,0.2,0,0.2c0,0.1-0.2,0.1-0.2,0.1 l-1.8-0.6c-0.5-0.1-0.9-0.3-1-0.4C14.4,25.8,14.5,25.8,14.5,25.7z M15.4,26.6c0.1,0,0.9,0.3,1.1,0.4c0.2,0.1,0.3,0.1,0.4,0.2 c0,0,0.1,0.1,0,0.2c0,0,0,0.2-0.1,0.2c0,0-0.1,0-0.1,0c-0.1-0.1-1.4-0.6-1.5-0.6C15.2,26.8,15.3,26.6,15.4,26.6z M16.7,28.6 c0,0,0.1,0,0.1,0c0,0,0.2,0.1,0.3,0.1c0.2,0.1,0.9,0.4,1.2,0.5c0.2,0.1,2.1,0.8,2.2,0.8c0.1,0,0.3,0.1,0.4,0.1c0,0,0,0,0,0 c0,0,0,0,0,0.1c0,0,0,0.1,0,0.1c0,0.1,0.1,0.3,0,0.3c-0.2,0-1.5-0.4-1.6-0.5c-0.1,0-0.2-0.1-0.5-0.2c-0.5-0.2-0.9-0.4-1.1-0.4 c-0.5-0.2-1.2-0.2-1.2-0.7C16.6,28.7,16.7,28.6,16.7,28.6z M34.4,29.7c-0.4-0.3-0.9-0.8-1-1.5c0-0.2,0-0.3,0-0.5 c0-0.4,0.1-0.7,0.3-1.1C33.6,27.7,33.9,28.7,34.4,29.7z M34.1,21.4c0,0,0,0.1,0,0.1c-0.1-0.1-0.2-0.1-0.3-0.2 c-0.1-0.3-0.5-0.8-0.6-0.9c-0.1-0.1,0.1-0.2,0.4,0C33.8,20.6,34.1,21.2,34.1,21.4z M34.5,16.9c0,0-0.1,0-0.1,0 c-0.1-0.1-0.4-0.1-0.5-0.1c-0.1,0-0.5,0.1-0.7,0.1c-0.2,0-0.4,0.2-0.4,0.4c0.1,0.2,0,0.6,0,0.7c0,0.2,0.2,0.5,0.3,0.5 c0.1,0.1,0.2,0.4,0.1,0.5C33.1,19,33,19,33,19.2c0.1,0.2-0.1,0.4-0.1,0.3c-0.1-0.1-0.1-0.2-0.2-0.4c-0.1-0.2-0.2-0.3-0.1-0.1 c0.1,0.2,0.1,0.3,0.2,0.5c0.1,0.2-0.1,0.3-0.2,0c-0.1-0.2-0.3-0.5-0.3-0.6c0-0.2-0.2-0.1-0.1,0.1c0,0.2-0.1,0.3-0.2,0 s-0.3-0.9-0.4-1.1c-0.1-0.2-0.2-0.2-0.2-0.1c0,0.1,0.1,0.3,0.1,0.4c0,0.1-0.1,0.2-0.2,0c0-0.2-0.2-0.4-0.2-0.6 c0-0.1-0.3-0.3-0.2-0.1c0.1,0.2,0,0.3,0.1,0.5c0,0.2-0.1,0-0.2,0c0-0.1-0.1-0.3-0.1-0.4c0-0.1-0.2-0.2-0.2-0.1c0,0.1,0,0.2,0,0.2 c-0.1,0-0.1-0.2-0.1-0.3c0-0.1-0.2-0.4-0.2-0.6c-0.1-0.2-0.2-0.2-0.2-0.1c0.1,0.1,0.1,0.4,0.1,0.5s-0.2,0.1-0.2,0 c0-0.1-0.3-0.6-0.3-0.7c-0.1-0.1-0.2,0-0.1,0.1s0.2,0.3,0.2,0.5c0,0.1-0.2-0.1-0.2-0.2c-0.1-0.1-0.2-0.4-0.3-0.5 c-0.1-0.1-0.2-0.1-0.2,0c0.1,0.1,0.1,0.2,0.1,0.3c0.1,0.2-0.2,0-0.3-0.1c0-0.1-0.3-0.5-0.3-0.6c0-0.1-0.2,0-0.1,0.1 c0.1,0.1,0.1,0.2,0.1,0.4c0,0.1-0.3-0.1-0.3-0.2c0-0.1-0.3-0.4-0.4-0.6c-0.1-0.2-0.1,0-0.1,0.1c0,0.1,0.2,0.3,0.2,0.4 c0,0.1-0.1,0.1-0.2,0c0-0.1-0.2-0.4-0.2-0.4c0-0.1-0.3-0.2-0.1,0.2c0.2,0.3,0,0.3,0,0.3c-0.1,0-0.2-0.1-0.2-0.1s-0.1-0.2-0.1-0.4 c0-0.2-0.2-0.1-0.1,0c0,0.1,0,0.2,0,0.3c0,0.1-0.2,0-0.2,0c0-0.1-0.1-0.3-0.2-0.4c0-0.1-0.2-0.1-0.1,0c0.1,0.1,0.1,0.2,0.1,0.3 c0,0.1,0,0.1-0.1,0.1c-0.1-0.1-0.2-0.2-0.3-0.3c-0.1-0.1-0.3,0.1-0.4,0.1c-0.1,0-0.3-0.3-0.4-0.3c-0.1,0-0.2,0-0.1,0.1 c0,0.1,0.2,0.2,0.2,0.3c0,0.1,0,0.3-0.1,0.3c-0.2,0-0.4-0.3-0.5-0.3c-0.2,0-0.3,0-0.4,0.1c0,0,0,0-0.1,0c-0.1,0-0.3-0.1-0.4-0.1 l-0.4,0c0,0-0.1,0-0.1,0c-0.1,0-0.1-0.1-0.1-0.2C26.4,14,30.8,13.9,34.5,16.9z M25.2,13.1c0.2,0,1.4-0.2,1.6-0.2 c0.4,0,0.6-0.1,0.8-0.1c-0.1,0.4-0.1,0.8-0.2,1.2c-0.5,0-2,0.2-2.5,0.3C24.8,14.2,25,13.2,25.2,13.1z M17.9,14.6 c0,0,0.7-1.1,0.7-1.2c0.5-1,1.3-1.8,2.1-2.5c1.6-1.4,2.3-2.5,2.9-4c0-0.1,0.1-0.1,0.1-0.1c0,0,0.3,0.3,0.3,0.4c0,0,0.2,0.5,0.1,0.5 s-0.2,0-0.3-0.1c-0.1-0.1-0.2,0.1,0,0.2c0.1,0.1,0.4,0.3,0.4,0.3s0.1,0.3,0,0.3c-0.1,0-0.4-0.3-0.6-0.4c-0.2-0.1-0.2,0.1-0.2,0.2 s0.5,0.5,0.7,0.6c0.2,0.1,0,0.2,0.1,0.4c-0.6,0.6-1,1.4-1.2,2.2c0,0.1,0,0.1,0,0.2c0,0.1,0.1,0.2,0.1,0.2c0.1,0.1,0.3,0.1,0.4,0 c0.3-0.2,0.8-0.3,1-0.2s0.4,0,0.6,0h0c0.3-0.1,0.8-0.1,1.4,0c0.3,0.1,0.6,0.1,0.9,0.1c0.2,0,0.3,0,0.4,0l0.5,0.2 c0.1,0.1,0.3,0.1,0.4,0.2c0,0.1-0.1,0.1-0.1,0.1c-0.2,0-1.2,0.2-1.2,0.2c-0.1,0-0.2,0-0.2,0c-0.2-0.2-0.6-0.4-0.7-0.6 c-0.1-0.1-0.2,0-0.1,0.1s0.4,0.3,0.5,0.5c-0.1,0-0.2,0-0.3,0c0,0,0,0,0,0c-0.1-0.1-0.4-0.4-0.5-0.5c-0.1-0.1-0.2,0-0.1,0.1 c0.1,0.1,0.3,0.3,0.3,0.4c0,0,0,0,0,0c0,0-0.1,0-0.1,0c0,0-0.1,0-0.2-0.1c-0.1-0.1-0.4-0.3-0.5-0.4c-0.1-0.1-0.3,0-0.2,0 c0.1,0.1,0.4,0.3,0.5,0.4c0,0,0,0.1,0,0.1c0,0,0,0-0.1,0c-0.1,0-0.1,0-0.2-0.1c-0.1-0.1-0.4-0.4-0.5-0.4c-0.1-0.1-0.2,0.1-0.1,0.2 c0.1,0.1,0.3,0.2,0.3,0.3c0,0,0,0.1,0,0.1h0c-0.1,0-0.1,0-0.2,0.1c0,0-0.1,0-0.1,0c-0.1-0.1-0.2-0.3-0.4-0.4 c-0.1-0.1-0.3,0-0.2,0.1c0.1,0.1,0.4,0.3,0.4,0.4c0,0,0,0.1,0,0.1c0,0,0,0,0,0c0,0-0.1,0-0.1,0c-0.1-0.1-0.1-0.1-0.2-0.1 c-0.1-0.1-0.1,0.2,0,0.3c0,0,0,0,0,0c-0.1,0-0.1,0.1-0.2,0.2c-0.2-0.1-0.5-0.4-0.5-0.4s-0.2,0-0.1,0c0.1,0.1,0.4,0.3,0.3,0.4 c-0.1,0.1-0.4-0.1-0.5-0.2c-0.1-0.1-0.2,0-0.1,0.1c0.1,0.1,0.5,0.2,0.5,0.3c0,0.1,0,0.2-0.2,0.2c-0.2-0.1-0.4-0.1-0.6-0.2 c-0.2-0.1-0.1,0.1,0,0.2c0.1,0.1,0.5,0.4,0.4,0.5c-0.1,0.1-0.6-0.1-0.7-0.2c-0.1-0.1-0.3,0-0.2,0.1c0.1,0.1,0.6,0.4,0.5,0.5 c-0.1,0.1-0.6-0.2-0.7-0.3c-0.1-0.1-0.2,0-0.1,0.1c0.1,0.1,0.6,0.4,0.5,0.5c-0.1,0.1-0.7-0.3-0.9-0.3c-0.2-0.1-0.2,0.1-0.1,0.2 c0.2,0.1,0.9,0.5,0.8,0.6c-0.2,0.2-0.7-0.3-1-0.4c-0.2-0.1-0.3,0-0.2,0.1c0.2,0.1,0.6,0.3,0.7,0.4c0.1,0.1,0.1,0.2-0.1,0.1 c-0.2-0.1-1-0.6-1.2-0.5c-0.2,0-0.2,0.1,0,0.2c0.2,0.1,0.8,0.3,0.9,0.4c0.1,0.1,0,0.1,0,0.1l0,0c-0.1,0-0.2,0-0.2,0 c-0.2-0.1-0.6-0.4-0.8-0.4c-0.1,0-0.3,0-0.1,0.1c0.2,0.1,0.7,0.2,0.5,0.3c-0.2,0.1-0.5,0-0.8,0c-0.2,0-1.5,0.9-2.2,1.5 C17.5,17.4,17,16.3,17.9,14.6z M13.9,27.2c0.1,0.8,0,1.4-0.3,1.9c-0.1,0.2-0.3,0.3-0.4,0.3c-0.1,0-0.3-0.1-0.4-0.2 c-0.1-0.2-0.5-0.6-0.2-0.8c0.1,0,0-0.2-0.2-0.3s-0.3-0.4-0.2-0.3c0.1,0.1,0.5,0.3,0.6,0.4c0.2,0.1,0.3,0,0-0.1 c-0.2-0.1-0.6-0.5-0.7-0.6c-0.1-0.1-0.2-0.4-0.1-0.3c0.1,0.1,0.6,0.4,0.7,0.5c0.1,0.1,0.2,0,0.1-0.1c-0.1-0.1-0.5-0.4-0.7-0.6 C11.8,26.6,11.9,26,12,26c0.1,0,1,0.7,1.1,0.9c0.1,0.1,0.2,0,0-0.2c-0.1-0.2-0.9-0.8-1-0.9c-0.3-0.2-0.2-0.6-0.2-0.7 c0-0.1,0.1-0.2,0.2-0.1c0.1,0.1,0.8,0.7,0.8,0.8c0.1,0.1,0.2,0,0.1-0.1c-0.1-0.1-0.6-0.5-0.7-0.7c-0.2-0.2,0-0.3,0.1-0.2 c0.1,0.1,0.6,0.6,0.8,0.7c0.1,0.1,0.1-0.1,0-0.1s-0.9-0.8-1-0.9c0,0-0.2-0.1-0.1-0.2c0.1-0.2,0.1-0.3,0.4-0.2 c0.1,0,0.3,0.2,0.3,0.3c0.1,0.1,0.2,0,0.1-0.1c-0.1-0.1-0.4-0.4-0.5-0.4c-0.1-0.1,0-0.3,0.1-0.2c0.2,0.1,0.6,0.5,0.7,0.6 c0.1,0.1,0.3,0,0.1-0.1c-0.2-0.1-0.9-0.8-0.9-0.9c0-0.2-0.1-1,0-0.9c0.1,0.1,0.4,0.3,0.6,0.4c0.2,0.2,0.1-0.1,0-0.2 c-0.1-0.1-0.7-0.5-0.9-1c0-0.1-0.1-0.1-0.1-0.2c-0.3-0.7,0-1.4,0.6-1.7c0.2-0.1,0.5,0,0.7,0c0.2,0.1,0.2,0.2,0.2,0.2 c0,0.1-0.1,0.1-0.2,0.1c-0.4,0-0.6,0.2-0.8,0.5c-0.1,0.2-0.1,0.5,0,0.7c0.1,0.2,0.2,0.4,0.4,0.6l0.4,0.6c0.6,0.8,0.6,2.1,0.5,3 C13.9,25.8,13.8,26.4,13.9,27.2z M14.3,18.7c0.1,0,0.3,0.1,0.4,0.2c0.1,0.1,0.4-0.1,0.1-0.2c-0.2,0-0.6-0.3-0.8-0.3 c-0.3,0-0.4-0.2-0.1-0.2c0.2,0,0.5,0.1,0.8,0.1c0.3,0,0.2-0.2,0-0.2c-0.1,0-0.6-0.1-0.8-0.2c-0.2-0.1-0.2-0.2,0-0.2s0.8,0.2,1,0.3 s0.3-0.1-0.1-0.2c-0.3-0.1-0.9-0.3-1-0.4c-0.1,0-0.1-0.2,0.1-0.1c0.2,0,0.8,0.2,0.9,0.2c0.1,0,0.2-0.1-0.1-0.1 c-0.2,0-0.7-0.3-0.9-0.4c-0.2,0-0.2-0.2,0-0.2c0.2,0,0.8,0.2,0.9,0.3c0.2,0,0.2-0.1-0.1-0.2c-0.3-0.1-0.9-0.4-1.1-0.4 c-0.2-0.1-0.2-0.2,0-0.2c0.2,0,0.6,0.3,0.7,0.3c0.2,0,0.1-0.1,0-0.1c-0.1,0-0.6-0.3-0.7-0.4c-0.1-0.1-0.1-0.1,0-0.1 c0.1,0,0.3,0.1,0.4,0.2c0.1,0,0.2-0.1,0-0.1c-0.2,0-0.5-0.2-0.6-0.2c-0.2,0-0.1-0.2,0-0.2c0.1,0,0.5,0.2,0.7,0.2c0.2,0,0.2,0,0-0.1 s-0.8-0.3-1-0.5c-0.2-0.1-0.2-0.3,0-0.2c0.1,0.1,1,0.4,1.1,0.5c0.1,0,0.1-0.1,0-0.1c-0.1,0-0.6-0.4-0.8-0.5 c-0.2-0.1,0.1-0.1,0.2-0.1c0.1,0,0.5,0.2,0.6,0.2c0.1,0,0.2-0.1,0.2-0.1c-0.1,0-0.2-0.2-0.3-0.3c0.4-0.1,0.6-0.3,0.7-0.6 c0.1-0.2,0.1-0.4,0.2-0.7c0.1-0.3,0.3-0.5,0.5-0.4c0.2,0,0.3,0.2,0.4,0.5c0.2,1.1,0.2,2.2,0.2,3.2c0,0.7,0,1.3,0.1,1.9 c-0.3,0.2-0.6,0.5-0.9,0.9c0,0-0.1,0-0.2,0c-0.2,0-0.3-0.2-0.2-0.2c0.1,0,0.2-0.2,0.1-0.2c-0.1,0-0.2,0-0.4-0.1 C14.1,18.9,14.2,18.7,14.3,18.7z M14.3,28.8c0,0,0-0.4,0.1-0.4c0.1,0,1.1,0.5,1.1,0.5c0.2,0.2,0.3,0.7,0.3,0.7 c0.1,0.1-0.7-0.2-0.8-0.3c-0.3-0.1-0.7-0.3-0.8-0.3C14.3,29,14.2,28.8,14.3,28.8z M14.4,30.4c0,0-0.1-0.3-0.1-0.3 c0-0.1,0-0.3,0.1-0.3c0,0,1.4,0.4,1.5,0.4c0.3,0.1,0.3,0.7,0.3,0.7c0,0-0.1,0.1-0.1,0.1c-0.1,0-1.2-0.4-1.3-0.4 C14.7,30.5,14.5,30.5,14.4,30.4z M16.5,32.4C16.2,32.4,15.2,32,15,32c-0.1,0-0.4-0.7-0.3-0.7c0.1,0,1.3,0.4,1.6,0.5 C16.8,31.8,16.8,32.5,16.5,32.4z M17.6,32.9c0,0-0.1,0-0.1-0.1c-0.3-0.4-0.5-1.3-0.6-1.8c-0.1-0.5-0.2-0.6-0.4-1.1 c-0.1-0.3-0.4-0.7-0.6-1.1c-0.1-0.2-0.4-0.6-0.5-0.8c0-0.2-0.3-0.7-0.4-0.7c-0.1-0.1-0.2-0.5-0.2-0.6c0-0.1,0.3,0.1,0.4,0.2 c0,0,0,0,0,0c0.1,0.1,0.4,0.6,0.4,0.6c0.2,0.3,0.4,0.7,0.6,0.9l0,0c0.2,0.3,0.4,1,1.2,1.3c0.1,0,0.9,0.5,1,0.6 c0.1,0.1,0.5,0.6,0.7,0.7c0.1,0.1,0.2,0.2,0.3,0.2c0.3,0.4,0.5,0.7,0.9,0.8c0.1,0,0.1,0.2,0.1,0.3c0,0,0,0,0,0c0,0-0.1,0.1-0.1,0 c-0.5-0.1-0.9-0.4-1.1-0.7c-0.4-0.5-0.9-0.9-1.3-1.2c-0.2-0.1-0.3-0.1-0.4-0.1c-0.1,0-0.1,0.1-0.1,0.3c0.1,0.3,0.3,1.4,0.5,2.1 C17.6,32.8,17.6,32.9,17.6,32.9z M17.6,32.1c0,0,0-0.1,0-0.1c0,0,0,0,0,0c0,0,0.2,0,1.1,0.4c0.3,0.1,0.5,0.2,0.6,0.2 c0.1,0,0.9,0.3,0.9,0.4c0,0,0,0.1,0,0.2c0,0-0.1,0.2-0.1,0.2c-0.1,0-0.7-0.2-0.7-0.2c-0.4-0.2-1.3-0.5-1.4-0.5 C17.7,32.4,17.6,32.2,17.6,32.1z M21.3,37.2c-0.1,0-1.7-0.7-1.9-0.8c-0.2-0.1-0.1-0.5,0.2-0.4c0.1,0,1.6,0.6,1.8,0.7 C22.2,37,22.1,37.4,21.3,37.2z M22.4,34.8c-0.1,0.4-4-1.2-4.1-1.2c-0.2,0-0.4-0.2-0.4-0.3c0-0.1,0.1-0.3,0.6-0.1 c0.2,0.1,0.8,0.3,1.1,0.4l0.2,0.1l0.2,0c0.1,0,1.1,0.4,1.2,0.4c0.2,0.1,1,0.4,1.2,0.4C22.5,34.5,22.5,34.7,22.4,34.8z M36.6,34.8 c0,0.3-0.5,1.2-0.6,1.4c0,0-0.1,0.1-0.1,0.2c0,0-0.1,0.1-0.1,0.1c-0.1,0.1-0.1,0.1-0.2,0.2c-3,2-6.8,1.8-7,1.8 c-0.2-0.1-1.5,0-1.6,0c-0.1,0-0.2,0.1-0.3,0.1c-0.1,0-0.3,0.1,0,0.1c0.3,0,1.6,0,1.7,0c2.4,0.1,4.2-0.4,4.6-0.5 c0.3-0.1,1.5-0.6,2.2-1.1c-0.4,0.5-2.6,2.8-9.9,2.1c-0.7-0.2-0.8-0.7-0.9-0.9c0-0.2-1-0.6-1.3-0.6c-0.2,0-0.2-0.2,0-0.3 c0.2,0-0.2-0.2-0.4-0.3c-0.8-0.3-0.4-0.9-0.2-0.8c0.2,0.1,1.1,0.4,1.4,0.4s0.1-0.2,0-0.2c-0.1,0-0.8-0.2-1-0.3 c-0.8-0.4,0-0.9,0.3-0.8c0.1,0,0.9,0.2,1.2,0.3c0.3,0.1,0.1-0.1-0.1-0.2c-0.3-0.1-0.4-0.1-0.7-0.2c-0.3-0.1,0-0.1,0.1-0.1 c0.1,0,0.6,0.2,0.6,0c-0.1-0.1-0.5-0.2-0.9-0.4c-0.4-0.2-2-1.9,0.4-1.3c0.2,0.1,0.3-0.2,0.2-0.3c-0.1,0-1.3-0.6-1.5-0.6 c-0.6-0.2-0.6-0.8-0.5-0.8c0.1,0,1.2,0.5,1.3,0.5c0.2,0,0.2-0.2,0-0.3c-0.1-0.1-1.1-0.4-1.2-0.4s-0.4-0.2-0.3-0.2 c0-0.1-0.1-0.1-0.2-0.2c0-0.1-0.1-0.2-0.1-0.3c0.1,0,0.2,0,0.3,0c0.3,0.1,0.2-0.1,0.1-0.2c-0.1,0-0.2-0.1-0.3-0.2 c0.5,0,1.6,0.4,2.5,0.7c0.1,0.1,0.2,0,0.3-0.1c0-0.1,0-0.2-0.1-0.3c-0.9-0.5-2.1-1-2.8-1.1c-0.1,0-0.2-0.2-0.2-0.4c0,0,0.1,0,0.1,0 c0.2,0,0.1-0.1-0.1-0.2l-0.1-0.3c0,0,0-0.1,0-0.1c0.1,0,0.2,0,0.2,0c0.2,0,0.1-0.1-0.1-0.2c-0.1,0-0.1-0.1-0.2-0.1 c0-0.1,0-0.2-0.1-0.3c0.1,0,0.2,0,0.3,0c0.2,0,0.1-0.2-0.1-0.2c-0.1,0-0.2-0.1-0.3-0.1c0-0.2-0.1-0.3-0.1-0.5c0.1,0,0.1,0,0.2,0 c0.2,0,0.3,0,0.3-0.1c-0.1-0.2-0.4-0.1-0.5-0.1c-0.1-0.2-0.1-0.4-0.2-0.7c0,0,0.1,0,0.1,0c0.1,0,0.1-0.3-0.2-0.2 c-0.2-0.5-0.1-0.9,0.4-1.2c0.2-0.2,0.8-0.4,1-0.4c0.1,0,0.1,0,0.1,0c0,0,0.1,0.1,0.1,0.1c0,0,0,0.1,0.1,0.2 c0.2,0.6,0.5,1.3,0.9,1.8c0.4,0.4,0.6,0.8,0.7,1.2c0.1,0.2,0.2,0.2,0.2,0.2c0,0,0.2,0,0.1-0.3c0-0.4-0.3-1-0.6-1.5 C23.4,26,23.1,25.4,23,25c-0.1-0.4,0-0.8,0.1-1.2c0.2-0.8,0.8-1.6,1.3-2c0.6-0.5,0.9-1.2,0.9-2.1c0-0.1,0-0.1,0.1-0.1 c0.1,0,0.1,0,0.1,0.1c0.4,0.9,0.9,1.7,1.5,2.1c0.8,0.5,1.3,1.1,1.3,1.8c0,0.6-0.2,1.1-0.8,1.5c-2,1.3-1.6,3-1,4.2 c0.3,0.6,0.6,0.9,0.8,1.2l0,0c0.2,0.3,0.2,0.6,0.1,0.9c-0.5,1-0.5,2.1,0.1,2.9c0.3,0.5,0.6,0.9,0.7,1.3c0,0.1,0.1,0.1,0.1,0.2 c0,0-0.1,0-0.1,0c-0.1,0.1-0.7,0-0.8,0c-0.2,0-0.3,0-0.2,0.1c0.1,0.1,1,0.2,1.1,0.1c0.1,0,0.2-0.1,0.2-0.2c0.1,0,0.1-0.1,0.1-0.3 c-0.1-0.5-0.4-1-0.6-1.3L28,34c-0.3-0.5-0.2-1.5,0-1.9l0.3-0.6l0.1-0.2c0-0.1,0.1-0.2,0.2-0.2c0,0,0.1,0,0.1,0.1 c0.3,0.4,0.6,1,0.8,1.4l0,0.1c0.2,0.4,0.5,0.6,0.8,0.8c0.5,0.3,1.2,0.7,1.4,1.3c0.1,0.2,0.2,0.2,0.2,0.2c0.1,0,0.1-0.1,0.1-0.2 c-0.2-0.7-0.7-1.1-1.3-1.6l-0.1,0c-0.4-0.3-0.6-0.4-0.7-0.8l-0.2-0.4c-0.2-0.6-0.4-1.2-1-1.5l-0.3-0.2C28.3,30,28.1,30,28,29.8 c-0.7-0.8-1-1.7-1-2.4c0-0.6,0.5-1.3,1.2-1.7c0.8-0.5,1.3-1.3,1.2-2.2c0-0.1,0-0.1,0.1-0.2c0.1,0,0.2-0.1,0.3,0 c1.1,0.2,1.7,0.9,1.9,2c0,0.2,0.1,0.2,0.2,0.2s0.2-0.1,0.2-0.3c-0.1-0.6-0.2-1.9-1.6-2.5c-0.2-0.1-0.3-0.2-0.4-0.1c0,0-0.1,0-0.1,0 c0,0-0.3-0.1-0.3-0.1l-0.1,0c-0.2,0-0.4-0.1-0.5-0.3c-0.4-0.7-0.9-1.1-1.4-1.4c-0.5-0.3-0.9-0.9-1.2-1.5c-0.3-0.6-0.7-1.1-1.4-1.2 c-0.8-0.1-1.5-0.3-2-0.7c-0.1-0.1-0.1-0.1-0.1-0.2c0-0.1,0.1-0.1,0.3-0.2c0.2-0.1,0.8,0.3,1,0.2c0.2-0.1,0.8,0,1.1,0.2 c0.2,0.2,0.6,0.3,0.9,0.4c0.4,0.4,0.7,0.8,1,1.2c0,0,0,0,0,0.1c0,0.2,0.4,0.5,0.6,1c0.2,0.5,1.2,0.7,1.3,0.8c0.1,0,0.2,0.2,0.4,0.2 c0.2,0,0-0.2,0-0.2c0-0.1,0.1,0,0.2,0c0.1,0,0.2,0.2,0.2,0.1c0-0.1,0-0.1,0.2,0c0.1,0.1,0.1,0.1,0.2,0.2c0.1,0,0.1,0,0-0.1 s0-0.2,0.1-0.1c0.1,0.1,0.3,0.3,0.5,0.3c0.1,0,0-0.2,0-0.3c0-0.1,0.1-0.1,0.2,0c0.1,0.1,0.4,0.4,0.6,0.4c0.2,0,0-0.2,0-0.3 c0-0.1,0.1,0,0.2,0.1c0.1,0.1,0.6,0.8,0.7,0.7c0.1,0,0.4,0.5,0.6,1c0.4,1.2,0.4,2.2-0.1,2.9c-0.5,0.8-0.7,1.8-0.5,2.7 c0.1,0.3,0.1,0.5,0.1,0.7c0,0.2,0,0.4,0.1,0.7c0.1,0.6,0.5,1.1,1,1.7c0.4,0.4,0.5,0.7,0.6,1.1c0.1,0.4,0.2,0.9,0.6,1.3 c0.1,0.1,0.2,0.1,0.3,0c0.1,0,0.1-0.2,0-0.3c0,0-0.3-0.4-0.4-1.2c-0.1-0.6-0.3-1.1-0.6-1.3c-0.2-0.2-0.4-0.4-0.5-0.9 c0-0.1,0-0.2,0-0.2c0,0,0.1,0,0.2,0c0.5,0.4,1.8,1.4,2.2,3c0,0.2,0.1,0.2,0.2,0.2c0,0,0,0,0.1,0c0,0.1,0,0.1,0.1,0.1 C36.6,33.9,36.7,34.5,36.6,34.8z" class="st0"/></g></svg>