<svg xmlns="http://www.w3.org/2000/svg" xmlns:xlink="http://www.w3.org/1999/xlink" id="Layer_1" x="0" y="0" version="1.1" viewBox="0 0 64.4 64.4" xml:space="preserve" style="enable-background:new 0 0 64.4 64.4"><style type="text/css">.st0{fill:#fff}</style><path d="M32.5,0.5C14.8,0.5,0.6,14.8,0.6,32.5c0,17.6,14.3,31.9,31.9,31.9c17.6,0,31.9-14.3,31.9-31.9	S50.1,0.5,32.5,0.5z M32.5,63.5c-17.1,0-31.1-13.9-31.1-31.1S15.3,1.4,32.5,1.4c17.1,0,31.1,13.9,31.1,31.1	C63.5,49.6,49.6,63.5,32.5,63.5z" class="st0"/><path d="M33.2,20.7c-0.1,0-0.1,0.1-0.1,0.2c0.2,0,0.3-0.1,0.5-0.1c0,0,0,0,0,0C33.6,20.6,33.4,20.7,33.2,20.7z" class="st0"/><path d="M33.6,19.8c0-0.1-0.1-0.1-0.3,0c-0.1,0,0,0.1-0.1,0.1c0,0-0.1,0.1,0,0.1c0,0,0,0.1,0,0.1c0,0-0.2,0.1,0,0.1	c0.2,0,0.3,0,0.4,0c0-0.1-0.1-0.2-0.1-0.2C33.6,20,33.6,19.9,33.6,19.8z" class="st0"/><path d="M33.1,19.6c-0.1-0.1-0.4-0.1-0.4,0s0.1,0.3,0.1,0.4c-0.1,0.2-0.2,0.4,0,0.4c0.2,0,0.3-0.2,0.3-0.3	C33.1,20,33.2,19.7,33.1,19.6z" class="st0"/><path d="M32.7,20.7c-0.1,0-0.2,0.1-0.2,0.4l0,0c0.1,0,0.3-0.1,0.4-0.1c0,0,0,0,0-0.1C32.9,20.8,32.8,20.7,32.7,20.7z" class="st0"/><path d="M32,18.7c-0.1-0.1,0.1-0.2,0.2-0.1s0.3,0.3,0.4,0.4c0,0,0.1,0,0.1,0.1c0.1,0,0.1,0,0.2-0.1c0,0,0,0,0,0	c0,0,0-0.1,0-0.1c-0.1-0.2-0.3-0.2-0.4-0.4c-0.1-0.1,0-0.3,0.1-0.2c0.1,0.1,0.4,0.3,0.5,0.5c0.1,0.1,0.2,0.1,0.2,0.1c0,0,0,0,0.1,0	c0,0,0,0,0-0.1c0-0.1-0.5-0.4-0.6-0.5c-0.1-0.1,0.1-0.1,0.2,0c0.1,0.1,0.5,0.4,0.6,0.5c0,0,0.1,0.1,0.2,0.1c0,0,0.1,0,0.1,0	c0,0,0,0,0,0c0-0.1-0.2-0.4-0.4-0.5s0-0.3,0.1-0.1c0.1,0.1,0.4,0.4,0.5,0.5c0,0,0,0,0,0c0.2,0,0.3,0,0.4,0c-0.1-0.1-0.5-0.4-0.6-0.5	c-0.1-0.1,0.1-0.2,0.1-0.1c0.1,0.1,0.6,0.4,0.8,0.6c0.1,0,0.2,0,0.3,0c0,0,0,0,0,0c-0.1-0.2,0.1-0.7,0.3-0.6	c0.2,0.1,0.4,0.1,0.6,0.1c0.2,0,0.4,0.2,0.6,0.3c0.1,0,0.1-0.1,0.1-0.1c-0.1-0.1-0.3-0.2-0.4-0.3L36,18c-0.2,0-0.3,0-0.5,0	c-0.4,0-0.7,0-1-0.1c-0.7-0.2-1.2-0.2-1.6-0.1l0,0c-0.2,0.1-0.4,0.2-0.7,0.1c-0.2-0.1-0.8,0-1.1,0.2c-0.2,0.1-0.3,0.1-0.5,0	c-0.1-0.1-0.1-0.1-0.1-0.2c0-0.1,0-0.1,0-0.2c0.3-1,0.7-1.8,1.4-2.6c0-0.2,0.1-0.4-0.1-0.5c-0.2-0.1-0.3-0.2-0.3-0.3	c0-0.2-0.3-0.4-0.4-0.5c-0.1-0.1-0.2-0.4,0-0.2c0.2,0.2,0.6,0.6,0.8,0.6c0.1,0,0.1-0.2,0-0.3c-0.1-0.1-0.2-0.3-0.4-0.4	c-0.2-0.1-0.2-0.2-0.1-0.2c0.1,0.1,0.3,0.1,0.4,0.1c0.1-0.1,0.1-0.2-0.1-0.3s-0.3-0.3-0.2-0.3c0.1,0,0.1,0,0.2-0.1	c0-0.1-0.1-0.1-0.1-0.2c-0.1,0-0.2-0.1-0.1-0.2c0,0-0.1-0.1-0.1-0.1s-0.1,0-0.1,0.1c-0.7,1.7-1.5,2.9-3.4,4.6	c-0.9,0.8-1.9,1.8-2.4,2.9c0,0.1-0.1,0.1-0.1,0.2c0,0.1,0,0.1,0,0.2c0,0.2,0,0.3,0,0.5c0,0.1,0,0.4-0.3,0.4c0,0,0,0,0,0	c0,0.1,0,0.2,0,0.2c0,0,0.1,0.1,0.1,0.1c0.2,0.2,2.2,1,2.4,1.1c0.3,0.2,0.6,0,0.8-0.1c0.2-0.1-0.4-0.2-0.6-0.3	c-0.2-0.2,0-0.1,0.1-0.2c0.1,0,0.7,0.3,0.9,0.4c0.2,0.1,0.5,0.1,0.3-0.1c-0.1-0.1-0.8-0.4-1-0.5c-0.2-0.1-0.2-0.2,0-0.3	c0.2,0,1.1,0.5,1.3,0.6c0.2,0.1,0.2,0,0.1-0.2c-0.1-0.1-0.6-0.4-0.8-0.5c-0.2-0.1-0.1-0.3,0.2-0.1c0.3,0.1,0.9,0.7,1.1,0.5	c0.2-0.2-0.7-0.7-0.9-0.7c-0.2-0.1-0.1-0.3,0.1-0.2c0.2,0.1,0.9,0.5,1.1,0.4c0.1-0.1-0.5-0.4-0.6-0.6c-0.1-0.1,0-0.2,0.1-0.1	c0.1,0.1,0.7,0.5,0.8,0.4c0.1-0.1-0.5-0.5-0.6-0.6c-0.1-0.1,0-0.2,0.2-0.1c0.2,0.1,0.7,0.4,0.9,0.2c0.1-0.1-0.4-0.5-0.5-0.6	c-0.1-0.1-0.1-0.3,0-0.2s0.4,0.2,0.6,0.3c0.2,0.1,0.3,0,0.3-0.2s-0.5-0.3-0.6-0.4c-0.1-0.1,0-0.2,0.2-0.1c0.2,0.1,0.5,0.3,0.6,0.2	c0.1-0.1-0.2-0.4-0.3-0.5c-0.2-0.1,0.1,0,0.1,0s0.4,0.3,0.6,0.4c0.1-0.1,0.2-0.1,0.2-0.2c0,0,0,0,0,0c-0.2-0.1-0.2-0.4,0-0.4	c0.2,0.1,0.2,0.1,0.3,0.2c0,0,0.1,0,0.1,0c0,0,0,0,0,0c0,0,0-0.1,0-0.1C32.5,19,32.1,18.8,32,18.7z M35,18.2c0-0.1,0.2,0,0.2,0.1	c0,0,0,0.1-0.1,0.1C35,18.3,34.9,18.3,35,18.2z M31,14.1c0.1,0.1,0.3,0.4,0.4,0.5c0.1,0.1,0.1,0.2,0,0.3c-0.1,0.1-0.1-0.1-0.2-0.2	C31.3,14.5,30.9,14.3,31,14.1C30.9,14.1,30.9,14,31,14.1z" class="st0"/><path d="M25.8,23.7c0.1,0,0.1-0.1,0.2-0.1c0,0,0,0-0.1-0.1C25.9,23.4,25.7,23.5,25.8,23.7z" class="st0"/><path d="M27.1,24.8c0.6,0.1,1.1,0.1,1.3,0.2s0.4,0,0.4-0.3c0-0.2-0.2-0.3-0.2-0.4s-0.2-0.2-0.2-0.2	c-0.1,0-0.2,0-0.1,0.1c0.1,0.1,0.1,0.3-0.1,0.2c-0.2-0.1-0.8-0.3-0.9-0.2S26.5,24.7,27.1,24.8z" class="st0"/><path d="M19.4,30.2l-0.4-0.6c-0.2-0.3-0.4-0.5-0.5-0.7s-0.1-0.6,0-0.8c0.2-0.3,0.5-0.5,0.9-0.6c0.2,0,0.3-0.1,0.3-0.1	c0-0.1-0.1-0.2-0.3-0.3c-0.2-0.1-0.5-0.1-0.8,0c-0.7,0.3-1.1,1.1-0.7,2c0,0.1,0.1,0.2,0.1,0.2c0.3,0.6,1,1,1.1,1.1	c0.1,0.2,0.2,0.5,0,0.3c-0.2-0.2-0.5-0.4-0.7-0.5c-0.1-0.1-0.1,0.2,0,0.3s0.4,0.3,0.5,0.4c0.1,0.1,0,0.2-0.2,0.1	c-0.2-0.2-0.3-0.2-0.4-0.3c-0.1-0.1-0.1,0.2,0,0.3c0.1,0.1,0.1,0.2,0.1,0.2c0.1,0.1,0,0.1-0.1,0.2c0,0.1,0.8,0.9,1.1,1.1	c0.2,0.1-0.1,0.2-0.1,0.2c-0.1-0.1-0.6-0.6-0.8-0.7c-0.2-0.1-0.3,0.1-0.1,0.2c0.1,0.1,0.5,0.4,0.6,0.5c0.1,0.1,0,0.2-0.1,0.1	c-0.1-0.1-0.3-0.3-0.4-0.3c-0.1-0.1-0.2,0-0.1,0.1c0.1,0.1,0.3,0.3,0.4,0.4c0.1,0.1-0.3,0-0.4-0.1s-0.2-0.2-0.3-0.2	c-0.2,0,0,0.2,0.1,0.3c0.1,0.1,1.1,1,1.2,1.1c0.1,0.1,0.1,0.2,0,0.1c-0.2-0.1-0.7-0.7-0.9-0.8s-0.4,0.1-0.2,0.2s0.7,0.7,0.8,0.8	c0.1,0.1,0,0.3-0.1,0.1s-0.8-0.8-1-0.9c-0.1-0.1-0.1,0-0.2,0.1c0,0,0,0.1,0,0.1c0,0,0,0.1,0.1,0.1c0.1,0.1,1.4,1.1,1.4,1.2	c0.1,0.1,0,0.4-0.1,0.2s-1.1-1.1-1.3-1.1c-0.2-0.1,0,0.3,0.1,0.4c0.1,0.1,1.1,1,1.2,1.2c0.1,0.2,0.1,0.3-0.1,0.1	c-0.2-0.1-1.1-1.1-1.2-1.1s-0.2,0.1,0,0.4c0.2,0.3,1.1,1.1,1.3,1.2c0.2,0.2,0,0.3-0.1,0.1c-0.2-0.1-1.1-1-1.2-1.1	c-0.2-0.1-0.1,0.2,0.1,0.5c0.3,0.2,0.7,0.6,0.8,0.7c0.1,0.1,0,0.3-0.1,0.1c-0.1-0.1-0.6-0.5-0.8-0.6c-0.1-0.1-0.1,0.2,0.1,0.4	c0.1,0.1,0.6,0.6,0.8,0.7c0.3,0.2,0.1,0.3,0,0.2c-0.2-0.1-0.6-0.4-0.7-0.5c-0.1-0.1,0,0.3,0.2,0.4s0.3,0.2,0.4,0.3	c0.1,0.1-0.1,0.1-0.2,0.1c-0.1-0.1-0.2,0.2,0,0.2c0.1,0,0.4,0.2,0.4,0.4c0.1,0.1,0.2,0.5,0.3,0.5c0.2,0,0.4-0.1,0.5-0.3	c0.4-0.6,0.5-1.3,0.4-2.2c-0.1-0.9,0-1.6,0-2.1C20.1,32.7,20,31.2,19.4,30.2z" class="st0"/><path d="M43.5,26.7c0.1,0.1,0.6,1.2,0.4,1.7c0,0,0,0.1,0,0.1c0,0.1,0,0.2,0,0.2c0,0.2,0.1,0.3,0.2,0.5	c0.1,0.1,0.2,0.1,0.2,0.3c0,0,0,0,0,0.1c0.1,0.2,0.3,0.3,0.5,0.4c0.1,0,0.1,0,0.1,0c0,0,0,0,0,0c0,0,0,0,0,0	c-0.1-0.2-0.2-0.4-0.4-0.6c-0.1-0.2-0.3-0.4-0.3-0.6c0-0.1,0-0.2,0-0.3c0-0.2,0-0.4,0-0.7c-0.1-0.3-0.2-0.7-0.3-1.1	c-0.1-0.3-0.2-0.5-0.2-0.7c-0.1-0.4,0-0.7,0.1-1c0.1-0.2,0.2-0.3,0.3-0.4c0-0.1-0.1-0.2-0.2-0.1c-0.2,0.1-0.5,0.3-0.6,0.5	c0,0.2-0.1,0.7-0.2,0.8c0,0.1,0,0.2,0.1,0.3C43.3,26.4,43.4,26.6,43.5,26.7z" class="st0"/><path d="M34.8,19.3c-0.2,0-0.4,0-0.7,0c0.1,0.1,0.2,0.1,0.2,0.2s-0.2,0-0.2,0.1c0,0.1,0.1,0.2,0.2,0.2	c0.1,0,0.4,0,0.6-0.1c0.2,0,0.2,0.1,0.2,0.1c0,0.1-0.4,0.1-0.5,0c0,0-0.1-0.1-0.1,0s-0.5,0.1-0.7,0.2c-0.2,0.1-0.1,0.2,0,0.2	s0.3,0,0.4,0.1c0.1,0.1-0.1,0.1-0.1,0.1c0-0.1-0.3,0.1-0.3,0.2c0.6-0.1,1.2-0.2,1.8-0.2c0.1-0.4,0.1-0.9,0.2-1.4	C35.5,19.3,35.2,19.3,34.8,19.3z M35.4,19.6c-0.1,0-0.4,0-0.3,0C35.2,19.5,35.3,19.5,35.4,19.6C35.5,19.5,35.5,19.5,35.4,19.6z" class="st0"/><path d="M43.3,29.2c0,0,0-0.1,0-0.2c0-0.2-0.3-0.9-0.6-1.1c-0.3-0.3-0.6-0.1-0.4,0c0.1,0.1,0.6,0.7,0.7,1	C43.1,29.1,43.2,29.2,43.3,29.2z" class="st0"/><path d="M24.2,21.6c0,0.1,0.2,0.1,0.3,0.1c0-0.1,0-0.2,0-0.3c0,0,0,0-0.1,0C24.2,21.3,24.1,21.4,24.2,21.6z" class="st0"/><path d="M36.5,26.2c0.2,0,0.3,0.3,0.3,0.5c0.6,0.6,1.4,0.7,2.4,0.8h0c0.5,0,1.1,0.1,1.7,0.3c0,0,0,0,0,0	c-0.6-1.2-1.6-2.4-2.9-3.2c-0.9-0.6-1.9-1-2.8-1.1c0,0,0,0,0,0c0,0.1-0.4-0.1-0.2,0.2c0.2,0.2,0.4,0.3,0.2,0.4	c-0.1,0.1-0.4-0.2-0.6-0.4c-0.1-0.1-0.4-0.1-0.2,0.1c0.2,0.2,1.2,1.4,1.4,1.5c0.1,0.1,0.3,0.5,0.4,0.8c0,0,0,0.1,0.1,0.1	C36.4,26.2,36.4,26.2,36.5,26.2z" class="st0"/><path d="M26.4,23.2C26.4,23.2,26.5,23.2,26.4,23.2C26.5,23.2,26.5,23.2,26.4,23.2C26.5,23.2,26.5,23.2,26.4,23.2	c0-0.2-0.1-0.2-0.3-0.4c-0.2-0.2,0,0.4,0,0.6C26.2,23.4,26.3,23.3,26.4,23.2C26.4,23.2,26.4,23.2,26.4,23.2z" class="st0"/><path d="M31.7,22.6c0.1,0,0.2,0,0.2,0c0,0,0,0,0,0c0.1-0.2,0.3-0.2,0.5-0.2c0.2,0,0.4,0.4,0.6,0.4	c0.2,0,0.1-0.2,0.2-0.3c0-0.1-0.1-0.3-0.2-0.4c0-0.1,0.1-0.1,0.1-0.1c0.1,0.1,0.4,0.4,0.4,0.4c0.1,0,0.3-0.3,0.4-0.1	c0.1,0.2,0.3,0.3,0.3,0.4c0.1,0.1,0.1,0.1,0.1-0.1c0-0.2,0-0.3-0.1-0.3s0.1-0.1,0.1,0c0,0.1,0.2,0.3,0.2,0.4c0,0.1,0.2,0.2,0.2,0	s0-0.3,0-0.4c0-0.1,0.1-0.2,0.1,0c0,0.2,0.1,0.4,0.1,0.4s0.1,0.1,0.3,0.1c0.1,0,0.3,0,0.1-0.3c-0.2-0.4,0.1-0.3,0.2-0.2	c0,0.1,0.2,0.4,0.2,0.5c0,0.1,0.2,0.2,0.2,0c0-0.2-0.1-0.4-0.2-0.5c-0.1-0.1,0-0.4,0.1-0.1c0.1,0.3,0.4,0.6,0.4,0.7	c0,0.1,0.4,0.3,0.4,0.2c-0.1-0.1,0-0.3-0.1-0.4c-0.1-0.2,0.1-0.3,0.1-0.1c0,0.1,0.3,0.6,0.4,0.7c0,0.1,0.4,0.3,0.3,0.1	c-0.1-0.2,0-0.2-0.1-0.4c-0.1-0.1,0.1-0.2,0.2,0c0.1,0.2,0.3,0.5,0.3,0.6c0.1,0.1,0.3,0.3,0.3,0.2c0-0.2-0.1-0.4-0.2-0.6	c-0.1-0.1,0.1-0.2,0.1-0.1c0.1,0.1,0.4,0.7,0.4,0.8c0,0.1,0.3,0.2,0.3,0c0-0.2-0.1-0.5-0.1-0.6c-0.1-0.1,0.1-0.1,0.2,0.1	c0.1,0.2,0.2,0.6,0.3,0.7c0,0.1,0.1,0.3,0.2,0.4s0.1-0.1,0.1-0.2c0-0.1,0.1,0,0.2,0.2c0,0.1,0.1,0.4,0.2,0.5c0,0.1,0.2,0.3,0.2,0	c0-0.2,0-0.4-0.1-0.6c-0.1-0.2,0.2,0,0.3,0.2c0,0.2,0.2,0.4,0.2,0.7c0,0.2,0.2,0,0.2,0c0-0.1,0-0.3-0.1-0.4c0-0.1,0.1-0.1,0.2,0.1	c0.1,0.2,0.4,1,0.4,1.3c0.1,0.3,0.3,0.2,0.2,0c0-0.2,0.1-0.3,0.1-0.1c0,0.2,0.3,0.5,0.3,0.7c0.1,0.3,0.3,0.2,0.2,0	c-0.1-0.2-0.1-0.4-0.2-0.6c-0.1-0.2,0.1-0.1,0.2,0.1c0.1,0.2,0.1,0.4,0.2,0.5c0.1,0.1,0.2-0.1,0.1-0.3c-0.1-0.2,0.1-0.2,0.2-0.3	c0.1-0.1,0-0.5-0.1-0.5c-0.1-0.1-0.4-0.4-0.3-0.6c0-0.2,0.1-0.6,0-0.8c-0.1-0.2,0.2-0.5,0.4-0.4c0.3,0,0.7-0.1,0.9-0.1	c0.1,0,0.4,0,0.5,0.1c0,0,0.1,0,0.1,0c-4.3-3.5-9.5-3.3-13.1-1.6c0,0.1-0.1,0.2,0.1,0.2c0.1,0,0.2,0.1,0.3,0.1c0,0,0.1,0,0.1,0	C31.4,22.5,31.5,22.6,31.7,22.6z" class="st0"/><path d="M42.4,36c0,0.1-0.1,0.3-0.1,0.4c0,0.2,0,0.4,0.1,0.6c0,0.2,0.1,0.4,0.2,0.6c0.3,0.5,0.7,0.9,1.1,1.2l0,0	c0.1,0,0.1,0.1,0.2,0.2c-0.6-1.3-1.1-2.8-1-4.4c-0.2,0.4-0.4,0.8-0.5,1.2C42.4,35.8,42.4,35.9,42.4,36z" class="st0"/><path d="M46.1,43.1C46.1,43.1,46,43.1,46.1,43.1C46,43.1,46,43.1,46.1,43.1c-0.1,0-0.1,0-0.1-0.1c0,0,0,0,0,0	c0,0-0.1-0.1-0.1-0.1c-0.1-0.2-0.1-0.5-0.2-0.7c0,0,0,0,0,0c-0.1-0.2-0.2-0.4-0.3-0.6c0,0,0,0,0-0.1c-0.1-0.2-0.2-0.3-0.3-0.5	c0,0,0,0,0,0c-0.6-0.9-1.3-1.4-1.7-1.7c0,0-0.1,0-0.1,0c0,0-0.1,0-0.1,0c-0.1,0-0.2,0-0.2,0.1c0,0,0,0.1,0,0.1c0,0,0,0.1,0,0.1	c0.2,0.5,0.4,0.8,0.6,1c0.3,0.3,0.6,0.8,0.6,1.5c0,0.1,0,0.1,0,0.2c0,0,0-0.1,0-0.1c0-0.4-0.1-0.7-0.3-0.9c0.1,0.2,0.2,0.5,0.2,0.9	c0.1,0.6,0.2,1,0.4,1.2c-0.1-0.2-0.2-0.4-0.2-0.7c0.1,0.4,0.3,0.7,0.4,0.8c0,0.1,0.1,0.1,0,0.2c0,0,0,0,0,0c0,0,0,0,0,0	c0,0,0,0-0.1,0c0,0,0,0-0.1,0c0,0,0,0,0,0c0,0-0.1,0-0.1,0c0,0,0,0,0,0c-0.4-0.5-0.6-1-0.7-1.5c-0.1-0.5-0.3-0.9-0.7-1.3	c-0.4-0.4-0.7-0.8-0.9-1.3c-0.1-0.2-0.2-0.5-0.3-0.7c-0.1-0.3-0.1-0.6-0.1-0.8c0-0.2,0-0.5-0.1-0.8c-0.1-0.5-0.1-1-0.1-1.5l0,0	c0,0,0,0,0,0c0-0.2,0.1-0.8,0.3-1c0.1-0.2,0.2-0.4,0.3-0.5c0.4-0.7,0.6-1.5,0.4-2.4c0-0.1-0.1-0.2-0.1-0.3c-0.2-0.6-0.8-1.8-1-1.7	c-0.1,0.1-0.7-0.7-0.8-0.9c-0.1-0.1-0.2-0.2-0.2-0.1c0,0.1,0.2,0.4,0,0.4c-0.2,0-0.5-0.4-0.6-0.5c-0.1-0.1-0.3-0.1-0.2,0	c0,0.1,0.2,0.3,0.1,0.3c-0.2,0-0.4-0.3-0.5-0.4c-0.1-0.1-0.2,0-0.2,0.1c0.1,0.1,0.1,0.2,0,0.2c-0.1,0-0.1-0.1-0.3-0.2	c-0.1-0.1-0.2-0.1-0.2,0c0,0.1-0.1-0.1-0.3-0.1c-0.1,0-0.2-0.1-0.2,0c0,0.1,0.2,0.3,0,0.3c-0.2,0-0.3-0.2-0.4-0.2	c-0.2,0-0.2,0-0.1,0.1c0.1,0.1,0.2,0.2,0,0.2c-0.2,0,0,0.1-0.3-0.2c-0.3-0.3-0.5-0.4-0.6-0.4c-0.1,0-0.2,0.1-0.1,0.2	c0.1,0.1,0.2,0.4,0.1,0.4c0,0-0.1,0-0.2-0.1c0.4,0.3,0.7,0.6,1,1.1c0.2,0.3,0.4,0.3,0.6,0.4c0,0,0.1,0,0.1,0c0.1,0,0.2,0,0.3,0.1	c0,0,0.1,0,0.1,0h0c0.1,0,0.2,0.1,0.4,0.2c1.4,0.6,1.7,1.8,1.9,2.8c0,0.1,0,0.1,0,0.2c0,0,0,0,0,0c0,0,0,0,0,0c0,0,0,0,0,0	c0,0,0,0-0.1,0c0,0,0,0-0.1,0c0,0-0.1-0.1-0.1-0.1c0-0.1,0-0.1,0-0.1c0-0.1-0.1-0.3-0.1-0.4c-0.1-0.2-0.2-0.4-0.3-0.6	c0-0.1-0.1-0.1-0.1-0.2c-0.1-0.1-0.2-0.3-0.3-0.4c0,0,0,0-0.1-0.1c0,0,0,0,0,0c-0.2-0.1-0.4-0.2-0.5-0.3c0,0-0.1,0-0.1-0.1	c0,0,0,0-0.1,0c-0.2-0.1-0.3-0.1-0.5-0.2c0,0-0.1,0-0.1,0c0,0-0.1,0-0.1,0c0,0,0,0,0,0c0,0-0.1,0-0.1,0c0,0-0.1,0-0.1,0c0,0,0,0,0,0	c0,0,0,0,0,0c0,0,0,0,0,0c0,0.1-0.1,0.1-0.1,0.2c0,0.1,0,0.3,0,0.4c0,0,0,0,0,0c0,0.2-0.1,0.3-0.1,0.5c0,0.1-0.1,0.2-0.1,0.3	c0,0.1-0.1,0.1-0.1,0.2c0,0-0.1,0.1-0.1,0.1c0,0-0.1,0.1-0.1,0.1c-0.1,0.1-0.1,0.2-0.2,0.3c0,0,0,0,0,0c-0.2,0.2-0.4,0.4-0.6,0.5	c-0.1,0.1-0.2,0.2-0.4,0.3c0,0-0.1,0-0.1,0.1c-0.1,0.1-0.3,0.2-0.4,0.4c-0.1,0.1-0.1,0.2-0.2,0.2c0,0,0,0,0,0	c-0.2,0.3-0.4,0.7-0.4,1.1c-0.1,0.8,0.4,1.8,1.1,2.8c0.2,0.2,0.4,0.3,0.7,0.5c0.1,0.1,0.2,0.1,0.4,0.2c0.6,0.3,0.8,1,1.1,1.7	c0.1,0.2,0.1,0.3,0.2,0.5c0.2,0.4,0.4,0.6,0.8,0.9l0.1,0.1c0.7,0.5,1.3,0.9,1.5,1.8c0,0.1,0,0.1,0,0.2c0,0,0,0,0,0c0,0,0,0,0,0	c0,0,0,0,0,0c0,0,0,0,0,0c0,0,0,0,0,0c0,0,0,0,0,0c0,0,0,0,0,0c0,0,0,0,0,0c0,0,0,0,0,0c0,0,0,0,0-0.1c0-0.1-0.1-0.1-0.1-0.2	c-0.1-0.1-0.1-0.2-0.2-0.3c-0.1-0.1-0.1-0.1-0.2-0.2c-0.1-0.1-0.1-0.1-0.2-0.2c-0.3-0.2-0.7-0.5-1-0.6c-0.1-0.1-0.2-0.1-0.4-0.2	c0,0,0,0,0,0c-0.1-0.1-0.2-0.2-0.3-0.3c0,0,0,0,0,0c0,0,0,0,0,0c-0.1-0.1-0.1-0.2-0.2-0.3c-0.1-0.2-0.2-0.5-0.4-0.8c0,0,0,0,0,0	c-0.1-0.1-0.2-0.3-0.3-0.4c0,0,0,0,0,0c-0.1-0.1-0.2-0.3-0.3-0.4c0,0-0.1,0-0.1-0.1c0,0,0,0-0.1,0c0,0,0,0,0,0c0,0,0,0-0.1,0	c0,0-0.1,0-0.1,0c0,0,0,0,0,0c0,0-0.1,0.1-0.1,0.1c0,0.1-0.1,0.2-0.1,0.3c-0.1,0.2-0.2,0.4-0.3,0.7c-0.2,0.5-0.3,1.7,0,2.3	c0,0,0,0.1,0.1,0.1c0.2,0.4,0.5,1,0.7,1.5c0,0.1,0,0.2,0,0.2c0,0.1,0,0.1-0.1,0.1c-0.1,0-0.1-0.1-0.2-0.2c-0.2-0.4-0.5-0.9-0.9-1.5	c-0.6-0.9-0.7-2.1-0.1-3.3c0-0.1,0.1-0.2,0.1-0.3c0,0,0,0,0,0c0.1-0.3,0-0.6-0.2-0.9c-0.3-0.4-0.5-0.7-1-1.5c-1.4-2.5-0.2-4,1.1-4.8	c0.7-0.5,1.1-1.1,1.1-1.8c0-0.8-0.5-1.6-1.5-2.2c-0.7-0.5-1.4-1.3-1.9-2.4c-0.1-0.1-0.1-0.2-0.2-0.2c0,0-0.1,0-0.1,0.1	c0,0-0.1,0.1-0.1,0.2c0.1,0.9-0.3,1.8-1,2.3c-0.6,0.5-1.3,1.4-1.6,2.3c-0.1,0.5-0.2,1-0.1,1.5c0.1,0.5,0.4,1.2,0.9,1.8	c0.4,0.5,0.7,1.2,0.7,1.7c0,0.1,0,0.2,0,0.2c0,0,0,0-0.1,0c-0.1,0-0.1-0.1-0.2-0.2c-0.1-0.2-0.2-0.5-0.3-0.7c0,0,0,0,0-0.1	c-0.1-0.1-0.1-0.2-0.2-0.3c0,0,0,0,0,0c-0.1-0.1-0.2-0.2-0.3-0.3c-0.5-0.5-0.9-1.3-1.1-2c0-0.1,0-0.1-0.1-0.2c0,0-0.1-0.1-0.1-0.1	l0,0c0,0-0.1,0-0.2,0c0,0,0,0,0,0c-0.3,0-0.9,0.2-1.2,0.4c-0.2,0.1-0.3,0.3-0.4,0.4c0.1,0.1,0,0.1,0,0.5c0,0.4-0.2,0.6,0.2,0.7	c0.4,0.1,0.4,0.3,0.3,0.3c-0.1,0-0.3,0.1-0.2,0.2c0.1,0.1,0.3,0.3,0.2,0.4c-0.1,0.1,0.1,0.3,0.2,0.3c0.1,0,0.4,0.1,0.5,0.1	c0.1,0,0,0.1-0.3,0.1c-0.2,0-0.4-0.2-0.4,0c0,0.1,0,0.3,0,0.4c0,0,0,0,0,0c0,0,0,0.1,0.1,0.1c0.2,0.1,0.4,0.2,0.6,0.3	c0.2,0.1,0.4,0.2,0.1,0.1c-0.3,0-0.6-0.1-0.6,0c0,0.1,0.2,0.2,0.4,0.4c0.2,0.1,0.3,0.2,0.1,0.2c-0.1,0-0.4-0.1-0.5,0c0,0,0,0,0,0	c0,0.1,0,0.2,0.1,0.3c0.1,0.1,0.1,0.1,0.2,0.1c0.2,0.1,0.4,0.2,0.2,0.2c-0.1,0-0.3-0.1-0.4-0.1c0.1,0.2,0.1,0.4,0.3,0.4	c0.7,0.1,2.3,0.6,3.2,1.2c0.1,0,0.1,0.1,0.1,0.2c0,0,0,0,0,0c0,0,0,0,0,0c0,0,0,0,0,0.1c0,0,0,0,0,0c0,0,0,0,0,0c0,0,0,0,0,0	c0,0,0,0,0,0c0,0,0,0,0,0c0,0,0,0,0,0c-1-0.5-2.4-0.8-2.9-0.9c0,0,0,0,0,0c0,0,0,0,0,0c0.3,0.2,0.9,0.3,1,0.4c0.1,0.1-0.3,0-0.5,0	c-0.2,0-0.1,0.1,0,0.2c0.1,0.1,0.3,0.3,0,0.2c-0.4-0.1-0.6,0-0.4,0.2c0.2,0.2,0.5,0.3,0.4,0.4c-0.1,0.1,0.1,0.2,0.3,0.3	c0.2,0,0.8,0.4,0.9,0.2c0-0.2-0.4-0.3-0.6-0.4c-0.3-0.1-0.4-0.4-0.1-0.2c0.3,0.1,0.5,0.3,0.7,0.2c0.2-0.1,0.4,0.3,0.3,0.5	c-0.1,0.2,0.2,0.2,0.3,0.3c0.2,0.1,0.1,0.2-0.1,0.2c-0.2,0-1.4-0.5-1.6-0.5c-0.1-0.1-0.2,0.2,0.1,0.3c0.3,0.1,1.1,0.4,1.3,0.5	c0.2,0.1,0.5,0.3,0.2,0.2C31,42.2,30.6,42,30.4,42c-0.2,0-0.3,0-0.1,0.1c0.2,0.1,1.7,0.7,1.8,0.7c0.1,0.1,0.2,0.2-0.1,0.2	c-0.3,0-0.3,0.2-0.1,0.2c0.2,0.1-0.1,0.3,0.1,0.4c0.3,0.1,0.4,0.1,0.7,0.2c0.3,0.1,0.3,0.2,0,0.1c-0.3,0-0.7-0.3-0.5,0	c0.2,0.2,0.8,0.4,1,0.5c0.2,0,0.5,0.3,0,0.2c-0.5-0.1-0.9-0.4-1.1-0.3c-0.2,0.1-0.5,0.2-0.8,0.1c-0.2-0.1-0.7-0.3-0.6-0.1	c0.1,0.2,0.2,0.3,0.8,0.4c0.6,0.1,0.8,0.2,0.7,0.3c-0.1,0.1-0.4,0-0.5,0c-0.1,0-0.4,0.1-0.1,0.2c0.4,0.1,0.5,0.2,0.8,0.3	c0.3,0.1,0.5,0.3,0.1,0.2c-0.3-0.1-1.4-0.5-1.4-0.3c0,0.1-0.2,0.3,0.1,0.3c0.3,0.1-0.3,0.2-0.2,0.3c0.1,0.1,0.5,0.3,0.8,0.3	c0.3,0,0.4,0.2,0.1,0.2c-0.3,0-1-0.3-1.2-0.4c-0.2,0-0.3,0.1-0.1,0.1s1,0.3,1.1,0.4c0.1,0,0.4,0.3,0,0.2c-0.3,0-1.3-0.4-1.6-0.5	c-0.3-0.1-0.4,0-0.2,0.1c0.2,0.1,2.3,0.9,2.5,0.7c0.2-0.2,0.3-0.3,0.4-0.2c0.1,0.1,0,0.1-0.1,0.3c-0.1,0.2-0.1,0.5-0.3,0.5	c-0.1,0-0.1-0.2-0.4-0.2c-0.2,0-1.2-0.3-1.5-0.5c-0.3-0.1-0.5,0-0.3,0.1c0.2,0.1,1.3,0.4,1.5,0.5c0.2,0.1,0.2,0.2,0,0.2	c-0.2-0.1-0.9-0.4-1.1-0.3c-0.2,0.1-0.2,0.3,0,0.3c0.3,0,1.4,0.5,1.5,0.7c0.1,0.2,0.6,0.5,0.9,0.5c0.3,0,0.6,0,0.7,0.1	c0.1,0.2,0.1,0.3-0.1,0.2c-0.2-0.1-0.5-0.2-0.6-0.1c0,0.1,0,0.3,0.1,0.3c0.5,0,1,0,1.5-0.1l0,0l0,0c0.7,0.2,1.4,0.2,2.1,0.1l0,0h0	c1.5,0,2.8-0.1,4.1-0.5c0,0,0,0.1,0,0.1c0.1,0,1.5-0.5,1.5-0.5c-0.1,0-0.1,0-0.1,0c0,0,0.1,0,0.1,0c0.9-0.4,1.6-0.9,2.1-1.4	c-0.2,0.2-0.5,0.4-0.7,0.4c-0.4,0.1-1.4,0.5-1.9,0.7c-0.5,0.1-1.1,0.4-1.4,0.4c-0.3,0-1.3,0.3-1.4,0.2c-0.1,0-0.5,0-0.7,0	s-0.1,0.2-0.3,0.3c-0.1,0.1-0.2-0.1-0.4-0.2c-0.2-0.1-0.6,0.1-0.6,0c-0.1-0.1-0.4,0-0.5-0.1c-0.1,0-0.6,0.3-1,0.4s-0.7-0.3-1-0.3	c-0.3,0-0.1-0.1,0-0.1c0.1,0,0.3,0,0.4,0c0.1,0,0.1-0.2,0.2-0.1c0.1,0.1,0.3-0.1,0.4-0.2c0-0.1-0.4-0.1-0.5-0.2	c-0.1-0.1,0.2,0,0.5,0c0.2,0,0.1-0.1-0.1-0.2c-0.2-0.1-0.3,0-0.4-0.1C35.1,48,35.5,48,35.6,48c0.1,0-0.4-0.3-0.5-0.4	c-0.1-0.1-0.6-0.1-0.6-0.3c0-0.1,0.3-0.1,0.6,0.1c0.3,0.2,0.2,0,0.2-0.2c0-0.2-0.5-0.2-0.7-0.4c-0.2-0.2-0.5-0.3-0.7-0.2	s-0.3-0.1-0.4-0.3c-0.1-0.2,0.1-0.3,0.2-0.1c0.2,0.2,0.8,0.3,1,0.4s0.8,0.1,0.6,0.3c-0.2,0.2,0.2,0.3,0.3,0.4c0.1,0.1,0.2,0,0.2,0.3	c0,0.3,0.2,0.2,0.3,0.2c0.1,0,0,0.2,0,0.3c0,0.1,0.3,0.2,0.2,0.3s-0.1,0.2,0.1,0.4c0.2,0.2,0.5,0,0.7,0.1c0.2,0.1,0.8,0,1-0.1	s-0.3-0.2-0.6-0.2s-0.3-0.2-0.1-0.1s0.2,0,0.1-0.2c-0.1-0.1-0.4-0.1-0.7-0.3c-0.2-0.2,0.1-0.1,0.4,0c0.2,0.1,0.4,0,0.6,0	c0.3,0.1,0.6,0,0.9-0.1c0.3,0,0.2-0.1,0.2,0s-0.6,0.2-0.7,0.2c-0.1,0-0.3,0-0.2,0.2c0.1,0.2,1.3,0,1.5,0c0.2,0,0.3,0,0.3,0.1	c0,0.1-0.5,0.2-0.7,0.2c-0.2-0.1-0.3,0.1,0,0.2c0.3,0.1,2.4-0.3,2.6-0.3c0.3,0,1.3-0.5,1.8-0.6c0.5-0.1,1.6-0.9,1.8-1.1	c0.3-0.2,0-0.3,0.3-0.3c0.1,0,0.1,0,0.2-0.1c-0.2,0.3-0.4,0.5-0.6,0.8c0,0,0.1-0.1,0.1-0.1c0.2-0.2,0.5-0.5,0.7-0.7	c0.1-0.2,0.6-1.3,0.7-1.6c0-0.3,0-1.1-0.1-1.3c0,0,0-0.1,0-0.1c0,0.1,0.1,0.2,0.1,0.4c0,0,0,0,0,0c-0.1,0-0.2,0-0.4,0.1	c-0.2,0.1-0.1-0.1-0.1-0.3c0-0.2,0.2-0.2,0.3-0.2c0-0.1-0.1-0.2-0.1-0.3C46.1,43,46.1,43.1,46.1,43.1C46.1,43.1,46.1,43.1,46.1,43.1	z M29,36.9c0,0-0.1,0-0.1,0l-0.1,0c-0.1,0-0.2-0.1-0.2-0.2c0-0.1,0-0.1,0.1-0.2c0.1,0,0.1,0,0.2,0c0,0,0.1,0,0.1,0.1	c0.1,0,0.1,0,0.1,0.1C29.1,36.8,29,36.9,29,36.9z M32.6,45c-0.1,0-0.1-0.2-0.1-0.3v0l0,0c0.1,0,0.4,0.2,0.4,0.2l0,0l-0.1,0	C32.9,45,32.7,45,32.6,45z M33,46.6C33,46.7,32.9,46.7,33,46.6c-0.2-0.1-0.4-0.2-0.6-0.2c-0.1,0-0.1-0.1-0.1-0.1s0.1-0.1,0.1-0.1h0	l0.4,0.2c0.1,0,0.1,0.1,0.1,0.2C33,46.6,33,46.6,33,46.6z M41.3,49.1c0-0.1,0-0.1,0.3-0.1c0.3,0,0.4-0.1,0.6-0.1	c0.2-0.1,0.2-0.1,0.5-0.1c-0.4,0.2-0.9,0.3-1.4,0.5C41.3,49.2,41.3,49.1,41.3,49.1z M39.3,49.3c0.2,0,0.5-0.1,0.8-0.1	c0.3,0,0.7-0.2,0.7-0.1c-0.1,0.1-0.5,0.3-0.8,0.4c-0.3,0-0.4,0-0.7,0C38.9,49.4,39.2,49.3,39.3,49.3z M34.2,48.5	c-0.1,0-0.3-0.1-0.5-0.2c-0.2-0.1-0.2-0.2,0-0.2c0.2,0,0.4,0.1,0.7,0.2C34.6,48.3,34.3,48.5,34.2,48.5z M33.7,47.7	c0.1,0.1,0.4,0.1,0.4,0.2S34,48,33.9,48c-0.1,0-0.3-0.1-0.4-0.2C33.4,47.7,33.6,47.7,33.7,47.7z M33.7,48.8c0.1,0,0.1,0.2,0,0.2	c-0.1,0-0.2-0.1-0.4-0.1c-0.1,0-0.1-0.3,0-0.3C33.3,48.8,33.6,48.8,33.7,48.8z M34,43.3c0.1,0.1,0.8,0.1,0.8,0.1	c0,0-0.1,0.2-0.3,0.2c-0.2,0.1-0.4-0.1-0.7-0.2C33.6,43.4,33.9,43.1,34,43.3z M34.8,44.5c-0.1,0-0.5-0.1-0.7-0.1	c-0.2,0,0-0.4,0.2-0.2c0.1,0.1,0.5,0.2,0.7,0.1C35.1,44.3,34.9,44.5,34.8,44.5z M35,45.2c-0.1-0.1,0.1-0.3,0.2-0.1	c0.1,0.1,0.2,0,0.5,0c0.2,0,0,0.2-0.2,0.2C35.4,45.3,35.2,45.2,35,45.2z M35.5,45.8c-0.1-0.1,0.1-0.2,0.3-0.1c0.1,0.1,0.8,0,0.9,0	c0.2-0.1,0.3,0,0.3,0c0,0.1-0.1,0.2-0.2,0.2C36.6,46,35.6,45.9,35.5,45.8z M35.6,46.6c-0.1-0.1,0.1-0.2,0.2,0c0.1,0.1,1,0,1.1,0	c0.1,0,0.2,0.1,0,0.2S35.7,46.7,35.6,46.6z M37.2,47.4c-0.2,0-0.9-0.1-1-0.2c-0.2-0.1,0-0.2,0.1-0.1c0.1,0.1,0.9,0.1,1.2,0.1	S37.4,47.4,37.2,47.4z M40,47.6c-0.2,0-0.4,0.1-0.5,0.1c-0.1,0-0.2-0.2,0-0.2c0.2,0,0.6-0.1,0.6-0.1C40.1,47.3,40.2,47.5,40,47.6z M41.6,47.2c-0.2,0,0.1-0.2,0.2-0.2c0.2,0.1,1.2-0.2,1.4-0.3c0.2,0,0.1,0.1-0.1,0.2S41.8,47.3,41.6,47.2z M43.3,47.6	c-0.1,0.1-1,0.3-1.2,0.3c-0.2,0-0.2-0.2,0.1-0.2c0.2,0,0.9-0.3,1.2-0.4C43.7,47.3,43.5,47.5,43.3,47.6z M46.1,44.6	c0.2-0.1,0.1-0.3,0.2-0.4l0,0c0,0.7-0.1,1.4-0.5,2c0,0-0.1,0.1-0.1,0.1c0.1-0.2,0.1-0.4,0.1-0.5c0-0.1-0.1,0-0.3,0.1	c-0.2,0.1-0.4,0.5-0.6,0.6c-0.2,0.2-0.2,0.2-0.3,0.2c-0.1,0,0.3-0.4,0.4-0.5c0.1-0.1,0-0.1,0.2-0.1c0.2,0,0.2-0.4,0.4-0.6	c0.2-0.2,0.1-0.3,0-0.4C45.6,45.1,45.9,44.6,46.1,44.6z" class="st0"/><path d="M25.4,24C25.4,24,25.4,24,25.4,24c0.1,0,0.1-0.1,0.2-0.1c0,0-0.1,0-0.1-0.1C25.5,23.6,25.4,23.8,25.4,24z" class="st0"/><path d="M25.9,23.1c-0.1-0.1-0.6-0.3-0.9-0.4c0,0,0,0.1,0,0.2c0,0,0,0.1,0,0.1c0.2,0.1,0.5,0.3,0.7,0.3	C26,23.4,25.9,23.2,25.9,23.1z" class="st0"/><path d="M25.6,23.5c0-0.1-0.3-0.2-0.5-0.3c0,0.1,0,0.2,0.1,0.3C25.3,23.5,25.5,23.6,25.6,23.5z" class="st0"/><path d="M25.4,22.1c0.1-0.1-0.3-0.3-0.5-0.4c0,0.1,0,0.2,0,0.3C25.1,22.1,25.3,22.2,25.4,22.1z" class="st0"/><path d="M30.5,42.7c0.3,0.1,0.5,0.2,0.6,0.2c0.1,0,0.1,0,0.2,0c0,0,0.1-0.1,0-0.2c0,0,0-0.1-0.2-0.1	c-0.3,0-1.1-0.3-1.1-0.4c0,0-0.1-0.1-0.1,0c-0.1,0-0.1,0.1-0.1,0.2s0,0.1,0.1,0.2C30.1,42.5,30.3,42.6,30.5,42.7z" class="st0"/><path d="M25.7,22.6c-0.1-0.1-0.5-0.3-0.8-0.4c0,0.1,0,0.2,0,0.2c0.3,0.1,0.4,0.2,0.7,0.3C25.9,22.9,25.8,22.7,25.7,22.6	z" class="st0"/><path d="M22.9,35.2c0,0-0.1-0.1-0.1-0.1c0,0-0.1,0-0.1,0.1c0,0,0,0.1,0.1,0.2c0.1,0.1,0.4,0.2,0.7,0.3	c0.2,0.1,0.4,0.1,0.5,0.2c0.2,0.1,0.3,0.1,0.3,0c0,0,0.1-0.1,0.1-0.2c0-0.2-0.1-0.4-0.4-0.3C23.7,35.5,22.9,35.3,22.9,35.2z" class="st0"/><path d="M28.3,42.5c0,0,0-0.1,0-0.1c0,0-0.1-0.1-0.3-0.2c-0.1,0-0.2-0.1-0.2-0.1c-0.1-0.1-0.2-0.1-0.2,0	c0,0-0.1,0.1-0.1,0.1c0,0,0,0.1,0.1,0.1l0.2,0.1c0.2,0.1,0.3,0.2,0.4,0.2C28.2,42.6,28.3,42.5,28.3,42.5z" class="st0"/><path d="M27.9,41.2L27.9,41.2c0.1,0,0.2,0,0.3,0c0,0,0.1-0.1,0.1-0.1v0c0,0,0,0-0.1,0h-0.1c-0.1,0-0.3,0-0.3,0	c0-0.1,0-0.1-0.1-0.1s-0.1,0-0.1,0c-0.1,0-0.1,0.1-0.1,0.2C27.5,41.1,27.7,41.2,27.9,41.2z" class="st0"/><path d="M22.1,37.7c0-0.1-0.1-0.1-0.2-0.1c-0.3,0-0.9-0.3-1-0.4c0,0-0.1-0.1-0.1,0c-0.1,0-0.1,0.1-0.1,0.2	c0,0.1,0,0.1,0.1,0.2c0.2,0.1,0.9,0.4,1.1,0.3C21.8,37.9,22.1,37.8,22.1,37.7z" class="st0"/><path d="M24.5,41.6c0.3,0.1,1.6,0.4,1.8,0.5l0.2,0.1c0.3,0.2,0.5,0.3,0.6,0.2c0,0,0.1,0,0.1-0.1c0-0.1,0-0.1,0-0.2	c0-0.1-0.9-0.4-1.1-0.4c-0.1,0-0.4-0.1-0.7-0.2c-1.1-0.4-1.2-0.4-1.3-0.4c0,0,0,0,0,0c0,0,0,0.1,0,0.1	C24.2,41.5,24.2,41.6,24.5,41.6z" class="st0"/><path d="M30.7,44.1c0.1,0,0.3,0.1,0.5,0.1c0.2,0.1,0.3,0.1,0.4,0.1c0.1,0,0.3,0,0.3-0.1c0,0,0,0,0,0c0,0,0-0.1-0.2-0.1	c-0.1,0-0.4-0.2-0.6-0.3c0,0,0.1,0,0.1,0c0.2,0.1,0.4,0.1,0.5,0.1c0.1,0,0.2,0,0.2-0.1c0,0,0,0,0,0c0,0-0.1-0.1-0.2-0.2l-0.1,0	c-0.1-0.1-0.4-0.2-0.4-0.2c0.1,0,0.1-0.1,0.1-0.2c0,0,0,0,0,0c0-0.1,0-0.1-0.1-0.1c-0.2-0.1-0.9-0.3-1-0.4c-0.1,0-0.2,0-0.2,0	c0,0-0.1,0.1-0.1,0.2v0c0,0.1,0.1,0.1,0.2,0.2c0.1,0.1,0.2,0.1,0.3,0.1c-0.1,0-0.2,0.1-0.2,0.1c0,0,0,0,0,0c0,0,0,0.1,0.1,0.1	l0.3,0.1c0.1,0,0.2,0.1,0.2,0.1c-0.1,0-0.1,0.1-0.2,0.1l0,0c0,0-0.1,0.1-0.1,0.2C30.5,44.1,30.6,44.1,30.7,44.1z" class="st0"/><path d="M26.3,42.7c0.3,0.1,1.1,0.6,1.4,0.5c0.1,0,0.4,0,0.4-0.1c0-0.1-0.1-0.1-0.1-0.1c-0.1,0-0.3-0.1-0.5-0.2	c-0.5-0.2-1.1-0.5-1.3-0.5c-0.2,0-0.5-0.2-0.8-0.3c-0.4-0.1-0.5-0.2-0.6-0.2c-0.1,0-0.1,0-0.2,0c-0.1,0-0.1,0-0.1,0	c0,0,0,0.1,0.1,0.1c0.1,0.1,0.6,0.3,1.1,0.4C25.9,42.5,26.2,42.6,26.3,42.7z" class="st0"/><path d="M27.4,39.8c0,0-0.2,0-0.3-0.1c-0.3-0.1-0.6-0.2-0.7-0.1c0,0,0,0,0,0.1c0,0.1,0.1,0.1,0.2,0.2c0,0,0.1,0,0.1,0.1	c0,0.1,0,0.2,0.1,0.2c0,0,0.1,0,0.1,0l0.1-0.1c0.1-0.1,0.2-0.1,0.3-0.1c0.1,0,0.2,0.1,0.4,0.1c0.2,0,0.5,0.1,0.6,0.2	c0,0,0.1,0.1,0.1,0.1c0,0,0.1,0,0.1-0.1c0,0,0-0.1-0.1-0.2C28.1,40.1,27.5,39.8,27.4,39.8z" class="st0"/><path d="M27.7,40.5c-0.1-0.1-0.3-0.2-0.4-0.1c-0.1,0-0.1,0.1-0.1,0.1c0,0.2,0.1,0.2,0.2,0.2l0.1,0l0.1,0	c0.2,0.1,0.7,0.2,0.9,0.2c0.1,0,0.2,0,0.2-0.1c0-0.1,0-0.1-0.1-0.2c-0.1-0.1-0.3-0.1-0.4-0.1C27.9,40.6,27.7,40.5,27.7,40.5z" class="st0"/><path d="M27.8,41.4c0,0-0.1-0.1-0.2-0.1c0,0-0.1,0-0.1,0.1c0,0,0,0.1,0,0.1c0.1,0.1,0.2,0.1,0.3,0.1	c0.1,0,0.2,0.1,0.3,0.1c0.1,0.1,0.3,0.1,0.4,0c0,0,0.1-0.1,0.1-0.1c0-0.1-0.2-0.2-0.3-0.2C28.2,41.5,27.8,41.4,27.8,41.4z" class="st0"/><path d="M29,43.1c0.2,0.2,0.5,0.4,0.6,0.3c0.1,0,0.2-0.2,0.1-0.2c-0.1,0-0.4-0.1-0.4-0.2C29.1,43,28.8,43,29,43.1z" class="st0"/><path d="M28.1,42c0.1,0.1,0.3,0.4,0.5,0.4c0.2,0,0.4,0.1,0.5,0c0-0.1-0.4-0.3-0.6-0.4C28.3,41.9,28,41.8,28.1,42z" class="st0"/><path d="M20.8,37.7c-0.1,0-0.2,0-0.2,0.1c0,0,0,0.1,0.1,0.2c0.1,0.1,0.3,0.1,0.6,0.2c0.2,0,0.3,0.1,0.4,0.1	c0.1,0.1,0.3,0.1,0.3,0.1c0,0,0,0,0-0.1C22,38.1,21,37.7,20.8,37.7z" class="st0"/><path d="M22.8,40.8c0.1,0,0.2,0,0.2,0.1c0.1,0.1,0.2,0.1,0.3,0c0.1,0,0.1-0.1,0-0.2c0-0.1-0.2-0.1-0.3-0.1	c-0.1,0-0.2,0-0.2-0.1c0-0.1-0.1-0.1-0.1-0.1c-0.1,0-0.1,0.1-0.1,0.1c0,0,0,0.1,0,0.1C22.7,40.8,22.8,40.8,22.8,40.8z" class="st0"/><path d="M22.8,39.6c0,0,0.1-0.1,0.1-0.1v0c0-0.1,0-0.1,0-0.1l0,0c0-0.1-0.1-0.1-0.1-0.1c0,0-0.1,0-0.1,0	c-0.1-0.1-0.2-0.1-0.3,0c-0.1,0-0.1,0.1-0.1,0.1c0,0,0,0.1,0.1,0.1c0.1,0,0.1,0,0.1,0c0,0,0.1,0,0.2,0.1	C22.6,39.6,22.7,39.7,22.8,39.6z" class="st0"/><path d="M28.6,43.2c-0.2,0-0.3,0-0.3,0c0,0,0,0.1,0,0.1c0.1,0.2,1.3,0.6,1.5,0.7c0.1,0,0.2,0,0.2-0.1	c0-0.1,0-0.2-0.1-0.2C29.8,43.7,28.8,43.2,28.6,43.2L28.6,43.2z" class="st0"/><path d="M24.9,42.9c-0.1,0-0.2,0-0.2-0.1c0,0,0-0.1,0-0.1c-0.1,0-0.2,0-0.3,0.1c0,0,0,0.1,0,0.1	c0.2,0.2,0.3,0.2,0.5,0.2c0.1,0,0.1,0,0.1-0.1c0-0.1,0-0.1,0-0.2v0C25,42.9,24.9,42.9,24.9,42.9z" class="st0"/><path d="M24.2,42.5c0,0,0-0.1,0-0.2c-0.3-0.8-0.5-2.1-0.6-2.5c0-0.2,0-0.3,0.1-0.3c0.1-0.1,0.2,0,0.4,0.1	c0.5,0.3,1.1,0.8,1.5,1.4c0.3,0.3,0.7,0.7,1.3,0.8c0.1,0,0.2,0,0.2-0.1c0,0,0,0,0,0c0,0,0-0.1-0.1-0.1c-0.4-0.1-0.8-0.4-1.2-0.9	c0,0-0.1-0.1-0.3-0.2c-0.3-0.2-0.7-0.7-0.8-0.9c-0.1-0.1-0.8-0.5-0.9-0.6c-0.1-0.1-0.2-0.1-0.4-0.4c-0.2,0-0.3-0.2-0.5-0.3	c-0.2-0.1-0.2-0.8-0.4-1.1l0,0c-0.2-0.3-0.5-0.7-0.7-1.1c0,0.1-0.4-0.5-0.4-0.7c0,0,0,0,0,0c-0.1-0.1-0.4-0.3-0.4-0.2	c0,0.1,0.4,0.8,0.5,0.9c0.1,0.1,0.5,0.6,0.5,0.8c0,0.2,0.2,0.6,0.3,0.8c0.3,0.5,0.6,1,0.7,1.3c0.3,0.5,0.4,0.7,0.5,1.3	c0.2,0.7,0.4,1.6,0.7,2.1C24.2,42.5,24.2,42.5,24.2,42.5z" class="st0"/><path d="M21.8,35.1c-0.1,0-0.1,0.1-0.1,0.1c0,0.1,0.2,0.3,0.5,0.4c0.3,0.1,0.6,0.2,0.7,0.3C22.9,36,23,36,23,36	c0,0,0.1,0,0.1-0.1c0-0.1,0-0.1,0-0.2c0,0-0.2-0.1-0.4-0.2c-0.2-0.1-0.5-0.2-0.6-0.3C22,35.1,21.9,35.1,21.8,35.1z" class="st0"/><path d="M24.5,35.1C24.4,35.1,24.4,35.1,24.5,35.1l-0.1,0l0,0c-0.1,0.1-0.1,0.1-0.1,0.3c0,0.1,0.2,0.2,0.3,0.3	c0.1,0,0.1,0,0.1,0c0,0,0,0,0-0.1C24.6,35.4,24.6,35.3,24.5,35.1L24.5,35.1z" class="st0"/><path d="M22.3,34.4c-0.1,0-1.2-0.5-1.3-0.5c-0.1,0-0.2-0.1-0.3,0c0,0,0,0.1,0,0.2c0.1,0.2,0.6,0.3,1.2,0.5l0.1,0	C22.2,34.6,22.3,34.6,22.3,34.4C22.3,34.5,22.3,34.5,22.3,34.4C22.3,34.5,22.3,34.4,22.3,34.4z" class="st0"/><path d="M23.6,35c-0.2-0.1-0.8-0.4-0.9-0.4c-0.1-0.1-0.3-0.1-0.4,0c0,0,0,0.1,0,0.1c0.1,0.1,0.4,0.2,0.6,0.3	c0.2,0.1,0.4,0.1,0.4,0.2c0.1,0.1,0.2,0,0.3,0c0,0,0.1-0.1,0.1-0.1C23.8,35.1,23.7,35,23.6,35z" class="st0"/><path d="M24.4,35.9c0,0,0,0.1,0,0.2c0,0.1,0.2,0.1,0.4,0.2l0,0c0,0,0,0,0.1,0c0,0,0.1-0.1,0.1-0.1	C25,36,24.7,35.9,24.4,35.9C24.5,35.9,24.5,35.9,24.4,35.9z" class="st0"/><path d="M29,32.1c0.5-0.1,0.7-0.5,0.8-0.8c0.3-0.9,0.8-1.7,1.7-2.5c0.5-0.4,0.6-0.9,0.6-1.4l0,0c0.1-0.4,0-0.8-0.6-1	c-0.2-0.1-0.4-0.2-0.6-0.3c-0.3,0.1-0.5,0.1-0.6,0c-0.1-0.2-0.7-0.5-0.8-0.6c-0.1-0.1-0.4-0.3-0.7-0.2c-0.2,0.1-1.7,0-2-0.1	c-0.3-0.1-0.4,0.1-0.3,0.2c0.1,0,1.2,0.4,1.3,0.4c0.1,0,0.2,0.2,0,0.1s-1.2-0.3-1.3-0.3c-0.2,0-0.4,0-0.1,0.1	c0.2,0.1,0.9,0.4,1.1,0.5c0.2,0.1,0.4,0.2,0.1,0.2c-0.3-0.1-0.9-0.3-1-0.3c-0.1,0-0.5,0-0.2,0.2c0.3,0.2,0.5,0.3,0.8,0.4	s0.3,0.2,0,0.1s-0.7-0.3-0.7-0.3c-0.1,0-0.4,0-0.1,0.3C26.8,27,27,27,27.2,27c0.2,0-0.1,0.1-0.1,0.1S26.6,27,26.5,27s-0.2,0.1,0,0.2	c0.2,0.1,0.1,0,0.4,0.1c0.3,0.1,0.2,0.1-0.1,0.1c-0.3,0-0.4-0.1-0.4,0.1c0,0.1,0.4,0.4,0.6,0.5c0.2,0,0.3,0.2,0,0.2	c-0.3,0-0.4-0.4-0.6-0.3c-0.1,0.1-0.4,0.3-0.3,0.3c0.1,0.1,0.3,0.2,0.5,0.3c0.2,0.1,0.1,0.3,0,0.2c-0.2-0.1-0.4-0.2-0.5-0.2	c-0.2,0-0.3,0.3-0.1,0.3c0.2,0,0.5,0.2,0.6,0.3c0.1,0.1-0.1,0-0.3,0c-0.2-0.1-0.3,0-0.4,0c-0.1,0-0.2,0.2,0,0.3	c0.2,0,0.1,0.1,0.4,0.2c0.2,0.1,0,0.3-0.2,0.2c-0.2,0-0.4-0.1-0.3,0c0.1,0.1,0.4,0.1,0.5,0.2s0.1,0.3,0,0.2	c-0.1-0.1-0.3-0.1-0.5-0.2c-0.2,0-0.2,0.1-0.1,0.2c0.1,0.1,0.5,0.1,0.5,0.2c0,0.1,0.1,0.2-0.1,0.1c-0.2,0-0.2-0.1-0.4-0.1	c-0.1,0,0.1,0.3,0.3,0.3c0.1,0,0.4,0.1,0.4,0.2s0,0-0.2,0c-0.2,0-0.5,0-0.3,0.2c0.2,0.2,0.7,0.3,0.8,0.4c0.2,0.1,0.4,0.2,0.1,0.2	c-0.3,0-0.9-0.3-1-0.3c-0.1,0.1-0.4,0.1,0.1,0.3c0.5,0.2,0.8,0.2,0.7,0.3c-0.1,0.1-0.3,0-0.6,0c-0.3-0.1-0.7,0.1-0.3,0.2	c0.4,0.1,1,0.3,1.1,0.4c0.1,0.1,0.1,0.4-0.1,0.2c-0.2-0.1-1-0.4-1.2-0.5c-0.2,0-0.4,0.1-0.1,0.2c0.3,0.1,1.4,0.4,1.5,0.5	c0.1,0.1,0,0.3,0.1,0.3c0,0,0,0,0,0C27.4,32.8,28.1,32.3,29,32.1z M28.6,28.4c-0.1-0.1-0.3-0.1-0.4-0.2c-0.1,0,0-0.1,0.2-0.1	c0.1,0,0.4,0.1,0.4,0.2C28.8,28.4,28.7,28.5,28.6,28.4z M28.8,26.5c0.2,0,0.4,0.1,0.4,0.1c0.1,0,0,0.2-0.1,0.2	c-0.1,0-0.5-0.1-0.6-0.2C28.4,26.6,28.6,26.4,28.8,26.5z M28.2,27.2c0.1,0,0.5,0.1,0.6,0.1c0.1,0,0,0.2-0.1,0.1	c-0.1,0-0.5-0.1-0.6-0.2S28.2,27.2,28.2,27.2z M27.7,28.8c0.1,0,0.3,0,0.4,0.1c0.2,0,0,0.2-0.1,0.1c-0.1,0-0.4,0-0.5,0	C27.5,29,27.5,28.8,27.7,28.8z M27.6,29.6c0.1,0,0.2,0,0.3,0c0.1,0,0.1,0.1,0.1,0.1c-0.1,0-0.3,0-0.4,0.1	C27.4,29.8,27.5,29.6,27.6,29.6z M27.3,30.2c0.1,0,0.6,0.2,0.7,0.2c0.1,0,0,0.2-0.2,0.1c-0.2-0.1-0.5-0.2-0.7-0.2	C26.9,30.4,27,30.2,27.3,30.2z M27.5,31c0.2,0,0.5,0.1,0.7,0.2c0.2,0.1-0.1,0.2-0.2,0.1c-0.1-0.1-0.5-0.1-0.7-0.1	C27.2,31.1,27.4,31,27.5,31z" class="st0"/><path d="M42.8,31.2L42.8,31.2c0,0.3,0,0.5,0.1,0.7c0.1,0.7,0.1,1.2-0.1,1.8c0,0.2-0.1,0.7-0.1,0.7c0,0,0,0,0,0.1	c0,0.2-0.1,0.5-0.2,0.5c-0.1,0.1-0.2,0.2-0.3,0.4c0,0.1-0.1,0.2-0.2,0.3c-0.1,0.5-0.1,1,0,1.5l0.1,0.5c0,0.2,0,0.4,0.1,0.6l0,0.1	c0,0.2,0,0.4,0.1,0.5l0,0.2c0,0.3,0.2,0.7,0.4,1c0,0,0,0,0.1,0c0.1,0,0.1-0.1,0.1-0.3c0,0,0-0.1,0-0.1c0-0.1,0-0.2,0-0.2	c0,0,0-0.3-0.1-0.4l0,0c0-0.1-0.1-0.3-0.1-0.3l-0.1-0.1c0-0.1-0.1-0.1-0.1-0.2l0-0.1l0.2,0.1c0.1,0,0.2,0.1,0.3,0.2	c0.1,0.1,0.3,0.2,0.4,0.2l0.1,0l0-0.1c-0.5-0.4-1-1-1.2-1.8l0-0.1c0-0.3-0.1-0.5,0-0.7c0,0,0,0,0-0.1c0.1-0.6,0.3-1.2,0.7-1.8	c0.1-0.1,0.1-0.2,0.1-0.3c0.2-0.4,0.2-0.9,0.2-1.5c0-0.3,0-0.5-0.1-0.8l0-0.1l0-0.1l0,0c-0.1,0-0.1-0.1-0.2-0.1c0,0,0,0,0,0	c0,0,0,0,0,0C42.8,31.4,42.8,31.3,42.8,31.2L42.8,31.2c0,0,0.1,0.1,0.1,0.1C42.8,31.3,42.8,31.3,42.8,31.2z" class="st0"/><path d="M33.2,24.7c-0.4-0.3-1-0.3-1.3-0.2c-0.3,0.1-1-0.3-1.1-0.2c-0.2,0.1-0.5-0.1-0.4,0.1c0,0.2,0.2,0.3,0.6,0.3	c0.3,0,0.3,0,0.2,0.1c0,0,0,0.1-0.1,0.1c0.5,0.2,1.1,0.4,1.7,0.5c0.8,0.1,1.2,0.6,1.6,1.3c0.4,0.7,0.8,1.4,1.4,1.7	c0.1,0.1,0.2,0.2,0.4,0.2c-0.1-0.1-0.1-0.2-0.1-0.2c0.1-0.2,0.3-0.1,0.2-0.3c0-0.2-0.4-0.2-0.3-0.4c0.1-0.3-0.2-0.3-0.3-0.4	c0-0.1,0-0.3-0.1-0.3c-0.1,0-0.2-0.2-0.2-0.4c0-0.2-0.1-0.1-0.2-0.2c-0.1-0.1,0-0.4-0.2-0.4c-0.2,0-0.3-0.4-0.2-0.5	c-0.1-0.1-0.2-0.2-0.3-0.3C34.2,25.2,33.6,24.9,33.2,24.7z" class="st0"/><path d="M39.7,28.1C39.7,28.1,39.7,28.1,39.7,28.1c0.1,0,0.1-0.1,0.2-0.2l0.1-0.2l-0.1,0c-0.2,0-0.4,0-0.6,0h-0.1	l0.1,0.1C39.5,28,39.6,28.1,39.7,28.1z" class="st0"/><path d="M32.6,24.3c0.1,0,0.3-0.1,0.1-0.2c-0.2,0-1.2-0.4-1.4-0.4c-0.1,0-0.3,0-0.1,0.2C31.3,24,32.5,24.2,32.6,24.3z" class="st0"/><path d="M31.6,26.3C31.6,26.3,31.6,26.3,31.6,26.3C31.6,26.3,31.6,26.3,31.6,26.3C31.6,26.3,31.6,26.3,31.6,26.3	C31.6,26.3,31.6,26.3,31.6,26.3z" class="st0"/><path d="M34.6,25.1C34.6,25.2,34.6,25.2,34.6,25.1L34.6,25.1L34.6,25.1C34.6,25.2,34.6,25.2,34.6,25.1z" class="st0"/><path d="M29.6,23.6C29.6,23.6,29.6,23.6,29.6,23.6c0,0.1,0,0.1,0,0.1c0,0,0,0,0,0c0.2,0.1,0.8,0.3,1,0.2	c0.2-0.1,0.5-0.2,0.2-0.2c-0.3,0-0.9-0.1-1-0.3c0,0,0,0,0,0c0,0,0,0,0,0C29.7,23.4,29.6,23.5,29.6,23.6z" class="st0"/><path d="M28.8,23.9c0.1,0.1,0.1,0.2,0.2,0.3l0,0h0c0.2,0.1,0.4,0.2,0.4,0.3l0,0c0.1,0.2,0.8,0.7,1,0.7	c0,0,0.1,0,0.2,0.1c0.1,0.1,0.2,0.1,0.3,0.1c0,0,0,0,0,0c0,0,0-0.1,0-0.1l0-0.1l0,0c0,0-0.1-0.1-0.1-0.1c-0.1-0.1-0.2-0.2-0.4-0.2	c-0.3-0.2-0.6-0.5-0.9-0.9c0,0-0.1-0.1-0.1-0.2c0,0,0,0,0-0.1c0,0,0,0,0,0c0,0,0,0,0,0c0,0,0,0,0,0c0-0.1,0-0.2,0-0.2	c0.1-0.1,0.2-0.2,0.4-0.2c0,0,0,0,0,0s0,0,0,0c0.3,0,0.7,0.1,1,0.1c1.5,0.2,2.5,0.6,3.4,1.4c0.2,0.2,0.3,0.3,0.4,0.4l0.1,0l0,0	c0,0,0-0.1,0-0.1c0,0,0,0,0,0c0,0,0,0,0,0v0h0l0.3-0.2l-0.1,0c-0.2,0-0.4-0.2-0.6-0.4l-0.2-0.2c-0.1-0.1-0.3-0.2-0.5-0.4	c-0.3-0.2-0.6-0.3-0.8-0.3c-0.3-0.1-1-0.3-1.2-0.4c0,0-0.1,0-0.1-0.1c0,0-0.1-0.2-1.2-0.1l-0.1,0c0,0,0,0,0,0c-0.2,0-0.5,0-0.7,0	c-0.1,0-0.1,0-0.1-0.1c-0.1,0-0.2-0.1-0.4-0.1h0h0c-0.4,0-0.7,0.1-1.1,0.2h0h0c-0.2,0.1-0.3,0.2-0.5,0.2c-0.1,0-0.1,0.1-0.2,0.1	c0,0,0,0,0,0c0,0-0.1,0.1-0.1,0.1c0,0.1-0.1,0.1-0.1,0.2c-0.1,0-0.1,0.1-0.2,0.1h-0.2c-0.1,0-0.2,0-0.3,0c-0.1,0-0.1,0.1-0.3,0.2	l-0.2,0.2c-0.2,0.2-0.3,0.3-0.5,0.4c-0.1,0.1-0.5,0.3-0.6,0.3l0,0c0,0-0.2,0.1-0.3,0.1l0,0.1l0.2,0c0.2-0.1,0.4,0,0.6,0.1	c0.2,0.1,0.3,0.3,0.3,0.5l0,0.1c0.1,0.7,0.1,1.3,0,1.7c-0.1,0.3-0.2,0.6-0.3,0.8l0,0c0,0-0.1,0.2-0.1,0.3c-0.1,0.4-0.2,0.9-0.2,1.3	l0,0.2c0.1,0.6,0.1,1.3,0,2l0.1,0c0.1-0.6,0.1-1.4,0.1-2c0-0.5,0-1,0.2-1.3c0.2-0.4,0.5-0.9,0.6-1.3l0,0l0,0c0,0-0.1-0.1-0.1-0.2v0	c0,0,0,0,0,0v0c0-0.1,0.1-0.3,0.2-0.4c0,0,0,0,0,0c0,0,0,0,0,0v0l0,0c0,0,0,0,0.1,0l0-0.4l0,0c0,0-0.1,0-0.1-0.1	c0,0-0.1-0.1-0.1-0.2c0-0.1,0-0.2,0-0.3c0-0.1,0-0.2,0-0.3c0-0.1,0-0.2,0-0.2c0-0.1,0-0.1,0-0.2c0,0,0,0,0,0c0,0,0,0,0,0	c0,0,0-0.1,0-0.1c0,0,0-0.1,0-0.1c0-0.1,0.1-0.2,0.1-0.2v0l0-0.1v0.1l0.1,0c0-0.1,0.1-0.2,0.1-0.2c0,0,0.1-0.1,0.1-0.1	c0,0,0-0.1,0.1-0.1c0,0,0,0,0,0c0,0,0,0,0,0c0.3-0.3,1-0.7,1.5-0.8c0,0,0,0,0,0c0,0,0,0,0,0c0,0,0.1,0,0.2,0c0,0,0.1,0,0.1,0	c0,0,0.1,0,0.1,0C28.5,23.6,28.7,23.8,28.8,23.9z" class="st0"/><path d="M32.1,40.3C32.1,40.3,32.1,40.3,32.1,40.3c-1.1-0.5-2.4-0.8-3-0.9c0,0,0,0,0,0C29.6,39.5,31,39.8,32.1,40.3	C32,40.3,32,40.3,32.1,40.3C32.1,40.3,32.1,40.3,32.1,40.3C32.1,40.3,32.1,40.3,32.1,40.3z" class="st0"/><path d="M29,39.4C29,39.4,29,39.4,29,39.4C29,39.4,29,39.4,29,39.4C29,39.4,29,39.4,29,39.4C29,39.4,29,39.4,29,39.4z" class="st0"/><path d="M28.4,38.4c0,0-0.1-0.3-0.1-0.4l0,0c-0.1-0.5-0.2-1.1-0.4-1.7l0,0l0,0c-0.1,0-0.2-0.1-0.3-0.3l-0.1,0	c0.2,0.6,0.4,1,0.5,1.7c0.2,0.9,0.6,2.3,0.9,3.2l0,0.1l0.1,0c-0.1-0.4-0.2-0.8-0.3-1.1l0,0c0-0.1,0-0.3,0.1-0.4c0,0,0.1-0.1,0.1-0.1	c0.1,0,0.1-0.1,0.2,0c0.2,0,0.4,0.1,0.7,0.1l0-0.1c-0.4-0.1-0.7-0.2-0.9-0.3c-0.1,0-0.1,0-0.2-0.1C28.6,38.9,28.5,38.7,28.4,38.4	L28.4,38.4z" class="st0"/><path d="M37,45.7C37,45.7,36.9,45.7,37,45.7C36.9,45.7,36.9,45.7,37,45.7C37,45.7,37,45.7,37,45.7z" class="st0"/><path d="M37,45.6C37,45.6,37,45.7,37,45.6C37,45.7,37,45.7,37,45.6C37,45.6,37,45.6,37,45.6z" class="st0"/><path d="M23.7,37.4c-0.2-0.1-0.3-0.1-0.4-0.1c-0.1,0-0.1,0-0.2,0c0,0-0.1,0.1-0.1,0.2v0c0,0.1,0.1,0.1,0.1,0.2	c0.1,0,0.4,0.1,0.7,0.3c0.5,0.2,1.1,0.5,1.2,0.5c0.2,0,0.8,0.3,0.9,0.4c0,0,0.2,0.1,0.7,0.3c0.3,0.1,0.8,0.3,0.9,0.4c0,0,0,0,0,0	s0,0,0,0c0,0,0,0-0.1,0c-0.1,0-0.2-0.1-0.4-0.2c-0.4-0.2-1-0.4-1.2-0.5c-0.7-0.2-1.1-0.3-1.1-0.4c0-0.1-0.1-0.1-0.2-0.1	c0,0-0.1,0-0.1,0c0,0,0,0.1,0,0.1c0.1,0.1,0.5,0.3,1.1,0.5c0.2,0.1,0.5,0.2,0.5,0.2c0.2,0.1,1.6,0.6,1.9,0.6c0.2,0,0.2-0.1,0.2-0.1	c0,0,0,0,0,0c0-0.1-0.1-0.1-0.1-0.1c-0.1,0-0.2-0.1-0.3-0.1c0.1,0,0.2-0.2,0.2-0.3c0,0,0-0.1,0-0.1c0,0,0-0.1,0-0.1	C28,39,27.8,39,27.7,38.9c-0.1,0-0.2,0-0.3-0.1L27,38.7c-0.4-0.2-1.2-0.5-1.3-0.5c-0.1-0.1-0.3-0.1-0.6-0.2	c-0.3-0.1-0.6-0.2-0.7-0.3C24.3,37.6,24,37.5,23.7,37.4z" class="st0"/><path d="M22.4,25.7c-0.1-0.7-0.1-1.4-0.1-2.2c0-1.2,0-2.5-0.2-3.7c-0.1-0.3-0.2-0.5-0.4-0.5c-0.2,0-0.4,0.1-0.5,0.5	c-0.1,0.3-0.2,0.5-0.3,0.8c-0.2,0.4-0.4,0.6-0.8,0.7c0.2,0.1,0.3,0.3,0.4,0.3c0.1,0.1,0,0.2-0.2,0.1c-0.1,0-0.6-0.2-0.7-0.2	c-0.1,0-0.4,0-0.2,0.1c0.2,0.1,0.8,0.5,0.9,0.5c0.1,0.1,0.1,0.2,0,0.2c-0.1,0-1.1-0.5-1.3-0.5c-0.2-0.1-0.2,0.1,0,0.3	c0.3,0.1,1,0.5,1.1,0.5c0.2,0,0.2,0.1,0,0.1c-0.2,0-0.6-0.2-0.8-0.2c-0.1,0-0.2,0.1,0,0.2c0.2,0,0.6,0.2,0.7,0.3	c0.2,0,0.1,0.2,0,0.2c-0.1,0-0.4-0.2-0.5-0.2c-0.1,0-0.2,0.1,0,0.2c0.1,0.1,0.7,0.4,0.8,0.4c0.2,0,0.2,0.1,0,0.1	c-0.2,0-0.6-0.3-0.9-0.3c-0.2-0.1-0.3,0.1,0,0.2c0.2,0.1,0.9,0.4,1.3,0.5c0.3,0.1,0.3,0.2,0.1,0.2c-0.2,0-0.9-0.3-1.1-0.3	c-0.2,0-0.2,0.1,0,0.2s0.8,0.4,1.1,0.4s0.2,0.1,0.1,0.1c-0.1,0-0.8-0.2-1-0.3c-0.2,0-0.2,0.1-0.1,0.2c0.1,0.1,0.8,0.3,1.2,0.4	c0.4,0.1,0.3,0.3,0.1,0.2s-1-0.3-1.1-0.3c-0.2,0-0.2,0.2,0,0.3c0.2,0.1,0.8,0.2,1,0.2c0.2,0,0.3,0.3,0,0.2c-0.3,0-0.6-0.1-0.9-0.1	s-0.1,0.2,0.2,0.2c0.3,0,0.7,0.3,1,0.4c0.3,0.1,0,0.3-0.1,0.2c-0.2-0.1-0.4-0.2-0.5-0.2c-0.1,0-0.1,0.2,0.1,0.3	c0.3,0.1,0.4,0.1,0.5,0.1s0,0.1-0.1,0.2c-0.1,0,0,0.2,0.2,0.2c0.2,0,0.3,0,0.3,0l0,0C21.7,26.3,22,26,22.4,25.7z" class="st0"/><path d="M27.7,37.9c-0.2-0.1-0.3-0.1-0.4-0.1l-0.1,0c-0.1,0-1.1-0.4-1.3-0.5l-0.4-0.2c-0.2-0.1-0.4-0.2-0.5-0.2	c-0.1-0.1-0.2,0-0.3,0c0,0,0,0.1,0,0.1c0,0,0,0.1,0.1,0.1c0.2,0.1,1.9,0.7,2.1,0.8c0.2,0,0.3,0.1,0.3,0.2c-0.1,0-0.5,0-0.6,0	c-0.1-0.1-0.4-0.2-0.8-0.3c-0.2-0.1-0.5-0.2-0.5-0.2c0,0-0.1,0-0.2,0c0,0,0,0.1,0,0.1c0.1,0.2,0.9,0.6,1.1,0.6	c0.3,0,1.2,0.2,1.4,0.5c0.1,0.1,0.2,0.2,0.3,0.1c0.1,0,0.1-0.1,0.1-0.2c0,0,0-0.1,0-0.1c0,0,0,0,0,0c0-0.1-0.1-0.2-0.1-0.4	C27.8,38,27.8,38,27.7,37.9z" class="st0"/><path d="M28.7,41.1c-0.1,0-0.3,0-0.3,0.1c0,0,0,0,0,0.1l0,0.1c0,0.1,0.1,0.3,0.3,0.3c0.1,0,0.2,0,0.3,0	C28.9,41.4,28.8,41.2,28.7,41.1C28.7,41,28.7,41,28.7,41.1z" class="st0"/><path d="M26.5,22.7c-0.1,0.1,0.1,0.2,0.2,0.4c0.1,0,0.2-0.1,0.3-0.1C26.9,22.9,26.6,22.6,26.5,22.7z" class="st0"/><path d="M26.9,22.5c-0.1,0.1,0.2,0.3,0.4,0.4c0,0,0,0,0,0c0.1,0,0.1-0.1,0.2-0.1C27.3,22.7,27,22.4,26.9,22.5z" class="st0"/><path d="M37,40.3C37,40.3,37,40.3,37,40.3C37,40.3,37,40.3,37,40.3C37,40.3,37,40.3,37,40.3z" class="st0"/><path d="M35.4,25.8C35.4,25.8,35.3,25.8,35.4,25.8c-0.1,0-0.1,0-0.1,0l-0.1,0l0,0c0.1,0.1,0.2,0.3,0.4,0.5l0.1,0	c-0.1-0.1-0.1-0.2-0.2-0.3c0,0,0,0,0,0C35.5,25.9,35.4,25.9,35.4,25.8z" class="st0"/><path d="M42.8,30.7l-0.1-0.2c-0.4-1.1-0.9-1.9-1.7-2.3c-0.1,0-0.1-0.1-0.2-0.1l0,0l0,0c-0.1,0-0.1,0.1-0.2,0.1	c0,0,0,0,0,0.1c0,0,0,0,0,0c0,0,0,0,0,0l0,0l0,0c-0.1,0-0.1,0-0.2,0l0,0.1c0.9,0.3,1.6,1,2.1,2.3l0.2,0.4l0-0.1c0,0,0.1-0.1,0.1-0.2	C42.8,30.8,42.8,30.8,42.8,30.7L42.8,30.7z" class="st0"/><path d="M35.8,26.5L35.8,26.5l0.2,0.3c0.1,0.2,0.2,0.3,0.4,0.4c0.1,0.1,0.1,0.1,0.2,0.2l0.1,0.1l0-0.1c0,0,0,0,0-0.1	c-0.1-0.2-0.1-0.3-0.1-0.3c0,0,0,0,0-0.1c0,0,0,0,0,0v0h0c0,0,0,0,0,0v0c0,0,0,0,0,0c0,0,0.1,0.1,0.1,0.1c0,0,0.1,0.1,0.1,0.2	c0.1,0.1,0.1,0.1,0.2,0.1c0,0,0.1,0,0.1,0.1c0,0,0,0,0,0.1c0,0,0,0,0,0c0,0,0,0.1,0,0.1c0,0,0,0.1,0,0.1l0,0l0,0	c0.4,0.2,1,0.4,1.7,0.4h0l0,0l0,0c0,0,0-0.1,0-0.1c0,0,0,0,0,0c0,0,0,0,0,0c0,0-0.1-0.1-0.2-0.1c-0.3,0-0.5-0.2-0.5-0.2l0,0l0,0	c-0.6-0.1-1-0.4-1.4-0.7c-0.1-0.1-0.2-0.2-0.2-0.2l-0.2-0.3c0,0,0-0.1-0.1-0.2l0,0l0,0h0c0,0,0,0,0,0c0,0,0,0,0,0.1	c0,0,0,0.1-0.1,0.2C35.8,26.4,35.8,26.5,35.8,26.5z" class="st0"/><path d="M34.9,25.3C34.9,25.3,34.9,25.3,34.9,25.3L34.9,25.3c0,0.2,0.2,0.3,0.3,0.5l0.1,0c0,0,0-0.1-0.1-0.1	C35.1,25.5,35,25.3,34.9,25.3z" class="st0"/><path d="M29.6,23.6L29.6,23.6C29.6,23.5,29.6,23.5,29.6,23.6C29.6,23.6,29.5,23.6,29.6,23.6	C29.5,23.7,29.6,23.7,29.6,23.6C29.6,23.7,29.6,23.6,29.6,23.6C29.6,23.6,29.6,23.6,29.6,23.6z" class="st0"/><path d="M43.3,39.4C43.3,39.4,43.3,39.4,43.3,39.4C43.3,39.4,43.3,39.4,43.3,39.4C43.3,39.4,43.3,39.4,43.3,39.4	c-0.1-0.1-0.2-0.1-0.3-0.1c0,0-0.1,0-0.1,0c-0.1,0.1-0.1,0.2-0.1,0.3c0,0.1,0.1,0.2,0.2,0.3c0-0.1-0.1-0.2-0.1-0.3	c0-0.1,0-0.1,0-0.2c0-0.1,0-0.1,0-0.2c0,0,0.1-0.1,0.2-0.1c0,0,0.1,0,0.1,0C43.1,39.3,43.1,39.3,43.3,39.4	C43.2,39.3,43.2,39.3,43.3,39.4C43.2,39.3,43.2,39.3,43.3,39.4C43.2,39.3,43.2,39.3,43.3,39.4z" class="st0"/><path d="M38,31.2C38,31.2,38,31.2,38,31.2C38,31.2,38,31.2,38,31.2C38,31.2,38,31.2,38,31.2z" class="st0"/><path d="M35.7,29.1c-0.6-0.3-0.9-0.6-0.9-0.7c0-0.3-0.4-0.5-0.5-0.5l-0.1,0l0.1,0.1c0.4,0.6,0.9,1.1,1.4,1.4	c0.1,0.1,0.3,0.2,0.4,0.3l0.1-0.1C36,29.4,35.9,29.1,35.7,29.1z" class="st0"/><path d="M33.4,26.3c0.1,0,0.1,0,0.2,0.1l0,0.1c0.6,0.9,0.9,1.3,1.1,1.3c0,0,0,0,0,0l0,0l0.1,0l0-0.1	c-0.1-0.2-0.3-0.4-0.4-0.7c-0.4-0.8-0.8-1.2-1.4-1.2c-0.5,0-1-0.1-1.5-0.3l0,0l0,0c0,0,0,0.1,0,0.1c0,0.1,0.1,0.1,0.2,0.2	c0.2,0.1,0.2,0.2,0.2,0.3v0l0,0c0.3,0.1,0.4,0.3,0.5,0.5l0,0.1l0-0.1c0.1-0.2,0.1-0.4,0.3-0.4c0,0,0.1,0,0.1,0c0,0,0,0,0,0	c0,0,0.1,0,0.1,0c0.1,0,0.1,0.1,0.2,0.1c0,0,0.1,0,0.1,0c0,0,0,0,0,0C33.3,26.3,33.3,26.3,33.4,26.3z" class="st0"/><path d="M32.8,27.7c-0.1,0-0.1,0-0.3,0.2c-0.1,0.2-0.2,0.5-0.1,0.7c0,0,0.1,0.1,0.1,0.1h0l0,0c0.2-0.3,0.3-0.6,0.4-0.9	l0,0L32.8,27.7C32.8,27.8,32.8,27.7,32.8,27.7z" class="st0"/><path d="M32.9,26.6c0,0-0.1,0-0.1,0c-0.2,0.1-0.2,0.3-0.2,0.5c0.1,0.4,0.2,0.5,0.3,0.5c0,0,0,0,0,0h0l0,0	c0-0.2,0-0.3,0-0.4c0-0.2,0.1-0.3,0.2-0.4l0,0l0,0C33,26.6,33,26.6,32.9,26.6z" class="st0"/><path d="M37.2,31.4L37.2,31.4l-0.1,0.2c0,0.5-0.2,0.9-0.5,1.3l0.1,0.1c0.4-0.3,0.4-0.4,0.4-0.4c0,0,0-0.1,0.1-0.2l0,0	c0.1-0.2,0.2-0.4,0.2-0.7c0,0,0,0,0,0C37.4,31.5,37.3,31.4,37.2,31.4z" class="st0"/><path d="M44.6,43.6C44.6,43.6,44.6,43.6,44.6,43.6c0,0.1,0,0.1,0,0.1c0,0,0,0,0,0c0,0,0,0,0,0	C44.6,43.7,44.6,43.7,44.6,43.6C44.6,43.6,44.6,43.6,44.6,43.6z" class="st0"/><path d="M46.1,43.1C46.1,43.1,46,43.1,46.1,43.1C46,43.1,46,43.1,46.1,43.1C46,43.1,46,43.1,46.1,43.1	C46.1,43.1,46.1,43.1,46.1,43.1c0,0,0-0.1,0-0.1c0,0,0-0.1,0-0.1c0,0,0,0,0,0.1C46.1,43,46.1,43,46.1,43.1z" class="st0"/><path d="M44.5,43.8C44.5,43.8,44.5,43.8,44.5,43.8C44.5,43.8,44.5,43.8,44.5,43.8C44.6,43.8,44.6,43.8,44.5,43.8	C44.6,43.8,44.6,43.8,44.5,43.8C44.5,43.8,44.5,43.8,44.5,43.8C44.5,43.8,44.5,43.8,44.5,43.8C44.5,43.8,44.5,43.8,44.5,43.8	C44.5,43.8,44.5,43.8,44.5,43.8C44.5,43.8,44.5,43.8,44.5,43.8z" class="st0"/><path d="M39.4,31.1c-0.3-0.2-0.7-0.3-1.1-0.4h0h0c-0.2,0-0.3,0.2-0.3,0.2L38,31l0.1,0c0,0,0.1,0,0.1,0s0.1,0,0.2,0	c0.4,0.1,0.8,0.2,1.1,0.4l0,0c0.3,0.2,0.6,0.4,0.8,0.7l0.1,0c-0.2-0.4-0.4-0.7-0.7-0.9l0,0l0,0.1l0,0.1l0-0.1	C39.5,31.2,39.5,31.2,39.4,31.1L39.4,31.1L39.4,31.1z" class="st0"/><path d="M39.5,31.2L39.5,31.2C39.5,31.2,39.5,31.2,39.5,31.2L39.5,31.2L39.5,31.2L39.5,31.2	C39.5,31.2,39.5,31.2,39.5,31.2z" class="st0"/><path d="M37.1,31.2l0.1-0.1c0.1,0,0.1-0.1,0.1-0.1c0-0.1,0-0.2-0.1-0.4c0-0.1-0.1-0.1-0.1-0.2c0-0.1,0-0.3,0-0.4l0,0	l0,0c-0.4-0.7-0.9-1-1.4-1.3c-0.3-0.2-0.5-0.4-0.8-0.7l-0.1-0.1v0.1c0,0.1,0,0.3,0.1,0.4c0,0,0.1,0.1,0.3,0.2l0,0	c0.2,0.2,0.6,0.4,0.8,0.6c0.4,0.3,0.4,0.4,0.4,0.5c0,0.1-0.1,0.1-0.1,0.1l0,0l0,0C36.8,30.3,37,30.7,37.1,31.2L37.1,31.2z" class="st0"/><path d="M30.2,33L30.2,33c-0.1,0.1-0.1,0.1-0.2,0.1l-0.1,0l0,0.1c0.2,0.7,0.6,1.4,1,1.9l0.1,0.1l0.1,0l0,0	c-0.4-0.6-0.8-1.4-0.9-1.9L30.2,33z" class="st0"/><path d="M38.3,41.8L38.3,41.8c0-0.1-0.2-0.5-0.2-0.5c-0.1-0.3-0.2-0.7-0.4-0.9l0-0.1l0,0.1c0,0,0,0-0.1,0	c0,0-0.1,0-0.2,0l-0.1,0l0.1,0.1c0.4,0.4,0.7,1.1,0.9,1.5l0.1,0.1c0.2,0.4,0.5,0.6,0.7,0.7l0-0.1C38.7,42.4,38.5,42.2,38.3,41.8z" class="st0"/><path d="M31.7,28.9c-0.4,0.4-0.8,0.8-1.1,1.2l0,0l0,0c0.1,0.1,0.1,0.2,0.2,0.3v0v0c0,0,0,0,0,0.1l0.1,0	c0.3-0.4,0.6-0.8,0.9-1.1l0,0v0c0-0.1,0-0.2,0.1-0.3c0-0.1,0.1-0.2,0.1-0.3l0-0.1l-0.1,0.1C31.8,28.8,31.8,28.9,31.7,28.9z" class="st0"/><path d="M29.4,32.8l0.1,0l0,0c0-0.1,0.1-0.2,0.2-0.3c0,0,0.1,0,0.1,0c0.1,0,0.2,0.1,0.2,0.1l0.1,0.1l0-0.1	c0-0.1,0-0.3,0.1-0.4l0,0l0,0c0,0,0,0-0.1,0c-0.1,0-0.1,0-0.2,0c0,0-0.1,0-0.1,0c0,0-0.1,0-0.1,0c-0.2,0.1-0.4,0.2-0.4,0.3	c0,0.1-0.3,0.2-0.4,0.3c-0.1,0-0.2,0.1-0.3,0.1l-0.1,0.1l0,0.1C28.8,32.9,29.2,32.8,29.4,32.8C29.4,32.8,29.4,32.8,29.4,32.8z" class="st0"/><polygon points="30.3 32.1 30.3 32.1 30.3 32.1" class="st0"/><path d="M36.3,39.3C36.3,39.3,36.3,39.3,36.3,39.3c0-0.1-0.1-0.1-0.2-0.2C36.2,39.1,36.3,39.2,36.3,39.3z" class="st0"/><path d="M36.5,40.3C36.5,40.3,36.5,40.2,36.5,40.3C36.5,40.2,36.5,40.3,36.5,40.3C36.5,40.3,36.5,40.3,36.5,40.3z" class="st0"/><path d="M35.9,39.5c0.1,0.2,0.2,0.4,0.3,0.6c0,0.3,0,0.5-0.1,0.8c-0.4,0.7-0.5,1.4-0.4,2.1c0,0.2,0.1,0.4,0.2,0.6l0.1,0	c0-0.1,0-0.1-0.1-0.2c-0.1-0.7,0-1.4,0.2-1.9c0.1-0.2,0.2-0.4,0.2-0.5l0.1-0.1c0,0,0-0.1,0.1-0.3c0,0,0.1-0.1,0.1-0.2	c0,0-0.1,0-0.1,0l0,0l0,0c0,0,0-0.1-0.1-0.2c0-0.2-0.1-0.4-0.1-0.5c0-0.1,0-0.2,0-0.2c0,0,0,0,0-0.1c0-0.1-0.3-0.3-0.5-0.4	c-0.1,0-0.1-0.1-0.2-0.1c0,0-0.1-0.1-0.1-0.1l-0.1,0C35.6,39,35.7,39.3,35.9,39.5z" class="st0"/><path d="M34.4,36.2L34.4,36.2L34.4,36.2c0,0.2,0,0.3,0,0.4c0,0.2,0.1,0.5,0.2,0.8h0l0.1,0c0.1,0,0.1,0,0.1,0	c0.1-0.1,0-0.4-0.1-0.7l0-0.1c0-0.1,0-0.2,0-0.2c0-0.1,0-0.1-0.1-0.2C34.6,36.2,34.5,36.2,34.4,36.2z" class="st0"/><path d="M36.4,40.1c0-0.1-0.1-0.4-0.1-0.5c0,0,0-0.1,0-0.1c0,0,0,0.1,0,0.1C36.3,39.7,36.4,39.9,36.4,40.1z" class="st0"/><path d="M35.3,34c-0.4,0.4-0.7,0.8-0.8,1.3l0,0.1l0.1,0c0,0,0.1,0,0.1,0c0,0,0.1,0,0.1,0c0.2-0.1,0.4-0.7,0.6-1l0.1-0.2	C35.4,34.2,35.4,34.1,35.3,34C35.4,34,35.4,34,35.3,34L35.3,34L35.3,34L35.3,34z" class="st0"/><path d="M23,27.2l0.3,0.1c0.4,0.3,1.2,0.7,1.5,0.7c0.3,0,0.3,0,0.3-0.1c0,0,0-0.1-0.2-0.1c-0.2-0.1-1.6-0.7-1.7-0.8	C23.1,27,23.1,27,23,27c0,0-0.1,0-0.1,0.1C22.9,27.1,22.9,27.2,23,27.2z" class="st0"/><path d="M22.1,40.7L22.1,40.7c0.2,0.1,0.3,0.1,0.4,0c0-0.1,0-0.2-0.1-0.2c-0.2-0.1-1-0.3-1.1-0.2c0,0,0,0,0,0.1	c0,0.2,0.1,0.3,0.5,0.3C21.9,40.5,22,40.6,22.1,40.7z" class="st0"/><path d="M23.5,41.4c-0.3-0.1-1.4-0.5-1.6-0.6c-0.2-0.1-0.3,0-0.1,0.1c0.1,0.1,1.4,0.5,1.5,0.5	C23.4,41.5,23.7,41.5,23.5,41.4z" class="st0"/><path d="M22.3,41.3c-0.1,0-0.3-0.1-0.5-0.1c-0.1,0-0.2,0-0.2,0c0,0,0,0.1,0.1,0.1c0.1,0.1,0.2,0.1,0.4,0.2	c0.1,0,0.2,0.1,0.2,0.1c0,0,0.1,0,0.1,0c0.1,0,0.1-0.1,0.1-0.2C22.4,41.4,22.4,41.4,22.3,41.3z" class="st0"/><path d="M23.6,41.7c-0.2,0-0.3,0-0.4,0c-0.1,0-0.2,0-0.2,0.1c0,0.1,0,0.1,0.1,0.2c0.3,0.2,0.4,0.1,0.5,0.1	c0,0,0.1-0.2,0-0.2C23.7,41.7,23.6,41.7,23.6,41.7z" class="st0"/><path d="M27.7,44.7c0,0,0.1-0.1,0.1-0.1c0-0.1-0.1-0.1-0.2-0.2c0,0-0.1-0.1-0.1-0.1c0,0-0.1-0.1-0.1-0.1	c-0.1,0-0.1,0.1-0.1,0.2c0,0,0,0.1,0,0.1c0,0.1,0,0.2,0.1,0.2C27.5,44.8,27.7,44.8,27.7,44.7z" class="st0"/><path d="M27.3,45.1c0.2,0,0.5-0.3,0.3-0.2c-0.2,0-1.3-0.5-1.6-0.6c0,0-0.1,0-0.2-0.1c0,0,0,0,0,0c0.2-0.1,0.7,0.1,1,0.2	c0.2,0.1,0.3,0,0.3,0c0-0.1,0-0.1,0-0.2c-0.1-0.1-1.2-0.5-1.3-0.5l-0.1,0c-0.2,0-0.4,0-0.5-0.2c0,0-0.1-0.1-0.2-0.1	c-0.1,0-0.2,0-0.2,0.1c0,0,0,0,0,0.1c0,0,0,0,0.1,0.1c0.1,0.1,0.2,0.1,0.4,0.2c0.1,0,0.2,0.1,0.2,0.1c0,0,0,0,0,0c0,0,0,0,0,0	c-0.4-0.2-1.1-0.3-1.3-0.4c-0.2-0.2-0.3,0.1-0.2,0.2c0.1,0.1,1.5,0.6,2.1,0.9C26.7,44.9,27.1,45.1,27.3,45.1z" class="st0"/><path d="M26.3,46C26.4,46,26.4,46,26.3,46c0.1-0.1,0.1-0.2,0-0.3c0,0-0.2-0.1-0.4-0.2c-0.2-0.1-0.5-0.2-0.6-0.3	c0-0.1-0.2-0.2-0.3-0.2c-0.1,0-0.1,0.1-0.1,0.1c0,0.1,0.2,0.3,0.5,0.4c0.3,0.1,0.6,0.2,0.7,0.3C26.2,46,26.3,46,26.3,46z" class="st0"/><path d="M20.7,31.2c0.2,0.1,1.1,0.3,1.1,0.4c0,0.1,0.5,0.2,1.2,0.5c0.2,0,0.3,0.1,0.4,0.1c0,0,0.1,0,0.1,0	c0,0,0,0,0-0.1c0,0-0.1-0.1-0.1-0.2l-0.4-0.1c-0.5-0.2-1.5-0.6-1.6-0.6c0,0-0.1,0-0.3-0.1c-0.2-0.1-0.4-0.1-0.4-0.2c0,0-0.1,0-0.2,0	c0,0-0.1,0.1-0.1,0.1C20.6,31.2,20.6,31.2,20.7,31.2z" class="st0"/><path d="M21.2,33.8c0.1,0,0.3,0.1,0.3,0c0,0,0,0,0-0.1c0,0,0,0,0-0.1c0.1,0,0.2,0.1,0.5,0.2c0.2,0.1,0.4,0.2,0.7,0.2	c0.3,0.1,0.7,0.2,0.9,0.4c0.2,0.1,0.9,0.4,1.6,0.6c0.7,0.2,1.4,0.5,1.5,0.6c0.1,0.1,0.1,0.1,0.2,0.1c0,0,0.1-0.1,0.1-0.1	c0-0.1,0-0.2-0.2-0.3c-0.1-0.1-0.6-0.3-1.2-0.4c-0.6-0.2-1.2-0.4-1.4-0.5c-0.2-0.1-0.7-0.3-1.3-0.5c-0.7-0.3-1.8-0.6-1.8-0.7	c0-0.1-0.1-0.1-0.2-0.1c-0.1,0-0.2,0.1-0.2,0.1c0,0,0,0.1,0,0.1c0.1,0,0.1,0.1,0.1,0.1c0,0-0.1,0.1-0.1,0.1c0,0-0.1,0-0.1,0	c0,0,0,0.1,0.3,0.1C21,33.7,21.2,33.8,21.2,33.8z" class="st0"/><path d="M21.6,31.2c0.2,0,1.2,0.5,1.8,0.7l0.4,0.2c0.2,0.1,0.6,0.2,0.7,0.1c0,0,0,0,0-0.1c0-0.1-0.2-0.2-0.4-0.3	c-0.2,0-3-1.1-3.1-1.2c-0.1-0.1-0.2-0.1-0.3,0c0,0,0,0.1,0,0.2C20.8,30.9,21.4,31.2,21.6,31.2z" class="st0"/><path d="M21.8,39.8C21.9,39.8,21.9,39.8,21.8,39.8l0.1-0.1c0,0,0.1-0.1,0-0.1c0,0-0.1-0.1-0.2-0.1l-0.2,0	c-0.2,0-0.6-0.1-0.6-0.2c0,0,0-0.1-0.1-0.1c-0.1,0-0.1,0.1-0.1,0.1c0,0.1,0,0.1,0,0.2c0.1,0.1,0.2,0.1,0.3,0.1c0.1,0,0.3,0,0.3,0.1	C21.6,39.8,21.8,39.9,21.8,39.8z" class="st0"/><path d="M21.1,38.8C21.1,38.7,21,38.7,21.1,38.8c-0.1,0-0.1,0-0.2,0.1c0,0.1,0,0.2,0.1,0.2c0,0,0.2,0,0.3,0.1	c0.2,0,0.4,0.1,0.5,0.1c0.1,0.1,0.1,0.1,0.2,0c0,0,0.1-0.1,0-0.2c0-0.1-0.3-0.1-0.5-0.2C21.3,38.9,21.1,38.8,21.1,38.8z" class="st0"/><path d="M21.8,38.9c0.2,0.1,0.3,0.1,0.4,0c0,0,0.1-0.1,0.1-0.1c0-0.1-0.1-0.1-0.2-0.1c0,0-0.1,0-0.2,0	c-0.1,0-0.2-0.1-0.4-0.1c-0.3-0.1-0.7-0.2-0.8-0.3c0,0-0.1,0-0.1,0c0,0-0.1,0-0.1,0.1c0,0,0,0.1,0.1,0.2c0.1,0.1,0.5,0.3,0.8,0.4	C21.6,38.8,21.7,38.8,21.8,38.9z" class="st0"/><path d="M27.2,45.4c-0.2,0-2.3-0.9-2.5-1c-0.3-0.2-0.4,0.1-0.2,0.3c0.2,0.1,2.3,0.9,2.5,1	C27.4,45.6,27.4,45.4,27.2,45.4z" class="st0"/><path d="M30.6,44.9C30.6,44.9,30.6,44.9,30.6,44.9c0-0.1,0-0.2-0.1-0.2c0,0-0.2-0.1-0.4-0.2c0.2,0.1,0.3,0.1,0.4,0	c0.1,0,0.1-0.1,0.1-0.1c0-0.1-0.3-0.2-0.4-0.2c-0.2-0.1-1.5-0.5-1.8-0.7c-0.1,0-0.2-0.1-0.2-0.1c-0.2-0.1-0.4-0.2-0.6-0.2	c-0.2,0-0.4,0-0.5-0.1l-0.2-0.1L26.6,43c-0.4-0.1-1.2-0.3-1.3-0.5c-0.1-0.1-0.2-0.2-0.3-0.2c0,0-0.1,0.1-0.1,0.2c0,0,0,0,0,0	c0,0.2,0.2,0.5,0.4,0.5c0.2,0,1.9,0.6,1.9,0.6c0,0,0.1,0.1,0.1,0.1c-0.1,0-0.5-0.2-0.9-0.3c-0.4-0.1-0.9-0.3-1-0.3	c-0.1,0-0.3,0-0.4,0.1c0,0,0,0.1,0.1,0.1c0.1,0,0.5,0.2,1,0.4c0.4,0.2,0.9,0.3,1,0.4c0.1,0,0.4,0.1,0.7,0.2c0.5,0.1,1.1,0.3,1.2,0.4	c0.1,0.1,0.5,0.2,0.8,0.3c0.2,0,0.4,0.1,0.5,0.1C30.5,45.1,30.6,45,30.6,44.9z M29.4,44.4c-0.3-0.1-1.7-0.5-1.7-0.6c0,0,0,0,0,0	c0,0,0,0,0,0c0,0,0,0,0.1,0c0.1,0,0.3,0.1,0.6,0.2C28.9,44.1,29.4,44.3,29.4,44.4c0.1,0,0.3,0.1,0.5,0.2	C29.8,44.5,29.6,44.4,29.4,44.4z" class="st0"/><path d="M23.6,37.2C23.7,37.2,23.7,37.2,23.6,37.2c0.1,0.1,0.1,0.1,0.2,0.1c0,0,0.1,0,0.1-0.1c0,0,0-0.1,0-0.1	c-0.1-0.1-0.2-0.1-0.3-0.1l-0.1,0c-0.1,0-0.1,0-0.2,0c0,0,0,0.1,0,0.2C23.5,37.1,23.6,37.1,23.6,37.2z" class="st0"/><path d="M28.9,46c0.1,0,0.2,0,0.3,0c0,0,0-0.1,0-0.1c-0.1-0.1-0.2-0.1-0.4-0.2c-0.1,0-0.2,0-0.2,0c0,0,0,0,0,0.1	C28.6,45.9,28.7,45.9,28.9,46C28.8,46,28.9,46,28.9,46z" class="st0"/><path d="M30,45.1c0,0-0.1,0-0.2-0.1c-0.1,0-0.5-0.1-0.5-0.2c0,0,0-0.1-0.1-0.1c0,0-0.1,0-0.1,0.1c0,0-0.1,0.1,0,0.2	c0,0.1,0.2,0.1,0.4,0.2l0,0c0,0,0.1,0,0.1,0.1c0.1,0.1,0.2,0.1,0.3,0.1C30,45.4,30.1,45.3,30,45.1C30.1,45.2,30.1,45.2,30,45.1z" class="st0"/><path d="M28,46.6c-0.3-0.1-0.5,0-0.3,0.2c0.2,0.1,1.3,0.7,1.5,0.7c0.1,0,0.2-0.3,0.1-0.3C29.1,47.1,28.1,46.6,28,46.6z" class="st0"/><path d="M28.2,45.7C28.2,45.7,28.3,45.7,28.2,45.7c0.1,0,0.2,0,0.2-0.1c0,0,0-0.1,0-0.1c-0.1-0.1-0.2-0.1-0.3-0.1	l-0.1,0c-0.1,0-0.1,0-0.2,0c0,0.1,0,0.1,0,0.2C27.9,45.6,28,45.6,28.2,45.7C28.1,45.7,28.2,45.7,28.2,45.7z" class="st0"/><path d="M27.6,47.3c-0.1,0-0.2,0-0.2,0c0,0,0,0,0,0.1c0.1,0.1,0.1,0.1,0.2,0.2c0,0,0.1,0,0.1,0.1c0.1,0.1,0.2,0,0.3,0	c0,0,0-0.1,0-0.1C27.9,47.4,27.7,47.4,27.6,47.3z" class="st0"/><path d="M21.4,30.2c0.3,0.1,0.6,0.2,0.6,0.3v0c0,0.1,0.3,0.2,0.4,0.2c0.1,0,1.7,0.6,1.9,0.7c0.1,0.1,0.4,0,0.4,0	c0,0,0-0.1,0-0.1c0,0-0.1-0.1-0.1-0.1c-0.2-0.1-2-0.7-2.1-0.8c0,0-0.3-0.1-0.6-0.3c-0.4-0.2-0.8-0.3-0.9-0.4	c-0.1-0.1-0.2-0.1-0.3-0.1c-0.1,0-0.1,0.1-0.1,0.1c0,0,0,0,0,0.1c0,0,0,0.1,0,0.1C20.8,30,21.1,30.1,21.4,30.2z" class="st0"/><path d="M25.9,46.4c-0.3-0.1-0.5,0-0.3,0.1s1.1,0.9,1.3,0.9c0.2,0,0.2-0.3,0.1-0.3C26.8,47.1,26,46.4,25.9,46.4z" class="st0"/><path d="M26.9,46.2l-0.1,0c-0.1,0-0.1,0-0.2,0c0,0.1,0,0.1,0,0.2c0.1,0.1,0.2,0.1,0.3,0.2c0,0,0.1,0,0.1,0	c0,0,0,0,0.1,0c0,0,0.1,0,0.1-0.1c0,0,0-0.1,0-0.1C27.1,46.2,27,46.2,26.9,46.2z" class="st0"/><path d="M29.1,47.8c0,0-0.1,0-0.2-0.1c-0.1,0-0.5-0.1-0.5-0.2c0,0,0-0.1-0.1-0.1c0,0-0.1,0-0.1,0.1c0,0-0.1,0.1,0,0.2	c0,0.1,0.2,0.1,0.4,0.2l0,0c0,0,0.1,0,0.1,0.1c0.1,0.1,0.2,0.1,0.3,0.1c0.1,0,0.2-0.1,0.2-0.2C29.2,47.9,29.2,47.9,29.1,47.8z" class="st0"/><path d="M32.5,2.5c-16.5,0-30,13.4-30,30c0,16.5,13.4,30,30,30c16.5,0,30-13.4,30-30C62.4,15.9,49,2.5,32.5,2.5z M32.5,61.6c-16.1,0-29.1-13-29.1-29.1c0-16.1,13-29.1,29.1-29.1c16.1,0,29.1,13,29.1,29.1C61.6,48.6,48.6,61.6,32.5,61.6z" class="st0"/><path d="M32.4,11.1C20.6,11.1,11,20.7,11,32.5s9.6,21.4,21.4,21.4s21.4-9.6,21.4-21.4C53.8,20.7,44.2,11.1,32.4,11.1z M32.6,13.6c0.1-0.1,0.3-0.1,0.2,0.1c0,0.1,0,0.1-0.1,0.1C32.7,13.7,32.6,13.7,32.6,13.6z M32.4,12.3c0,0.2,0.1,0.3,0.2,0.4	c0,0.1,0,0.1-0.1,0.1c-0.1,0-0.1-0.2-0.1-0.4C32.3,12.3,32.4,12.2,32.4,12.3z M27.5,12.3c0.2,0,0.3,0.1,0.4,0.1	c0.2,0,0.1,0.2-0.1,0.2c-0.1,0-0.4-0.1-0.6-0.2C27.3,12.4,27.4,12.3,27.5,12.3z M27.5,14.7c0.1,0,0.3-0.1,0.4,0	C28,14.8,27.8,14.9,27.5,14.7C27.4,14.7,27.4,14.7,27.5,14.7z M27.3,14c-0.1-0.1,0.1-0.2,0.1-0.1c0,0.1,0.3,0,0.3,0l0,0.1	C27.7,14,27.4,14,27.3,14z M27,12.9c0,0.1,0.4,0.1,0.5,0.1c0.1,0,0.1,0.1,0,0.2c-0.2,0-0.4-0.1-0.5-0.1C26.8,12.9,26.9,12.8,27,12.9	z M27,15.8c0.1,0.1,0.1,0.2,0.1,0.2s0.1,0.3,0,0.3c-0.1,0-0.3-0.1-0.1-0.3C27.1,15.9,26.9,15.7,27,15.8z M25.9,12.7	c0.1,0,0.1,0.1-0.1,0.1c0,0-0.1,0-0.1,0C25.8,12.8,25.9,12.8,25.9,12.7z M25.2,13c0.4,0.2,0.9,0.4,1.1,0.5c0.2,0.1,0.4,0.2,0.1,0.1	c-0.3,0-1.1-0.3-1.6-0.4C25,13.1,25.1,13,25.2,13z M22.2,50.7C22.2,50.7,22.2,50.6,22.2,50.7c0-0.1,0-0.1,0-0.1	c-0.2-0.2-0.4-0.6-0.6-0.9c0,0-0.1-0.1-0.1-0.1c-0.1,0-0.2,0.3-0.2,0.5c0,0,0,0.1,0.1,0.1c-0.1,0-0.1-0.1-0.2-0.1c0,0-0.1,0-0.1,0	c-0.4-0.3-0.9-0.6-1.3-0.9c0.2-0.1,0.4-0.2,0.6-0.2c0.2,0,0.4-0.1,0.7-0.2c0.2-0.1,0.3,0,0.5,0c0.2,0.1,0.3,0.3,0.3,0.5	c0,0,0,0,0,0.1c0,0,0,0,0,0c0.1,0.3,0.4,0.7,0.5,0.8s0.2,0.4,0.3,0.6c0,0.1,0,0.1,0,0.2C22.6,50.9,22.4,50.8,22.2,50.7z M21.4,45.4	c0.2,0.1,0.2,0.1,0.3,0.2c0,0.1,0,0.2-0.3,0C21.1,45.6,21.3,45.4,21.4,45.4z M34.5,51c-0.2,0,0-0.1-0.1-0.3c-0.1-0.1,0-0.2,0.1-0.3	c0,0,0.2,0.1,0.2,0.2C34.7,50.8,34.7,51.1,34.5,51z M35,51.3c-0.1,0-0.2-0.3-0.2-0.5c0-0.1,0.1,0.1,0.2,0.3	C35.1,51.3,35.2,51.3,35,51.3z M46.2,46.4c-0.7,1.1-1.8,2.1-3.3,2.8c-1.6,0.7-3.6,1.1-5.7,1c-0.6,0.1-1.1,0.1-1.7,0l-0.2,0l0.6,2.8	c-0.1,0-0.1,0-0.2,0c-0.3-1.3-0.6-2.8-0.6-2.9c0,0-0.1,0-0.1,0c-0.4,0-0.8,0-1.2,0.1c0,0.2,0,0.5,0.1,0.6c0.1,0.1,0.3,0.6,0.1,0.5	c-0.2,0-0.4-0.5-0.5-0.5c-0.1,0-0.1,0.3-0.1,0.4c0,0.1-0.1,0.3-0.4,0.2s-0.8,0.2-0.7,0.3c0.1,0.1,0.2,0.3,0.1,0.3	c-0.1,0-0.6,0-0.6,0.2c0.1,0.2,0.8-0.1,1-0.1s0.8,0,0.9-0.1c0.1,0,0.2,0.1,0,0.2c-0.2,0-1.2,0.2-1.2,0.2s-0.4,0.2-0.5,0.2	c-0.1,0-0.2,0.2,0,0.2c0.2,0,0.3,0,0.4,0c0.1,0,0.1,0.2-0.1,0.2c-0.2,0-0.6,0.2-0.7,0.2c-0.1,0-0.1,0.1-0.1,0.2	c-0.6,0-1.1,0-1.7-0.1c-0.2-1.3-0.5-2.9-0.8-4c0,0,0,0,0,0c-2.4-0.9-4.5-2.4-6-4.3c0,0,0.1,0.1,0.1,0.1c0.1,1.8,0.2,4.4,0.2,6.4	c-0.1,0-0.1-0.1-0.2-0.1c0-0.4,0-0.9,0-1.4c0,0,0,0,0,0c-0.1-0.2-0.3-0.6-0.2-0.7c0.1-0.1,0-0.5,0.1-0.8c0.1-0.3-0.1-1.4-0.2-1.5	c-0.1-0.1,0.1-1.3-0.2-1.2c-0.3,0.1-1.2-0.2-1.4-0.5c-0.2-0.3-0.8-0.5-0.9-0.6c-0.1-0.1-0.3,0.1-0.2,0.2c0.1,0.1,0.3,0.2,0.4,0.3	s-0.1,0.2-0.3,0s-0.3-0.1-0.5-0.2c-0.2-0.1-0.2,0.1-0.1,0.2c0.1,0.1,0.4,0.3,0.5,0.4c0.1,0.1,0.2,0.2,0,0.2s-0.3-0.2-0.5-0.4	c-0.2-0.1-0.1,0.3,0,0.4s0.2,0.2,0.3,0.3c0.1,0.1,0,0.2-0.1,0.1c-0.1-0.1-0.3-0.2-0.3-0.3c-0.1,0,0,0.2,0.1,0.3	c0.1,0.1,0.2,0.4,0.1,0.3c-0.1-0.1-0.2-0.2-0.3-0.3c-0.1,0-0.1,0.1,0,0.3c0.2,0.1,0.6,0.4,0.7,0.5c0.2,0.1,0.2,0.2,0,0.2	c-0.2-0.1-0.4-0.3-0.6-0.4c-0.2-0.1-0.3,0.1-0.1,0.2c0.1,0.1,0.5,0.4,0.6,0.5c0.1,0.1,0,0.2-0.1,0.1c-0.2-0.1-0.2-0.2-0.4-0.3	c-0.2-0.1-0.1,0.2,0,0.3c0.1,0.1,0.4,0.3,0.5,0.3c0.2,0,0.2,0.3,0,0.2c-0.2-0.1-0.4-0.2-0.6-0.3c-0.1-0.1-0.2,0.1-0.1,0.2	s0.2,0.2,0.3,0.3c0.1,0.1,0.2,0.2,0,0.2c-0.2-0.1-0.2-0.1-0.3-0.2c-0.1-0.1-0.1,0.1,0,0.2c0.1,0.1,0.2,0.1,0.3,0.2	c0.1,0.1,0.2,0.2,0,0.1c-0.2-0.1-0.2-0.2-0.3-0.1c-0.1,0.1-0.1,0.4,0,0.5c0,0,0,0,0,0.1c-0.1-0.1-0.2-0.2-0.4-0.3	c-0.1-2.4-0.2-6.2-0.4-10.1h0c-0.1,0-0.3-0.1-0.4-0.2c0,0,0-0.1-0.1-0.1c-1.4-1.7-1.7-4.1-1.1-5.9c0.3-0.9,0.4-1.6,0-3	c-0.3-1-0.1-1.7,0.3-2.2c0.2-0.2,0.4-0.4,0.7-0.4c-0.1-2.3-0.2-4.1-0.3-4.8c0-0.3,0.1-0.5,0.3-0.6c0.4-0.2,1-0.3,1.5-0.4	c0.4-0.1,0.6-0.2,0.8-0.6c0.1-0.3,0.2-0.5,0.3-0.7c0.3-0.9,1.2-0.9,1.4,0.1c0.3,2,0.2,4.1,0.3,5.9c0.2-0.2,0.5-0.3,0.7-0.4	c0-1.8,0.1-3.8,0.2-4.9c0-1.2,0-2.6,0-3.5c0-0.9,0.1-1.5,0.3-2.2c0.1-0.3,0.1-0.5,0.1-0.8c0,0,0-0.1,0-0.1c0.2-0.1,0.4-0.2,0.7-0.3	c0,0,0.1,0,0.1,0.1c0.3,0.1,1.4,0.5,1.7,0.6c0.3,0.1,0.3,0.2,0,0.2c-0.3,0-1.5-0.3-1.7-0.4c-0.2,0-0.1,0.2,0.2,0.3	c0.3,0.1,1.1,0.3,1.3,0.4c0.2,0,0.4,0.2,0,0.1c-0.4-0.1-0.3-0.1-0.8-0.1c-0.5,0-0.1,0.2,0,0.2c0.1,0.1,0.9,0.3,1.1,0.4	c0.3,0,0.4,0.2,0,0.1c-0.3-0.1-0.8-0.1-1.1-0.2c-0.3,0-0.6,0-0.3,0.1c0.3,0.1,1.4,0.3,1.6,0.4c0.2,0.1,0.2,0.2,0,0.2	c-0.3,0-1.4-0.5-1.7-0.5c-0.3,0-0.4,0-0.2,0.1c0.2,0.1,0.6,0.2,0.8,0.3c0.2,0.1,0.2,0.1,0,0.1c-0.2,0-0.8-0.2-1-0.2	c-0.2,0-0.3,0.1-0.2,0.2c0.1,0,0.8,0.3,1.1,0.4c0.3,0,0.3,0.2,0.1,0.2c-0.2-0.1-0.9-0.3-1.1-0.3c-0.2,0,0,0.3,0.1,0.3	c0.2,0,0.4,0.1,0.5,0.2c0.2,0-0.1,0-0.3,0.1c-0.2,0.1,0.1,0.2,0.4,0.2c0.3,0,0.5,0.1,0.6,0.2c0.2,0.1,0.3,0.2,0,0.1	c-0.3,0-0.8-0.1-1.1-0.2c-0.2-0.1-0.4,0-0.2,0.1c0.2,0.1,0.4,0.3,0.3,0.3c-0.1,0.1-0.2,0.2,0.1,0.3c0.3,0,0.7,0.1,0.8,0.2	s0.3,0.2,0,0.1c-0.3-0.1-0.6-0.1-0.7,0c-0.1,0-0.3,0,0,0.1c0.2,0.1,0.5,0.2,0.5,0.2s0.1,0.1-0.1,0.1c-0.2,0-0.6,0-0.5,0.1	c0.1,0.1-0.2,0.3,0.1,0.4c0.2,0.1,0.3,0.1,0.4,0.2c0.3-0.4,0.5-0.7,0.8-1.1c0,0,0-0.1,0-0.1c0-0.2-0.2-0.1-0.4-0.2	c-0.2-0.1-0.4,0-0.6-0.1c-0.2-0.1,0-0.1,0.1-0.1c0.2,0,0.5,0.2,0.6,0.2c0.1,0,0.4,0,0.6,0.1c0.3-0.3,0.6-0.5,0.8-0.8	c0.2-0.1,0.3-0.3,0.5-0.4c0-0.1,0-0.2,0.2-0.2c0.3-0.3,0.5-0.5,0.7-0.8c0,0,0-0.1,0-0.1c0-0.1,0.1-0.2,0.1-0.3c0-0.1,0.1,0,0.2,0	c0.1-0.1,0.1-0.2,0.2-0.3c0,0,0,0-0.1-0.1c-0.1,0,0-0.3,0-0.3c0,0,0.2,0,0.3,0c0,0,0-0.1,0.1-0.1c0,0-0.1,0-0.1-0.1	c-0.1,0,0-0.3,0.2-0.2c0,0,0,0,0.1,0c0-0.1,0.1-0.2,0.1-0.3c-0.1-0.1-0.3-0.2-0.4-0.2c-0.1-0.1,0-0.1,0.1-0.1c0,0,0.3,0,0.4,0	c0-0.1,0.1-0.1,0.1-0.2c-0.1-0.1-0.2-0.1-0.3-0.2c-0.1-0.1-0.5-0.1-0.6-0.2c-0.1-0.1,0.1-0.1,0.2-0.1c0.1,0,0.7,0.2,0.8,0.2	c0.1-0.1,0.1-0.3,0.2-0.4c0-0.1-0.2-0.1-0.4-0.1c-0.2,0-0.5-0.1-0.7-0.1c-0.2-0.1,0-0.1,0.1-0.1c0.1,0,0.5,0,0.7,0.1	c0.2,0,0.3,0.1,0.3,0.1c0,0,0,0,0-0.1c0,0,0-0.1,0-0.1c0,0,0-0.1-0.1-0.1c-0.1-0.1-0.3-0.1-0.5-0.1c0.3,0,0.7,0,1-0.1c0,0,0,0,0,0	c0.2,0,0.3,0.1,0.5,0.3c0.3,0.4,0.5,1.1,0.7,1.9c0,0.2,0.1,0.5,0.1,0.8c0,0.2,0,0.3,0,0.5c0.1,0,0.2,0.1,0.2-0.1c0-0.2,0-0.3,0-0.5	c0-0.1,0.1-0.4,0.1-0.2c0,0.2,0.1,0.4,0,0.6c0,0.2,0,0.7,0.1,0.9c0,0.2,0,0.3,0,0.5c0,0.3,0,0.4,0,0.5c0,0.1-0.1,0.2-0.1,0.1	c0-0.1-0.1-0.8,0-1c0-0.1,0-0.3-0.1-0.3c0,0-0.1,0-0.1,0c0,0.5,0,0.9,0,1.5c0,0,0,0,0,0c0.5-0.2,1.1-0.2,1.9,0	c0.3,0.1,0.6,0.1,0.9,0.1c0.2,0,0.4,0,0.5,0c0.1-1.4,0.2-2.9,0.2-4.1c0-0.5,0-0.9-0.1-1.3c0,0,0,0,0-0.1c0.1,0,0.1,0,0.2,0	c0.1,0.4,0.1,0.9,0.1,1.4c0,1.3-0.1,2.8-0.2,4.2c0.4,0.1,1,0.4,1.1,0.5c0.2,0.2,0.6,0.6,0.6,0.7s-0.2,0.4-0.4,0.2	c-0.2-0.2-1.2,0-1.5-0.1c-0.1,0.7-0.2,1.3-0.3,1.8c2.9-0.1,6.1,0.9,8.8,3.3c0.2,0.2,0.1,0.4-0.1,0.5c-0.6,0.2-0.9,0.8-0.4,1.9	c0.3,0.7,0.4,1.4,0.4,1.8c0,0.3,0.1,0.5,0.3,0.8c0.2,0.2,0.3,0.5,0.4,0.6c0.1,0.3-0.1,0.5-0.4,0.4c-0.9-0.5-2.1-1-2.1-1	c0.4,0.7,0.8,1.6,0.9,2.5c0.1,0.7,0.2,1.5,0,2.1c-0.1,0.9-0.3,1.7-0.1,2.5c0.3,1.9,1.4,3.6,2.5,5.3l0,0.1c0.4,0.6,0.6,1.2,0.7,1.8	C46.9,44.5,46.7,45.4,46.2,46.4z" class="st0"/><path d="M24.6,31.5c-0.3-0.1-1.6-0.5-1.8-0.7c-0.1,0-0.3-0.1-0.5-0.2c-0.4-0.1-1-0.4-1.1-0.4c-0.1-0.1-0.3-0.1-0.4-0.1	c0,0-0.1,0-0.1,0c0,0.1,0,0.1,0.1,0.1c0.2,0.1,0.8,0.4,1.3,0.6c0.2,0.1,0.4,0.2,0.5,0.2c0.2,0.1,1.5,0.6,1.8,0.7	c0.1,0,0.2,0,0.3-0.1c0,0,0.1-0.1,0-0.1C24.7,31.6,24.7,31.6,24.6,31.5z" class="st0"/><path d="M24.6,34.4c0.2,0.1,1.7,0.7,1.8,0.7c0.1,0,0.3-0.1,0.3-0.2c0-0.1-0.1-0.1-0.2-0.2c-0.4,0-1.8-0.6-1.9-0.7	C24.5,34,24.5,34,24.4,34c0,0,0,0,0,0.1C24.4,34.2,24.4,34.4,24.6,34.4z" class="st0"/><path d="M25.2,33.3c0.1,0,0.2,0.1,0.4,0.1c0.3,0.1,0.7,0.2,0.8,0.3s0.4,0,0.4-0.1c0,0,0-0.1-0.1-0.1	c-0.3-0.1-1.2-0.4-1.4-0.5c-0.1-0.1-0.2,0-0.2,0c0,0,0,0.1,0,0.1C25,33.2,25.1,33.3,25.2,33.3z" class="st0"/><path d="M24.9,33.7c0.2,0.1,0.7,0.3,1.1,0.4l0.3,0.1c0.1,0,0.2,0,0.3,0c0,0,0,0,0-0.1c0,0-0.1-0.1-0.2-0.1	c-0.1,0-0.3-0.1-0.4-0.2c-0.3-0.2-0.8-0.4-1-0.4c-0.2,0-0.3,0-0.3,0.1C24.8,33.6,24.8,33.7,24.9,33.7z" class="st0"/><path d="M24.9,34.1c0.2,0.1,1.1,0.4,1.4,0.5c0.1,0,0.3,0,0.3-0.1c0,0,0-0.1,0-0.1c0,0,0-0.1-0.2-0.1	c-0.2,0-1.4-0.4-1.5-0.5c-0.1,0-0.1-0.1-0.2,0c0,0,0,0,0,0.1C24.7,33.9,24.8,34,24.9,34.1z" class="st0"/><path d="M24.3,32.8c-0.1,0-0.8-0.3-1.2-0.5L22.6,32c-0.1,0-0.3-0.1-0.6-0.2c-0.4-0.1-0.8-0.3-0.9-0.3	c-0.1,0-0.1-0.1-0.1,0c-0.1,0,0,0.2,0,0.2c0,0.1,0.1,0.1,0.2,0.1c0.1,0,0.1,0,0.2,0c0.1,0,0.7,0.3,1.4,0.5c0.6,0.2,1.3,0.5,1.3,0.5	c0.1,0,0.2,0,0.3,0c0,0,0,0,0-0.1C24.4,32.8,24.4,32.8,24.3,32.8z" class="st0"/><path d="M21.8,32.5c0.4,0.1,0.8,0.3,0.9,0.4c0.1,0.1,0.4,0.2,0.6,0.3c0.2,0.1,0.4,0.1,0.5,0.2c0.1,0,0.2,0,0.2,0	c0,0,0.1-0.1,0.1-0.1c0,0,0-0.1-0.1-0.1c-0.2-0.1-2.4-0.9-2.6-1c-0.1-0.1-0.2,0-0.2,0c0,0.1,0,0.2,0.1,0.2	C21.4,32.3,21.5,32.4,21.8,32.5z" class="st0"/><path d="M23.7,33.8c0.1,0,0.3,0.2,0.4,0.1c0,0,0,0,0-0.1c0-0.1,0-0.1-0.1-0.2l-0.1,0c-0.1,0-0.2,0-0.2,0	c0,0,0-0.1,0-0.2c-0.1-0.2-1.1-0.6-1.3-0.6c-0.1,0-1-0.4-1.1-0.4c-0.1-0.1-0.2-0.1-0.2-0.1c0,0-0.1,0-0.1,0.1c0,0,0,0.1,0.1,0.1	c0.1,0.1,0.6,0.3,0.9,0.5c-0.3-0.1-0.5-0.2-0.6-0.2c-0.1,0-0.2,0-0.2,0.1c0,0.1,0,0.2,0.2,0.2l0.4,0.1c0.4,0.2,1.1,0.4,1.2,0.4	c0.1,0.1,0.4,0.2,0.5,0.1c0,0,0,0,0,0c0,0,0-0.1-0.2-0.1l-0.5-0.2c-0.1,0-0.2-0.1-0.4-0.2c0.1,0,0.2,0.1,0.4,0.1	c0.3,0.1,0.6,0.2,0.7,0.2c0.1,0.1,0.2,0.1,0.3,0C23.7,33.6,23.6,33.7,23.7,33.8z" class="st0"/><path d="M25.7,35.5L25.7,35.5c-0.1,0-0.2,0-0.2-0.1c0,0-0.1-0.1-0.1-0.1c-0.1,0-0.1,0.1-0.1,0.1c0,0,0,0.1,0.1,0.1l0,0	c0.1,0.1,0.4,0.2,0.5,0.2c0.1,0,0.2,0,0.2,0c0,0,0-0.1,0-0.1v0C26,35.5,25.8,35.5,25.7,35.5z" class="st0"/><path d="M25.9,36.4l-0.2-0.1c-0.3-0.1-0.4-0.2-0.4-0.1c0,0,0,0,0,0.1c0.1,0.2,1.5,0.8,1.6,0.8c0,0,0.1,0,0.1,0.1	c0,0,0,0,0,0c0,0,0,0-0.1,0c-0.1,0-0.4-0.2-0.8-0.3c-0.7-0.2-1.4-0.5-1.5-0.5l-0.1,0c-0.3-0.1-0.3-0.1-0.4,0c0,0,0,0.1,0,0.1	c0.1,0.1,0.4,0.3,0.7,0.3c0.2,0.1,2.6,1,2.7,1c0,0,0.2,0.1,0.3,0c0.1,0,0.1-0.1,0-0.3l-0.1-0.2c-0.1-0.2-0.1-0.3-0.3-0.3L25.9,36.4z" class="st0"/><path d="M24.5,36.7c-0.2,0-0.9-0.2-1-0.3c0-0.1-0.1-0.1-0.2,0c-0.1,0-0.1,0-0.1,0.1c0,0,0,0.1,0.1,0.1l0.2,0.1	c0.2,0.1,0.5,0.2,0.6,0.3c0.1,0.1,0.4,0.2,0.5,0.1c0,0,0.1,0,0.1-0.1l0,0c0-0.1,0-0.1,0-0.2C24.6,36.7,24.6,36.7,24.5,36.7z" class="st0"/><path d="M25.5,33l0.3,0.1c0.2,0.1,0.4,0.2,0.5,0.2c0.1,0,0.2-0.1,0.2-0.1c0-0.1,0-0.1-0.2-0.2L26.2,33	c-0.2-0.1-0.3-0.1-0.5-0.2c-0.1,0-0.3,0-0.3,0.1C25.3,32.9,25.5,33,25.5,33z" class="st0"/><path d="M24.1,37.2C24.1,37.2,24.1,37.3,24.1,37.2c0.1,0.1,0.1,0.2,0.2,0.2c0,0,0.1,0,0.1,0.1c0.1,0.1,0.2,0,0.3,0	c0,0,0-0.1,0-0.1c-0.1-0.1-0.2-0.1-0.4-0.2C24.2,37.2,24.1,37.2,24.1,37.2z" class="st0"/><path d="M24.4,32.4c-0.1,0-0.2,0-0.3-0.1c-0.1,0-0.1,0-0.1,0c0,0,0,0.1,0,0.2c0,0.1,0.2,0.2,0.3,0.2	c0.1,0,0.2-0.1,0.2-0.1c0,0,0-0.1,0-0.1S24.5,32.4,24.4,32.4z" class="st0"/><path d="M25.6,35.8c-0.1-0.1-0.2-0.1-0.3-0.1c-0.1,0-0.1,0-0.1,0.1c0,0,0,0.1,0.1,0.1c0.1,0.1,0.6,0.3,1,0.4	c0.3,0.1,0.5,0.2,0.5,0.2c0.1,0.1,0.4,0.1,0.5,0c0,0,0,0,0-0.1c-0.1-0.1-0.4-0.2-1-0.4C26,36,25.6,35.9,25.6,35.8z" class="st0"/><path d="M22.5,27.9C22.5,27.9,22.5,27.8,22.5,27.9c0-0.1,0-0.1-0.1-0.1c0,0-0.1,0-0.1,0c0-0.1-0.1-0.1-0.1-0.1	c0,0-0.1,0-0.1,0.1c0,0,0,0.1,0,0.1C22.3,27.9,22.4,27.9,22.5,27.9z" class="st0"/><path d="M23.8,26.6c0.1,0,0.3,0.1,0.4,0.2c0.3,0.1,0.6,0.3,0.7,0.4c0.2,0.1,0.3,0,0.3-0.1c0-0.1,0-0.1-0.1-0.2	c-0.1-0.1-1-0.5-1.2-0.6c-0.1,0-0.2,0-0.2,0C23.7,26.4,23.7,26.4,23.8,26.6C23.7,26.5,23.7,26.5,23.8,26.6z" class="st0"/><path d="M21.8,29.2C21.8,29.2,21.7,29.3,21.8,29.2c-0.1,0.1-0.1,0.2,0,0.2c0.1,0.1,2.6,1.1,2.8,1.1c0.1,0,0.2,0,0.2-0.1	c0-0.1,0-0.1-0.1-0.2L24,30c-0.7-0.3-2-0.7-2-0.8C21.9,29.2,21.9,29.2,21.8,29.2z" class="st0"/><path d="M24.4,28.9c0.1,0,0.2,0,0.3,0c0,0,0-0.1,0-0.1v0c0-0.1-0.1-0.1-0.2-0.1l-0.1,0c-0.1,0-1.3-0.5-1.4-0.6	c-0.1-0.1-0.3-0.1-0.4,0c0,0,0,0.1,0,0.1C22.7,28.3,24.1,28.8,24.4,28.9z" class="st0"/><path d="M23.9,27.2c0.1,0,0.2,0.1,0.4,0.2c0.3,0.2,0.6,0.3,0.7,0.3c0.1,0,0.2-0.1,0.2-0.2c0,0,0-0.1-0.1-0.2	c-0.2-0.1-1.1-0.5-1.3-0.6c-0.1-0.1-0.3-0.1-0.4,0c0,0,0,0,0,0.1C23.5,26.9,23.8,27.1,23.9,27.2z" class="st0"/><path d="M23.9,29.9c0.1,0,0.3,0,0.3,0c0,0,0,0,0,0c0,0,0,0-0.1-0.1c-0.2,0-1.9-0.7-2-0.8c0,0-0.1,0-0.1,0c0,0,0,0,0,0.1	c0,0,0,0.1,0.1,0.1C22.2,29.2,23.7,29.8,23.9,29.9z" class="st0"/><path d="M22.2,30c0.3,0.1,2.2,0.8,2.3,0.9c0.1,0,0.2,0,0.2,0c0,0,0.1-0.1,0.1-0.1c0,0,0-0.1-0.1-0.1l-0.3-0.1	c-0.6-0.3-1.2-0.5-1.3-0.6c-0.2,0-1.7-0.7-1.8-0.7c-0.1-0.1-0.3-0.1-0.4,0c0,0-0.1,0.1,0,0.1C21,29.5,22,30,22.2,30z" class="st0"/><path d="M24.4,29.3c0.2,0,0.2,0,0.2-0.1s-0.1-0.1-0.2-0.1c-0.6-0.3-2-0.8-2.1-0.9c0-0.1-0.1-0.1-0.1-0.1	c-0.1,0-0.1,0-0.1,0.1c0,0,0,0.1,0,0.1C22.2,28.4,24.1,29.3,24.4,29.3z" class="st0"/><path d="M23.9,28.4l0.2,0.1c0.2,0.1,0.3,0.1,0.4,0.1c0.1,0,0.1-0.1,0.1-0.1c0,0,0-0.1-0.1-0.1l-0.2-0.1	c-0.3-0.1-1-0.4-1.1-0.5c0-0.1-0.2-0.1-0.2-0.1c-0.1,0-0.1,0-0.1,0.1c0,0,0,0.1,0,0.1C23.1,28,23.7,28.3,23.9,28.4z" class="st0"/><path d="M25.2,26.4L25.2,26.4c0.1,0,0.1,0,0.1-0.1c0-0.1,0-0.1,0-0.2c-0.1,0-0.2-0.1-0.3-0.1c0,0-0.1,0-0.1,0.1	c0,0.1,0,0.2,0,0.2C25,26.4,25.1,26.4,25.2,26.4z" class="st0"/><path d="M21.7,28.7c0.2,0.1,1,0.5,1.3,0.5c0.3,0.1,1.2,0.4,1.3,0.5c0.1,0.1,0.2,0,0.2,0c0.1,0,0.1-0.1,0.1-0.1	c0,0,0-0.1-0.1-0.1c-0.1,0-0.3-0.1-0.6-0.2c-0.3-0.1-0.6-0.3-0.7-0.3c-0.3-0.1-1.2-0.5-1.3-0.5c0,0-0.1,0-0.2,0	c-0.1,0-0.2,0.1-0.2,0.2C21.6,28.6,21.7,28.7,21.7,28.7z" class="st0"/><path d="M8.7,32.4C8.9,32.5,9,32.6,9,32.8L9,33c0,0,0.2,0,0.2,0c0-0.2,0-0.4,0-0.7c0-0.3,0.1-0.5,0.1-0.7	c0,0-0.1-0.1-0.2,0l0,0.2C9,32.1,9,32.1,8.6,31.9l-0.8-0.3c-0.2-0.1-0.2-0.1-0.2-0.2l0.1-0.9c0-0.2,0-0.2,0.2-0.3L8.9,30	c0.3-0.1,0.3,0,0.3,0.2l0,0.2c0,0,0.2,0,0.2,0c0-0.2,0-0.5,0.1-0.8c0-0.3,0.1-0.6,0.1-0.9c0,0-0.1-0.1-0.2,0l0,0.1	c-0.1,0.3-0.1,0.4-0.6,0.5l-2.8,0.7C5.6,30,5.3,30.1,5,30.1c0,0-0.1,0-0.1,0.1c0,0,0.3,0.3,0.3,0.5c0.1,0,0.3,0.1,0.5,0.2L7.9,32	C8.3,32.2,8.5,32.3,8.7,32.4z M7.4,31.2c0,0.2,0,0.2-0.2,0.1l-0.7-0.3c-0.3-0.2-0.5-0.2-0.5-0.3v0c0,0,0.2-0.1,0.5-0.1l0.8-0.2	c0.2,0,0.2,0,0.2,0.2L7.4,31.2z" class="st0"/><path d="M5.6,26.6l0.1-0.2c0.1-0.2,0.3-0.3,0.6-0.2c0.4,0.1,0.9,0.3,1.3,0.5c0.6,0.3,1,0.4,1.4,0.6	c0.4,0.2,0.5,0.3,0.4,0.6l0,0.1c0,0.1,0.1,0.1,0.2,0c0.1-0.2,0.1-0.5,0.2-0.7C9.9,27.2,10,27,10,26.7c0-0.1-0.1-0.1-0.2-0.1	l-0.1,0.2c-0.1,0.3-0.2,0.2-0.7,0.1c-0.5-0.2-1.1-0.4-1.4-0.5c-0.3-0.1-0.7-0.3-1-0.4v0c0.2,0,0.7,0,1-0.1L9,25.8	c0.4,0,1.1-0.1,1.4-0.1c0,0,0.1-0.1,0.1-0.2c-0.3-0.2-0.8-0.8-1.2-1.1l-0.9-0.9c-0.2-0.2-0.4-0.4-0.7-0.6l0,0l0.6,0.2l2,0.7	c0.4,0.1,0.5,0.2,0.4,0.4l0,0.2c0,0.1,0.2,0.1,0.2,0c0.1-0.3,0.2-0.5,0.3-0.8c0.1-0.3,0.2-0.5,0.3-0.8c0-0.1-0.1-0.1-0.2-0.1	l-0.1,0.2c-0.1,0.2-0.2,0.2-0.6,0.1c-0.9-0.3-1.9-0.6-2.8-0.9c-0.3-0.1-0.4-0.2-0.4-0.5l0-0.2c0-0.1-0.1-0.1-0.2,0	c0,0.2-0.1,0.4-0.2,0.7c0,0.1-0.1,0.3-0.2,0.5c0.4,0.3,0.7,0.6,1,0.9l1,1c0.3,0.2,0.4,0.4,0.5,0.6c-0.2,0-0.5,0.1-0.7,0.1l-1.7,0.2	c-0.4,0-0.8,0.1-1.2,0c-0.1,0.2-0.1,0.5-0.2,0.7c-0.1,0.2-0.1,0.4-0.2,0.6C5.5,26.6,5.6,26.7,5.6,26.6z" class="st0"/><path d="M8.4,19.7L8.4,19.7c0.3-0.3,0.3-0.4,0.9,0l2.1,1.3c0.6,0.4,0.6,0.4,0.4,0.7L11.7,22c0,0.1,0.1,0.1,0.2,0.1	c0.2-0.3,0.4-0.6,0.5-0.8l0.4-0.6c0.4-0.7,0.7-1.1,0.9-1.4c-0.1-0.2-0.5-0.6-0.7-0.7c-0.1,0-0.2,0.1-0.1,0.2c0.3,0.5,0.4,0.7,0,1.4	c-0.3,0.5-0.4,0.5-0.5,0.5c-0.2,0-0.4-0.1-0.6-0.3L11,19.9c-0.1-0.1-0.1-0.1-0.1-0.2l0.2-0.3c0.3-0.5,0.4-0.6,0.6-0.5L12,19	c0.1,0,0.1-0.1,0.1-0.2c-0.2-0.1-0.4-0.2-0.6-0.4c-0.2-0.1-0.4-0.3-0.5-0.4c-0.1,0-0.1,0.1-0.1,0.2l0.2,0.2c0.2,0.2,0.2,0.3-0.1,0.8	l-0.2,0.3c-0.1,0.1-0.1,0.1-0.2,0l-0.9-0.6c-0.3-0.2-0.3-0.2-0.2-0.4l0.2-0.4c0.1-0.1,0.2-0.3,0.3-0.4c0.2-0.2,0.4-0.1,0.7,0	c0.1,0,0.1-0.1,0.1-0.2c-0.3-0.1-0.7-0.4-0.8-0.4c0,0.1-0.2,0.4-0.5,0.8l-0.7,1.1c-0.2,0.3-0.3,0.5-0.5,0.7	C8.2,19.7,8.3,19.7,8.4,19.7z" class="st0"/><path d="M11.3,15.5l0.1-0.1c0.2-0.2,0.3-0.2,0.8,0.3l1.8,1.7c0.5,0.5,0.5,0.5,0.3,0.8l-0.1,0.1c0,0.1,0.1,0.1,0.1,0.1	c0.2-0.2,0.4-0.5,0.6-0.7c0.2-0.2,0.4-0.4,0.6-0.6c0-0.1-0.1-0.1-0.1-0.1L15.2,17c-0.2,0.2-0.3,0.2-0.8-0.3l-0.6-0.6	c-0.1-0.1-0.1-0.1,0-0.3c0.2-0.2,0.2-0.2,0.4-0.2c0.3,0.1,0.7,0.2,1,0.2c0.7,0.1,1.1,0,1.6-0.4c0.2-0.2,0.2-0.3,0.3-0.3	c0,0-0.1-0.1-0.1-0.1c-0.1,0-0.2,0.2-0.5,0.2c-0.4,0.1-1-0.1-2-0.3c0,0-0.1,0-0.1-0.1c0.1-0.3,0.2-0.9-0.2-1.3	c-0.3-0.3-0.7-0.4-1.1-0.2c-0.3,0.1-0.7,0.4-1,0.8c-0.4,0.4-0.7,0.8-1,1.1C11.1,15.4,11.2,15.5,11.3,15.5z M12.4,14.4	c0.4-0.4,1-0.3,1.3,0c0.5,0.4,0.5,0.9,0,1.3c-0.2,0.2-0.2,0.2-0.4,0.1l-1-0.9C12.2,14.6,12.2,14.6,12.4,14.4z" class="st0"/><path d="M15.1,11.6l0.1-0.1c0.3-0.2,0.3-0.2,0.8,0.4l1.5,1.9c0.4,0.6,0.4,0.6,0.2,0.8l-0.1,0.1c0,0.1,0.1,0.1,0.1,0.1	c0.2-0.2,0.5-0.4,0.7-0.5c0.2-0.2,0.5-0.3,0.7-0.5c0-0.1,0-0.2-0.1-0.2l-0.1,0.1c-0.3,0.2-0.3,0.2-0.8-0.4l-1.5-1.9	c-0.4-0.6-0.4-0.6-0.2-0.8l0.1-0.1c0-0.1-0.1-0.2-0.1-0.1c-0.2,0.2-0.5,0.4-0.7,0.5c-0.2,0.2-0.5,0.4-0.7,0.5	C15,11.5,15.1,11.6,15.1,11.6z" class="st0"/><path d="M20.6,12.5c0.6,0.1,1.1-0.1,1.7-0.4c0.4-0.2,0.7-0.5,0.8-0.6c0.1,0,0.1-0.1,0.2-0.2c0-0.2,0-0.6-0.2-1	c-0.1,0-0.2,0-0.2,0.1c0,0.5,0,1.1-0.8,1.5c-0.8,0.4-1.9,0.2-2.5-1.1c-0.6-1.2-0.1-2.1,0.6-2.5c0.8-0.4,1.3,0,1.6,0.3	c0.1,0,0.2,0,0.2-0.1c-0.3-0.4-0.5-0.7-0.6-0.9c-0.1,0-0.1,0-0.2,0.1C21,7.7,20.6,7.9,20.3,8c-0.6,0.3-1.1,0.8-1.4,1.3	c-0.3,0.6-0.3,1.3,0.1,1.9C19.4,12.1,20,12.4,20.6,12.5z" class="st0"/><path d="M24.7,11c0.3-0.1,0.5-0.1,0.7-0.2c0,0,0-0.1,0-0.2l-0.2,0c-0.2,0-0.3,0-0.3-0.4L25,9.4c0-0.2,0-0.2,0.2-0.2	L26,8.9c0.2,0,0.2,0,0.3,0.1l0.5,0.8c0.2,0.3,0.1,0.3-0.1,0.4l-0.1,0.1c0,0,0,0.2,0.1,0.2c0.2-0.1,0.5-0.2,0.8-0.2	c0.3-0.1,0.6-0.2,0.8-0.2c0,0,0-0.1-0.1-0.2l-0.1,0c-0.3,0-0.4,0-0.7-0.4L25.8,7c-0.2-0.3-0.4-0.5-0.5-0.8c0,0-0.1,0-0.1,0	c0,0-0.1,0.3-0.4,0.4c0,0.1,0,0.3,0,0.5l-0.2,2.5c0,0.4-0.1,0.7-0.1,0.9c0,0.2-0.1,0.3-0.3,0.4L24,11c0,0.1,0,0.2,0.1,0.2	C24.3,11.1,24.5,11,24.7,11z M25,8.7l0.1-0.8c0-0.3,0-0.5,0-0.5h0c0,0,0.1,0.1,0.3,0.5l0.5,0.7C26,8.6,26,8.6,25.8,8.7l-0.7,0.2	C25,8.9,25,8.9,25,8.7z" class="st0"/><path d="M28.7,5.7c0.1,0,0.3,0,0.3,0.1c0.2,0.2,0.2,0.3,0.3,0.8l0.1,1.6c0,0.5,0.1,1.1,0,1.3c0,0.1-0.2,0.1-0.3,0.2	l-0.1,0c0,0,0,0.2,0,0.2c0.2,0,0.4,0,0.7-0.1c0.3,0,0.5,0,0.8,0c0.1,0,0.1-0.1,0-0.2l-0.2,0c-0.2,0-0.3-0.1-0.3-0.2	c-0.1-0.2-0.2-0.8-0.2-1.3l-0.1-1.3c0-0.3,0-0.4,0-0.4c0.1,0.1,0.3,0.3,0.8,0.8L32,8.9c0.5,0.5,0.7,0.7,0.8,0.9c0.1,0,0.2,0,0.2-0.1	c0-0.2-0.1-1-0.1-1.2l-0.1-1.6c0-0.5-0.1-1.1,0-1.3c0-0.1,0.1-0.1,0.3-0.2l0.2,0c0,0,0-0.2,0-0.2c-0.2,0-0.4,0-0.7,0.1	c-0.3,0-0.5,0-0.8,0c-0.1,0-0.1,0.1,0,0.2l0.2,0c0.2,0,0.3,0,0.3,0.1c0.1,0.2,0.2,0.8,0.2,1.3l0.1,1.3c0,0.1,0,0.1,0,0.2	c-0.1,0-0.7-0.7-1-1L31,6.7c-0.2-0.2-1-1-1.1-1.3c-0.2,0-0.3,0-0.5,0c-0.2,0-0.5,0-0.8,0C28.5,5.5,28.5,5.6,28.7,5.7L28.7,5.7z" class="st0"/><path d="M39.3,10.8c0.4,0.1,0.9,0.1,1,0.1c0.1,0,0.2,0,0.2,0c0.1-0.1,0.4-0.5,0.6-0.9C41.1,10,41,10,41,10	c-0.3,0.4-0.8,0.8-1.6,0.6c-0.8-0.2-1.5-1.1-1.1-2.5c0.4-1.3,1.3-1.6,2.1-1.4c0.8,0.2,1,0.8,1,1.3c0,0.1,0.1,0.1,0.2,0	c0.1-0.5,0.2-0.9,0.2-1c-0.1,0-0.1-0.1-0.2-0.1c-0.3-0.2-0.7-0.3-1.1-0.5c-0.6-0.2-1.3-0.2-1.9,0c-0.6,0.2-1.1,0.7-1.3,1.4	c-0.2,0.8,0,1.5,0.4,2C38.2,10.4,38.7,10.7,39.3,10.8z" class="st0"/><path d="M43.6,12.7c1.2,0.6,2.5,0.3,3.1-0.9c0.6-1.1,0.4-2.4-0.9-3.1c-1.2-0.7-2.5-0.3-3.2,0.9	C42.1,10.6,42.3,12,43.6,12.7z M43.5,9.9c0.7-1.2,1.5-1.3,2.1-1c0.9,0.5,0.8,1.7,0.3,2.6c-0.6,1.2-1.4,1.3-2.1,1	C42.8,11.9,43.1,10.7,43.5,9.9z" class="st0"/><path d="M46.6,14.2l-0.2-0.1c-0.1,0-0.1,0.1-0.1,0.2c0.2,0.2,0.5,0.4,0.7,0.6l0.5,0.5c0.5,0.5,1,0.8,1.2,1	c0.2-0.1,0.6-0.4,0.8-0.5c0-0.1-0.1-0.1-0.1-0.2c-0.7,0.3-0.8,0.3-1.3-0.2c-0.4-0.3-0.4-0.5-0.4-0.6c0-0.2,0.2-0.3,0.4-0.6l1.5-1.8	c0.5-0.5,0.5-0.5,0.8-0.3l0.1,0.1c0.1,0,0.2-0.1,0.1-0.2c-0.2-0.2-0.5-0.4-0.7-0.5c-0.2-0.2-0.4-0.4-0.7-0.6c-0.1,0-0.1,0.1-0.1,0.1	l0.1,0.1c0.2,0.2,0.2,0.3-0.2,0.8l-1.6,1.9C46.9,14.4,46.9,14.4,46.6,14.2z" class="st0"/><path d="M52.4,15.3l-1.9,1.5c-0.5,0.4-0.6,0.4-0.8,0.2l-0.1-0.1c-0.1,0-0.2,0.1-0.1,0.1c0.2,0.2,0.4,0.5,0.6,0.7	l0.4,0.5c0.5,0.6,0.8,1,1,1.2c0.2-0.1,0.7-0.3,0.9-0.4c0-0.1,0-0.1-0.1-0.2c-0.7,0.2-0.8,0.1-1.3-0.4c-0.3-0.4-0.4-0.5-0.3-0.6	c0-0.1,0.2-0.3,0.5-0.5l1.8-1.5c0.5-0.4,0.6-0.4,0.8-0.2l0.1,0.1c0.1,0,0.2-0.1,0.1-0.1c-0.2-0.2-0.4-0.4-0.6-0.7	c-0.2-0.2-0.4-0.5-0.6-0.7c-0.1,0-0.2,0-0.2,0.1l0.1,0.2C52.9,14.9,53,14.9,52.4,15.3z" class="st0"/><path d="M52.3,20.4l-0.1-0.2c-0.1,0-0.2,0-0.2,0.1c0.2,0.3,0.4,0.6,0.5,0.9l0.4,0.7c0.4,0.7,0.6,1.2,0.8,1.4	c0.2,0,0.7-0.1,1-0.2c0-0.1,0-0.2-0.1-0.2c-0.6,0-0.8,0-1.2-0.7c-0.3-0.5-0.3-0.6-0.2-0.7c0-0.1,0.3-0.3,0.5-0.4l0.7-0.4	c0.1-0.1,0.2-0.1,0.2,0.1l0.1,0.3c0.3,0.5,0.3,0.6,0.1,0.8l-0.2,0.2c0,0.1,0.1,0.2,0.1,0.2c0.2-0.1,0.4-0.2,0.6-0.3	c0.2-0.1,0.4-0.2,0.6-0.3c0-0.1,0-0.2-0.1-0.2l-0.2,0.1c-0.3,0.1-0.3,0-0.6-0.5l-0.1-0.3c-0.1-0.1-0.1-0.1,0.1-0.2l1-0.5	c0.3-0.2,0.3-0.2,0.5,0.1l0.2,0.4c0.1,0.2,0.2,0.3,0.2,0.5c0.1,0.2,0,0.4-0.3,0.6c0,0.1,0.1,0.2,0.1,0.2c0.2-0.2,0.7-0.5,0.8-0.5	c-0.1-0.1-0.2-0.4-0.4-0.8l-0.6-1.1c-0.1-0.3-0.3-0.5-0.4-0.8c0,0-0.2,0-0.2,0.1l0,0.1c0.1,0.3,0.1,0.4-0.5,0.7l-2.2,1.2	C52.5,20.7,52.5,20.7,52.3,20.4z" class="st0"/><path d="M56.1,23.6c-0.5,0.2-1,0.5-1.3,1c-0.3,0.6-0.3,1.4-0.1,2.1c0.1,0.4,0.3,0.8,0.5,1.2c0.1,0.1,0.1,0.2,0.1,0.3	c0,0,0.1,0,0.1,0c0-0.1,0.2-0.2,0.4-0.3l0.4-0.1c0.4-0.1,0.5-0.1,0.5,0.1l0,0.1c0.1,0,0.2,0,0.2-0.1c-0.1-0.3-0.2-0.5-0.3-0.8	c-0.1-0.4-0.2-0.7-0.3-1c0,0-0.2,0-0.2,0l0,0.2c0,0.4,0,0.5-0.4,0.6l-0.2,0.1c-0.2,0.1-0.3,0.1-0.4,0.1c-0.1-0.1-0.2-0.2-0.3-0.5	c-0.1-0.4-0.1-0.9,0.2-1.4c0.3-0.5,0.8-0.7,1.3-0.9c1.1-0.3,2,0,2.4,1.1c0.2,0.6,0,1.2-0.5,1.5c0,0,0,0.2,0.1,0.2	c0.5-0.2,0.8-0.3,1-0.4c0-0.1,0-0.3-0.1-0.4c0-0.2-0.1-0.6-0.1-0.9c-0.3-0.9-0.7-1.5-1.3-1.8C57.2,23.4,56.6,23.4,56.1,23.6z" class="st0"/><path d="M59.9,31.2l-0.1-1.3c0-0.3,0-0.6,0-0.8c0-0.1-0.2-0.1-0.2,0v0.1c0,0.3,0,0.4-0.7,0.4l-2.4,0.2	c-0.7,0-0.7,0-0.8-0.3l0-0.2c-0.1,0-0.2,0-0.2,0c0,0.3,0.1,0.7,0.1,1l0.1,0.8c0.1,0.8,0.1,1.3,0.1,1.6c0.2,0.1,0.7,0.2,1,0.2	c0.1,0,0.1-0.2,0-0.2c-0.6-0.2-0.8-0.3-0.8-1.2c-0.1-0.5,0-0.7,0.1-0.8c0.1-0.1,0.3-0.1,0.7-0.2l0.8-0.1c0.2,0,0.2,0,0.2,0.1l0,0.3	c0,0.6,0,0.7-0.2,0.8l-0.3,0.1c0,0.1,0,0.2,0,0.2c0.2,0,0.4-0.1,0.7-0.1c0.2,0,0.5,0,0.7,0c0,0,0-0.2,0-0.2l-0.2,0	c-0.3,0-0.3-0.1-0.3-0.7l0-0.3c0-0.1,0-0.2,0.2-0.2l1.1-0.1c0.4,0,0.4,0,0.4,0.3l0,0.4c0,0.2,0,0.4,0,0.5c0,0.2-0.2,0.3-0.6,0.5	c0,0.1,0,0.2,0,0.2c0.3-0.1,0.8-0.1,0.9-0.2C60,32,59.9,31.6,59.9,31.2z" class="st0"/><path d="M10.1,44.1c1.1-0.4,1.9-1.6,1.3-3c-0.5-1.3-1.8-1.8-3.1-1.3c-1.1,0.4-1.8,1.6-1.2,3C7.6,44,8.9,44.5,10.1,44.1z M7.4,42.7c-0.4-1,0.6-1.9,1.4-2.2c1.3-0.5,2,0,2.3,0.6c0.4,1-0.5,1.8-1.5,2.2C8.4,43.8,7.6,43.4,7.4,42.7z" class="st0"/><path d="M13.1,44.8c-0.2-0.2-0.3-0.5-0.4-0.7c0,0-0.2,0-0.2,0.1l0,0.1c0.1,0.3,0.1,0.3-0.4,0.7l-2,1.4	c-0.6,0.4-0.6,0.4-0.8,0.1l-0.1-0.1c-0.1,0-0.2,0.1-0.1,0.1c0.2,0.3,0.4,0.5,0.5,0.7c0.2,0.2,0.3,0.5,0.6,0.9c0,0,0.2,0,0.2-0.1	l-0.1-0.3c-0.2-0.3-0.2-0.3,0.4-0.7l0.8-0.5c0.1-0.1,0.2-0.1,0.2,0l0.2,0.3c0.3,0.5,0.4,0.6,0.2,0.8l-0.2,0.2c0,0.1,0.1,0.2,0.1,0.2	c0.2-0.1,0.4-0.3,0.6-0.4c0.2-0.1,0.4-0.3,0.6-0.4c0-0.1,0-0.2-0.1-0.2l-0.2,0.1c-0.3,0.1-0.3,0-0.6-0.5l-0.2-0.3	c-0.1-0.1-0.1-0.1,0.1-0.2l1-0.7c0.3-0.2,0.3-0.2,0.5,0l0.2,0.3c0.1,0.2,0.2,0.3,0.3,0.5c0.1,0.3,0,0.4-0.3,0.7	c0,0.1,0.1,0.2,0.1,0.2c0.3-0.2,0.7-0.5,0.8-0.5c-0.1-0.1-0.3-0.4-0.5-0.8L13.1,44.8z" class="st0"/><path d="M17.6,54.2c-0.4,0.2-1,0.4-1.7-0.1c-0.7-0.5-0.9-1.6,0-2.7c0.9-1,1.9-1,2.5-0.5c0.7,0.5,0.6,1.2,0.4,1.6	c0,0.1,0.1,0.1,0.2,0.1c0.3-0.4,0.5-0.7,0.6-0.8c0-0.1-0.1-0.1-0.1-0.2c-0.2-0.3-0.5-0.6-0.8-0.8c-0.5-0.4-1.2-0.7-1.8-0.7	c-0.6,0-1.3,0.2-1.8,0.8c-0.5,0.7-0.6,1.4-0.4,2c0.2,0.5,0.5,1,1,1.4c0.3,0.3,0.8,0.5,0.9,0.5c0.1,0,0.2,0.1,0.2,0.1	c0.2,0,0.6-0.3,0.9-0.6C17.8,54.2,17.7,54.1,17.6,54.2z" class="st0"/><path d="M21.7,53c0,0.1-0.2,0.2-0.3,0.4l-1.9,1.7c-0.3,0.3-0.5,0.5-0.7,0.6c-0.2,0.1-0.3,0.2-0.5,0.1l-0.2-0.1	c-0.1,0-0.1,0.1-0.1,0.2c0.2,0.1,0.4,0.2,0.6,0.3c0.2,0.1,0.4,0.2,0.6,0.3c0.1,0,0.1-0.1,0.1-0.2l-0.2-0.1C19,56,19,56,19.3,55.7	l0.6-0.6c0.1-0.1,0.1-0.1,0.3-0.1l0.8,0.4c0.2,0.1,0.2,0.1,0.2,0.3L21,56.7c0,0.3-0.1,0.3-0.3,0.2l-0.1-0.1c0,0-0.1,0.1-0.1,0.2	c0.2,0.1,0.5,0.2,0.7,0.4c0.3,0.2,0.5,0.3,0.8,0.4c0.1,0,0.1-0.1,0.1-0.2L22,57.6c-0.3-0.2-0.3-0.3-0.2-0.7l0.4-2.9	c0-0.3,0.1-0.6,0.2-0.9c0,0,0-0.1-0.1-0.1C22.2,52.9,21.9,53.1,21.7,53z M21.4,54.3l-0.1,0.8c0,0.2-0.1,0.2-0.2,0.1l-0.6-0.3	c-0.1-0.1-0.2-0.1,0-0.2l0.6-0.6c0.3-0.2,0.4-0.3,0.4-0.4l0,0C21.4,53.8,21.4,53.9,21.4,54.3z" class="st0"/><path d="M25.9,54.5c-0.5-0.1-1.1-0.3-1.5-0.4c-0.1,0-0.1,0.1-0.1,0.2l0.2,0.1c0.3,0.1,0.3,0.2,0.1,0.8l-0.6,2.3	c-0.2,0.7-0.3,0.7-0.6,0.6l-0.2,0c-0.1,0-0.1,0.1,0,0.2c0.3,0.1,0.6,0.1,0.9,0.2c0.3,0.1,0.6,0.2,0.8,0.3c0.1,0,0.1-0.1,0.1-0.2	l-0.1-0.1c-0.3-0.1-0.3-0.2-0.2-0.8l0.2-0.8c0-0.1,0-0.1,0.2-0.1c0.2,0.1,0.3,0.1,0.3,0.3c0.1,0.3,0.2,0.7,0.3,1	c0.2,0.7,0.5,1,1.1,1.2c0.2,0.1,0.3,0.1,0.4,0.1c0,0,0-0.1,0-0.1c-0.1,0-0.3-0.1-0.4-0.3c-0.2-0.3-0.4-1-0.7-2c0,0,0-0.1,0-0.1	c0.3,0,0.9-0.2,1-0.8c0.1-0.5,0-0.8-0.3-1.1C26.8,54.8,26.4,54.7,25.9,54.5z M26.5,56c-0.2,0.6-0.5,0.8-1.2,0.7	c-0.3-0.1-0.3-0.1-0.3-0.3l0.4-1.3c0.1-0.3,0.1-0.3,0.4-0.2C26.4,54.9,26.6,55.5,26.5,56z" class="st0"/><path d="M32.3,55.7c-0.5-0.2-0.9-0.3-1.5-0.3c-0.7,0-1.2,0-1.7,0c0,0-0.1,0.2,0,0.2l0.1,0c0.3,0.1,0.3,0.1,0.3,0.8	l-0.1,2.4c0,0.7-0.1,0.7-0.4,0.7l-0.1,0c0,0,0,0.2,0,0.2c0.3,0,0.6,0,0.8,0c0.2,0,0.6,0.1,1,0.1c0.6,0,1.2,0,1.7-0.2	c0.8-0.4,1.2-1.1,1.3-1.8C33.6,56.8,33.1,56.1,32.3,55.7z M30.9,59.6c-0.7,0-0.7-0.4-0.7-1l0.1-2.3c0-0.3,0-0.5,0.1-0.5	c0.1,0,0.3-0.1,0.5-0.1c1.1,0.1,1.8,0.7,1.8,2C32.6,58.8,32,59.6,30.9,59.6z" class="st0"/><path d="M36.9,59.3c-0.3,0-0.4,0-0.5-0.7l-0.3-2.4c-0.1-0.7,0-0.7,0.3-0.8l0.1,0c0,0,0-0.2,0-0.2	c-0.3,0.1-0.6,0.1-0.9,0.1c-0.3,0-0.6,0.1-0.9,0.1c0,0,0,0.1,0,0.2h0.2c0.3,0,0.4,0,0.5,0.7l0.3,2.4c0.1,0.7,0,0.7-0.3,0.8l-0.1,0	c0,0,0,0.2,0,0.2c0.3-0.1,0.6-0.1,0.9-0.1c0.3,0,0.6-0.1,0.9-0.1c0,0,0-0.1,0-0.2H36.9z" class="st0"/><path d="M39.8,54.2c-1.3,0.4-1.9,1.7-1.5,3c0.4,1.1,1.5,1.8,2.9,1.4c1.3-0.4,1.9-1.7,1.5-2.9	C42.3,54.5,41.2,53.7,39.8,54.2z M41.2,58.3c-1.1,0.4-1.8-0.7-2.1-1.6c-0.4-1.3,0.1-2,0.7-2.2c1-0.3,1.8,0.6,2.1,1.6	C42.3,57.3,41.9,58.1,41.2,58.3z" class="st0"/><path d="M47.4,54.3c0.1,0.7,0,0.8-0.6,1.2c-0.5,0.3-0.6,0.3-0.7,0.2c-0.2,0-0.3-0.3-0.5-0.5l-1.2-2	c-0.3-0.6-0.3-0.6-0.1-0.8l0.1-0.1c0-0.1,0-0.2-0.1-0.2c-0.2,0.2-0.5,0.3-0.7,0.5c-0.3,0.2-0.5,0.3-0.8,0.5c0,0,0,0.2,0.1,0.2	l0.2-0.1c0.3-0.1,0.4-0.1,0.7,0.5l1.3,2.1c0.4,0.6,0.3,0.6,0.1,0.8L45,56.7c0,0.1,0,0.2,0.1,0.2c0.2-0.2,0.5-0.3,0.8-0.5l0.6-0.3	c0.6-0.4,1.1-0.7,1.4-0.8c0-0.2-0.2-0.7-0.3-1C47.6,54.2,47.5,54.3,47.4,54.3z" class="st0"/><path d="M48,49.3c-1,0.9-1.1,2.3-0.2,3.3c0.8,0.9,2.2,1,3.2,0c1-0.9,1-2.3,0.2-3.3C50.4,48.6,49.1,48.3,48,49.3z M51,52.5c-0.8,0.8-2,0.1-2.6-0.5c-1-1-0.8-1.9-0.3-2.3c0.8-0.7,1.9-0.2,2.6,0.6C51.6,51.1,51.5,52,51,52.5z" class="st0"/><path d="M56.2,45.8c-0.1,0.1-0.3,0-0.5-0.1l-0.3-0.2c-0.3-0.2-0.4-0.3-0.3-0.5l0-0.1c0-0.1-0.1-0.1-0.2-0.1	c-0.2,0.2-0.3,0.4-0.4,0.7c-0.3,0.4-0.4,0.6-0.6,0.9c0,0.1,0.1,0.1,0.2,0.1l0.2-0.2c0.3-0.3,0.3-0.3,0.7,0l0.2,0.1	c0.2,0.1,0.3,0.2,0.3,0.3c0,0.1,0,0.3-0.2,0.6c-0.2,0.3-0.6,0.7-1.2,0.8c-0.5,0.1-1.1-0.1-1.5-0.4c-0.9-0.6-1.3-1.6-0.7-2.5	c0.4-0.6,0.9-0.8,1.5-0.5c0.1,0,0.2-0.1,0.1-0.2c-0.4-0.3-0.8-0.4-0.9-0.5c0,0.1-0.2,0.2-0.3,0.3c-0.2,0.2-0.4,0.4-0.6,0.7	c-0.5,0.8-0.7,1.5-0.5,2.2c0.1,0.6,0.5,1.1,1,1.4c0.5,0.3,1,0.5,1.6,0.4c0.7-0.1,1.3-0.6,1.7-1.3c0.2-0.3,0.4-0.8,0.6-1.2	C56.2,46.1,56.2,46,56.2,45.8C56.3,45.9,56.2,45.8,56.2,45.8z" class="st0"/><path d="M58.1,41.5L58,41.7c-0.2,0.3-0.2,0.3-0.8,0.1l-0.4-0.2c-0.4-0.2-0.5-0.3-0.8-0.6c-0.3-0.3-0.5-0.6-0.8-1	c-0.4-0.5-0.5-0.6-0.4-1l0-0.2c0-0.1-0.1-0.1-0.2-0.1c-0.1,0.2-0.1,0.4-0.2,0.6s-0.1,0.4-0.3,0.6c0,0.1,0.1,0.1,0.2,0.1l0.1-0.2	c0-0.1,0.1-0.1,0.2-0.1c0.1,0,0.2,0.1,0.3,0.3c0.4,0.4,0.7,0.8,1.1,1.3c-0.5,0.1-1.1,0.1-1.8,0.1c-0.2,0-0.3,0-0.4,0	c0,0-0.1-0.1,0-0.2l0-0.2c0-0.1-0.1-0.1-0.2-0.1c0,0.2-0.2,0.5-0.3,0.8c-0.1,0.3-0.2,0.5-0.3,0.8c0,0,0.1,0.1,0.2,0.1l0.1-0.1	c0.2-0.3,0.3-0.3,0.6-0.3l1.8-0.2c0.4-0.1,0.5,0,0.8,0.1l0.4,0.1c0.7,0.3,0.6,0.3,0.6,0.6l0,0.2c0,0.1,0.1,0.1,0.2,0.1	c0.1-0.3,0.2-0.6,0.3-0.9c0.1-0.3,0.2-0.5,0.4-0.9C58.3,41.5,58.2,41.5,58.1,41.5z" class="st0"/><path d="M58.1,36.2c0-0.3-0.3-0.6-0.6-0.6c-0.3,0-0.6,0.3-0.6,0.6c0,0.3,0.3,0.6,0.6,0.6C57.8,36.8,58.1,36.5,58.1,36.2	z" class="st0"/><path d="M7.6,36.2c0-0.3-0.3-0.6-0.6-0.6c-0.3,0-0.6,0.3-0.6,0.6c0,0.3,0.3,0.6,0.6,0.6C7.3,36.8,7.6,36.5,7.6,36.2z" class="st0"/></svg>