<svg xmlns="http://www.w3.org/2000/svg" xmlns:xlink="http://www.w3.org/1999/xlink" id="Layer_1" x="0" y="0" version="1.1" viewBox="0 0 51.8 51.8" xml:space="preserve" style="enable-background:new 0 0 51.8 51.8"><style type="text/css">.st0{fill:#fff}</style><path d="M50.2,26.1c0-10.9-7.2-20-17.1-23c-0.7-0.2-1.3-0.4-2-0.5c-1.6-0.3-3.2-0.5-4.8-0.5c-13.3,0-24,10.7-24,24	c0,13.2,10.7,24,24,24C39.5,50,50.2,39.3,50.2,26.1z M26.2,46.6C26.2,46.6,26.2,46.6,26.2,46.6C26.2,46.6,26.2,46.6,26.2,46.6	c-11.4,0-20.6-9.2-20.6-20.6c0-11.4,9.2-20.6,20.6-20.6c0,0,0,0,0,0s0,0,0,0c11.4,0,20.6,9.3,20.6,20.6	C46.8,37.4,37.6,46.6,26.2,46.6z" class="st0"/><path d="M2.2,26.1c0-13.3,10.7-24,24-24C13,2.1,2.2,12.8,2.2,26.1c0,13.3,10.7,24,24,24c0,0,0,0,0,0	C13,50,2.2,39.3,2.2,26.1z" class="st0"/><path d="M26.2,5.4C26.2,5.4,26.2,5.5,26.2,5.4c11.4,0,20.6,9.3,20.6,20.6c0,11.3-9.2,20.6-20.6,20.6c0,0,0,0,0,0	c11.4,0,20.6-9.2,20.6-20.6C46.8,14.7,37.6,5.4,26.2,5.4z" class="st0"/><path d="M26.2,6.8C15.6,6.8,7,15.4,7,26.1c0,10.6,8.6,19.2,19.2,19.2c10.6,0,19.2-8.6,19.2-19.2	C45.5,15.4,36.8,6.8,26.2,6.8z M25.6,7.5c0.2,0,0.4,0,0.6,0c1.2,0,2.3,0.1,3.4,0.3c0,0.3,0.1,0.7,0.1,1c0,0,0,0,0,0c0,0,0,0,0,0	c0,1.1-0.1,2.5-0.2,3.7c-0.2,0-0.3,0-0.5,0c-0.3,0-0.6,0-0.8-0.1c-0.7-0.2-1.3-0.2-1.7,0c0,0,0,0,0,0c0,0,0,0,0,0l0,0	c0,0,0-0.1,0-0.1c0-0.4,0-0.9,0-1.3c0,0,0,0,0,0c0,0,0,0,0,0c0-0.2,0-0.4,0-0.6c0,0,0,0,0,0c0-0.2,0-0.3,0-0.4c0-0.3,0-0.5-0.1-0.7	C26.2,8.5,26,7.9,25.6,7.5C25.7,7.5,25.6,7.5,25.6,7.5C25.6,7.5,25.6,7.5,25.6,7.5C25.6,7.5,25.6,7.5,25.6,7.5z M20.9,10.5	C20.9,10.4,20.9,10.4,20.9,10.5c0.1-0.7,0.2-1.7,0.2-2.3c1.1-0.3,2.3-0.5,3.5-0.6c0,0,0,0,0,0c0,0,0,0,0,0c0,0.1,0,0.2,0,0.4	c-0.1,0.1-1.1,1.8-1.1,1.8c-0.1,0.1-1.4,1.5-1.4,1.5c-0.1,0.1-0.3,0.3-0.4,0.4c0,0-0.1,0.1-0.1,0.1c-0.3,0.3-0.9,0.9-1.3,1.4	c0,0,0,0,0,0c0,0,0,0,0,0C20.5,12.4,20.8,11.1,20.9,10.5z M18.9,16.5c0.1-0.2,0.2-0.4,0.3-0.6c0-0.1,0.7-1.3,0.7-1.3	c0.5-1.1,1.3-1.9,2.2-2.7c1.7-1.5,2.4-2.7,3.1-4.2c0-0.1,0.1-0.1,0.1-0.1c0,0,0.3,0.3,0.3,0.4c0,0,0.1,0.3,0.1,0.4	c0,0.1,0,0.1,0,0.1c-0.1,0.1-0.2,0-0.3-0.1c-0.1,0-0.1,0-0.1,0.1c0,0,0,0.1,0.1,0.1c0.1,0.1,0.4,0.3,0.5,0.4c0,0,0,0.1,0,0.1	c0,0.1,0,0.2-0.1,0.2c-0.1,0-0.5-0.3-0.6-0.4c-0.1-0.1-0.2,0-0.2,0.1c0,0,0,0.1,0,0.1c0.1,0.1,0.6,0.5,0.7,0.6	c0.2,0.1,0,0.2,0.1,0.4c0,0,0,0,0,0c0,0,0,0,0,0c-0.6,0.7-1,1.5-1.3,2.3c0,0.1,0,0.1,0,0.2c0,0.1,0.1,0.2,0.1,0.2	c0.1,0.1,0.3,0.1,0.4,0c0.3-0.2,0.8-0.3,1-0.2c0.2,0.1,0.4,0,0.6,0h0c0.3-0.2,0.8-0.1,1.4,0c0.1,0,0.2,0,0.2,0c0,0,0.1,0,0.1,0h0	c0.1,0,0.2,0,0.2,0.1c0.1,0,0.2,0,0.3,0c0.2,0,0.3,0,0.5,0l0.6,0.2c0.1,0,0.2,0.1,0.3,0.2c-1.3,0.1-2.9,0.2-4.2,0.6	c-1.6,0.6-3,1.9-4.3,2.8c-0.2,0.2-0.2,0.3-0.1,0.3c-0.4,0.1-1.5,1-2.2,1.5c-0.1,0-0.2,0-0.3,0C18.7,18.5,18.4,17.7,18.9,16.5z M36.4,20.1c0,0.2,0.1,0.4,0.2,0.7c0.1,0.4,0.2,0.7,0.3,1c0,0,0,0,0,0c0,0,0,0,0,0c0,0.1,0,0.2,0,0.3c0,0.1,0,0.2,0,0.3	c0,0.1,0,0.2,0,0.3c0,0.2,0.2,0.4,0.3,0.6c0,0,0,0,0,0c0,0-0.1,0-0.1,0.1c-0.1-0.1-0.1-0.1-0.2-0.2c-0.1-0.1-0.2-0.2-0.2-0.3	c0-0.1,0-0.1-0.1-0.2c0,0,0,0,0-0.1c0-0.1,0-0.2,0-0.3c0.2-0.4-0.3-1.4-0.4-1.5c-0.1-0.1-0.2-0.3-0.3-0.5c0-0.1-0.2-0.7,0.1-1	c0.1-0.1,0.4-0.4,0.6-0.4c0.1-0.1,0.2,0,0.2,0.1c-0.1,0.1-0.2,0.2-0.3,0.3C36.4,19.5,36.4,19.8,36.4,20.1z M36.4,31.7	c-0.4-0.4-0.9-0.8-1.1-1.5c0-0.2,0-0.3,0-0.5c0,0,0,0,0,0c0,0,0,0,0,0c0-0.2,0-0.3,0.1-0.5c0,0,0-0.1,0-0.1c0,0,0-0.1,0-0.1	c0.1-0.2,0.1-0.3,0.2-0.5c0,0,0,0,0,0c0,0,0,0,0,0C35.7,29.6,36,30.7,36.4,31.7C36.4,31.7,36.4,31.7,36.4,31.7	C36.4,31.7,36.4,31.7,36.4,31.7z M36,27.2c-0.1,0.2-0.1,0.5-0.2,0.7c0,0.1-0.1,0.1-0.1,0.2c-0.2,0.3-0.3,0.5-0.4,0.8	c-0.1,0.3-0.1,0.5-0.1,0.8c0,0.2,0,0.3,0.1,0.5c0.2,0.8,0.8,1.3,1.2,1.7l0,0c0,0,0.1,0.1,0.1,0.1c1.1,0.9,1.9,2.3,2,3.5c0,0,0,0,0,0	c0,0,0,0,0,0s0,0,0,0c0,0,0,0,0,0c0,0,0,0,0,0c0,0,0,0,0,0s0,0,0,0s0,0,0,0c0,0,0,0,0-0.1c0-0.1,0-0.1-0.1-0.2	c-0.3-0.9-0.7-1.6-1.2-2.1c-0.4-0.5-0.9-0.8-1.1-1c-0.2-0.1-0.4-0.1-0.5,0c0,0,0,0-0.1,0.1c0,0,0,0.1,0,0.1c0,0,0,0.1,0,0.2	c0.2,0.5,0.4,0.7,0.6,1c0.2,0.3,0.5,0.7,0.6,1.3c0.1,0.7,0.3,1.2,0.4,1.3c0,0,0,0,0,0c0,0,0,0,0,0c0,0,0,0,0-0.1c0,0,0,0,0,0.1	c0,0,0,0,0,0c0,0,0,0,0,0c-0.4-0.4-0.5-0.9-0.6-1.3c-0.1-0.5-0.2-0.8-0.6-1.3c-0.5-0.6-0.9-1.2-1-1.7c-0.1-0.3-0.1-0.5-0.1-0.7	c0-0.2,0-0.5-0.1-0.8c-0.1-0.3-0.1-0.5-0.1-0.8c0-0.3,0.1-0.7,0.2-1c0.1-0.3,0.2-0.6,0.4-0.9c0.1-0.2,0.3-0.4,0.3-0.7	c0.1-0.3,0.1-0.5,0.1-0.8c0-0.2,0-0.5-0.1-0.7c-0.1-0.3-0.2-0.7-0.3-1.1c-0.6-1.6-1.4-2.2-2.9-2.2c-1.1,0-2.2-0.1-3-1.2	c-0.3-0.4-0.6-0.8-1-1.3c0-0.1-0.1-0.1-0.2-0.2c-0.1-0.2-0.3-0.3-0.5-0.5c-0.1-0.1-0.3-0.2-0.4-0.3c-0.1-0.1-0.3-0.2-0.4-0.3	c-0.8-0.4-1.7-0.7-3-0.7c-0.1,0-0.1,0-0.2,0c-0.1,0-0.1,0.1-0.1,0.1c0,0,0,0,0,0c0,0,0,0.1,0,0.1c0,0.1,0,0.1,0.1,0.2	c0.3,0.5,0.8,0.8,1.3,1.1c0.5,0.3,1.1,0.4,1.8,0.5c0.7,0.1,1,0.5,1.4,1.1c0.4,0.7,0.8,1.3,1.3,1.6c0.5,0.3,1,0.7,1.4,1.4	c0.2,0.3,0.4,0.3,0.7,0.4l0.1,0l0.3,0.1h0h0.1c0,0,0.1,0,0.3,0.1c1.3,0.5,1.5,1.6,1.6,2.5c0,0,0,0,0,0c0,0,0,0.1,0,0.1	c0,0,0,0,0-0.1c0,0,0,0,0,0c0,0,0,0,0,0.1c0,0,0,0,0,0c0,0,0,0.1,0,0.1c0,0,0,0,0-0.1c-0.3-1.5-1.3-2.1-2.1-2.3	c-0.1,0-0.3,0-0.4,0.1c-0.1,0.1-0.1,0.2-0.1,0.3c0,0,0,0,0,0c0,0,0,0.1,0,0.1c0,0.8-0.5,1.5-1.2,2c-0.8,0.5-1.3,1.2-1.4,2	c0,0,0,0.1,0,0.1c0,0.8,0.4,1.6,1.1,2.5c0.2,0.2,0.4,0.3,0.6,0.5l0.3,0.2c0.5,0.3,0.7,0.9,1,1.5l0.2,0.4c0.2,0.4,0.4,0.6,0.8,0.9	l0.1,0c0.7,0.5,1.2,0.8,1.3,1.5v0c0,0,0,0,0,0c-0.1-0.2-0.2-0.4-0.4-0.6c0.1,0.2,0.3,0.4,0.3,0.7v0c0,0,0,0,0,0	c-0.2-0.7-1-1.2-1.6-1.5c-0.3-0.1-0.6-0.3-0.8-0.7l0-0.1c-0.2-0.4-0.5-1.1-0.9-1.5c-0.1-0.1-0.2-0.1-0.3-0.1c0,0-0.1,0-0.1,0.1	c0,0-0.1,0.1-0.1,0.2l-0.1,0.2l-0.3,0.6c-0.1,0.3-0.2,0.7-0.2,1.1c0,0.4,0.1,0.8,0.2,1.1l0.1,0.1c0.2,0.4,0.5,0.9,0.6,1.3	c0,0,0,0,0,0.1c0,0,0,0,0-0.1c0-0.1-0.1-0.3-0.2-0.4c0.1,0.2,0.1,0.3,0.2,0.5c0,0,0,0,0,0.1c0,0,0,0,0-0.1c-0.1-0.3-0.5-0.9-0.8-1.4	c-0.3-0.4-0.4-0.9-0.4-1.4c0-0.5,0.1-1,0.4-1.5c0.1-0.2,0.1-0.3,0.1-0.5c0-0.2-0.1-0.5-0.2-0.7l0,0c-0.2-0.3-0.5-0.6-0.8-1.3	c-0.7-1.2-1-2.9,1-4.2c0.7-0.4,1-1,1-1.7c0-0.8-0.5-1.5-1.4-2c-0.7-0.4-1.3-1.2-1.7-2.1c-0.1-0.2-0.2-0.2-0.4-0.2	c-0.1,0.1-0.2,0.1-0.2,0.3c0,0,0,0,0,0c0,0.1,0,0.1,0,0.2c0,0.7-0.3,1.4-0.9,1.8c-0.6,0.4-1.2,1.3-1.5,2.2c-0.1,0.3-0.1,0.6-0.1,0.9	c0,0.1,0,0.3,0,0.4c0.1,0.5,0.4,1.2,0.8,1.7c0.3,0.5,0.6,1,0.6,1.5c0,0,0,0,0,0c0,0,0,0,0,0c0,0,0,0,0-0.1c0-0.1-0.1-0.2-0.1-0.3	c0,0.1,0,0.2,0.1,0.3c0,0,0,0,0,0c0,0,0,0,0,0c0,0,0,0,0-0.1c-0.1-0.5-0.4-0.9-0.8-1.4c-0.4-0.5-0.8-1.2-0.9-1.8	c0-0.1-0.1-0.2-0.1-0.2v0l0,0l-0.1-0.1l0,0c-0.1,0-0.1-0.1-0.2-0.1c-0.2,0-0.6,0.1-0.9,0.3c-0.1,0-0.2,0.1-0.2,0.1	c-0.2,0.1-0.3,0.3-0.4,0.5c-0.1,0.2-0.1,0.3-0.1,0.5c0,0.1,0,0.2,0,0.3c0,0,0,0,0,0c0,0.1,0,0.1,0.1,0.2c0.2,0.4,0.3,0.8,0.4,1.3	c0,0.1,0,0.2,0.1,0.3c0.1,0.3,0.1,0.6,0.2,0.9c0,0,0,0.1,0,0.1l0,0.2l0,0.2l0,0c0.1,0.3,0.2,0.5,0.4,0.5c0.6,0.1,2,0.6,2.9,1.1	c0,0,0,0,0,0c0,0,0,0,0,0c-0.2-0.1-0.3-0.1-0.5-0.2c0.2,0.1,0.3,0.2,0.5,0.2c0,0,0,0,0,0c0,0,0,0,0,0c-1-0.4-2.2-0.8-2.7-0.8	c-0.1,0-0.1,0-0.1,0c0,0,0,0,0,0c0,0-0.1,0.1-0.1,0.2c0,0,0,0.1,0,0.1c0.3,1.1,0.9,2.8,1.5,3.9c0,0,0,0,0,0c0,0,0,0,0,0	c-0.1-0.1-0.2-0.3-0.3-0.5c0.1,0.2,0.2,0.3,0.2,0.5c0,0,0,0,0,0c0,0,0,0,0,0c-0.5-0.6-1-1.7-1.5-3c-0.3-0.8-0.7-2.1-0.8-2.9	c-0.2-0.7-0.3-1.1-0.6-1.9l-0.1-0.4c-0.1-0.2-0.1-0.4-0.1-0.6c0-0.2,0-0.4,0.1-0.6c0,0,0-0.1,0.1-0.2c0.2-0.3,0.4-0.6,0.7-0.8	c0.3-0.2,0.7-0.4,1.1-0.5c0.1,0,0.2-0.1,0.3-0.1c0.2-0.2,0.4-0.4,0.5-0.6c0.2-0.8,0.7-1.5,1.5-2.2c0.5-0.4,0.5-0.9,0.6-1.4l0,0	c0-0.1,0-0.2,0-0.2c0-0.4-0.2-0.7-0.6-0.8c-0.2-0.1-0.5-0.2-0.7-0.3c-0.8-0.4-1.5-0.9-2-1.7c-0.1-0.2-0.3-0.5-0.7-0.4	c-0.2,0-0.5,0.1-0.7,0.2c-0.2,0.1-0.4,0.3-0.6,0.4c-0.2,0.2-0.3,0.4-0.3,0.7c0,0,0,0.1,0,0.1l0,0.7l0,0.3l0,0.2v0c0,0,0,0.1,0,0.2	c0,0.1,0,0.2,0,0.3c0,0.1,0,0.3-0.1,0.4c0,0.2-0.1,0.3-0.2,0.5c0,0,0,0.1,0,0.1c-0.1,0.1-0.1,0.3-0.2,0.4c0,0,0,0.1-0.1,0.1	c0,0,0,0,0,0.1c-0.1,0.3-0.2,0.6-0.2,1c0,0.1,0,0.1,0,0.2c0,0.3,0,0.5,0,0.8c0,0.4,0,0.8-0.1,1.1c0,0.1-0.1,0.2-0.1,0.3	c-0.1,0.3-0.3,0.6-0.5,0.8c0,0,0,0,0,0c0,0,0,0,0,0c0,0,0,0,0-0.1c0,0,0,0.1-0.1,0.1c0,0,0,0,0,0c0,0,0,0,0,0	c0.4-0.6,0.5-1.3,0.5-1.9c0-0.4,0-0.8-0.1-1.1l0-0.2c0-0.1,0-0.2,0-0.2c0-0.3,0.1-0.7,0.2-1l0.1-0.3c0.1-0.2,0.2-0.5,0.3-0.7	c0-0.2,0.1-0.3,0.1-0.6c0-0.3,0-0.6-0.1-0.9c0-0.2-0.1-0.4-0.2-0.5c-0.1-0.1-0.2-0.1-0.5,0c-0.4,0.1-0.7,0.3-1.1,0.4	c-1,0.5-2,1.3-2.6,2.3c0,0,0.1-0.1,0.1-0.1c0,0.1-0.1,0.1-0.1,0.2c0.5-1,1.2-1.7,1.9-2.2c0.2-0.1,0.4-0.3,0.6-0.4c0,0,0,0,0,0	c0,0,0,0,0,0c0.3-0.2,0.7-0.3,1.1-0.5c0.3-0.1,0.6-0.2,0.8-0.5c0.1-0.1,0.3-0.2,0.4-0.4c0.1-0.1,0.3-0.2,0.5-0.3l0,0l0,0	c0.5-0.3,1.2-0.5,1.9-0.6c0,0,0,0,0.1,0c0.1,0,0.3-0.1,0.3-0.1c0.1,0,0.2,0,0.4,0c0.2,0,0.4,0,0.6,0c0,0,0.6,0.1,0.6,0.1l0.5,0	c0,0,0,0,0,0c0.1,0,0.2,0,0.4,0.1c0.5,0.1,0.9,0.3,1.3,0.5c0.1,0,0.2,0.1,0.3,0.1l0,0l0,0c0.3,0.2,0.7,0.4,0.9,0.7	c0.7,0.7,1.2,1.4,1.5,1.8l0.2,0.3c0,0,0,0.1,0.1,0.1c0.6,0.7,1.4,0.8,2.4,0.9h0.1c0.4,0,0.9,0.1,1.4,0.3c0,0,0,0,0.1,0l0,0	c0,0,0.1,0,0.1,0l0,0c0.4,0.2,0.7,0.5,1,0.9c0.1,0.2,0.3,0.4,0.4,0.7c0.1,0.1,0.1,0.3,0.2,0.4c0,0.1,0.1,0.2,0.1,0.2	c0.3,0.8,0.4,1.5,0.4,2.2C36.1,26.7,36.1,27,36,27.2z M21,27.2c0,0.1-0.2,0.1-0.3,0c-0.2,0-0.5-0.2-0.8-0.3	c-0.2-0.1-0.3-0.1-0.3-0.1c-0.1,0-0.1-0.1-0.1-0.1c0,0,0,0,0,0c0,0,0,0,0,0c0,0,0-0.1,0-0.1c0,0,0.1,0,0.2,0c0.2,0.1,1,0.4,1.2,0.4	C21,27.1,21.1,27.1,21,27.2C21,27.1,21,27.1,21,27.2C21,27.1,21,27.2,21,27.2z M21,27.7C21,27.7,21,27.7,21,27.7	c-0.1,0.1-0.2,0.1-0.3,0.1l-0.3-0.1c-0.4-0.1-0.8-0.2-1-0.3c0,0,0,0,0,0c0,0,0,0,0,0c-0.1-0.1-0.2-0.2-0.1-0.2c0-0.1,0.1,0,0.2,0	c0.2,0,0.6,0.2,1,0.3c0.2,0,0.3,0.1,0.4,0.2C20.9,27.6,20.9,27.6,21,27.7C20.9,27.6,21,27.6,21,27.7z M21,26.5	c-0.2-0.1-0.9-0.3-1.3-0.4c0,0,0,0,0,0c0,0,0,0-0.1,0c0.1-0.1,0.1-0.3,0.2-0.5c0.1,0,0.3,0,0.4,0c0.2,0.1,0.5,0.1,0.5-0.1	c0,0,0,0,0-0.1c-0.1-0.1-0.3-0.1-0.6-0.2c-0.1,0-0.2-0.1-0.2-0.1c0,0,0,0,0,0c0-0.1,0-0.2,0-0.2c0.1-0.1,0.2-0.2,0.4-0.2	c0.2,0,0.3-0.1,0.3-0.2c-0.1-0.1-0.3,0-0.4-0.1c0,0-0.1-0.1-0.1-0.1c0,0-0.1-0.1-0.1-0.1c0-0.1,0-0.3,0-0.4c0-0.1,0-0.2,0-0.3	c0.1-0.1,0.2-0.1,0.4-0.1c0.1,0,0.2-0.1,0.1-0.1c0,0,0,0-0.1-0.1c-0.2,0-0.2-0.1-0.3-0.1c0,0,0,0,0,0c0,0,0,0,0,0	c0-0.2,0.1-0.3,0.1-0.4s0.1-0.2,0.2-0.3c0.1,0,0.2,0.1,0.4,0.1c0.1,0,0.2,0,0.1-0.1c0,0,0,0-0.1-0.1c-0.1-0.1-0.2-0.1-0.3-0.2	c0,0,0,0,0,0c0,0,0,0,0,0c0-0.1,0.1-0.2,0.1-0.3c0.1,0,0.3,0.1,0.5,0.2c0.2,0.1,0.2-0.1,0.2-0.2c0,0-0.1-0.1-0.1-0.1	c-0.1,0-0.3-0.1-0.4-0.2c0,0,0,0,0,0c0,0,0,0,0,0c0.1-0.2,0.1-0.4,0.1-0.5c0.2,0,0.5,0.1,0.5,0.1s0.1-0.1,0.1-0.2c0,0,0,0-0.1-0.1	c-0.1,0-0.2,0-0.5-0.1c0,0,0,0,0,0c0,0,0,0,0,0c0,0,0-0.1,0-0.1c0,0,0-0.2,0-0.4c0,0,0.1,0,0.1,0c0.1,0,0.6,0.2,0.9,0.1	c0.2,0,0.2-0.2,0.1-0.2c0,0-0.1-0.1-0.1-0.1c-0.2-0.1-0.8-0.2-1-0.3c0,0,0,0,0,0c0,0,0,0,0,0c0,0,0,0,0,0l0-0.2	c0.1-0.2,0.3-0.5,0.5-0.6c0.3-0.1,0.9-0.5,1.5,0c0.1,0.1,0.2,0.2,0.3,0.3c0.1,0.2,0.5,0.3,0.6,0.4c0,0,0.1,0.1,0.2,0.2	c0.1,0.1,0.3,0.2,0.4,0.3c0,0,0,0,0,0c0,0,0,0,0,0c0,0,0.1,0.1,0.1,0.1c0,0,0,0,0.1,0.1c0,0,0,0,0,0c0,0,0.1,0,0.1,0	c0.3,0.1,0.6,0.3,0.9,0.4c0.2,0.1,0.4,0.2,0.4,0.3c0.1,0.1,0.1,0.3,0.1,0.5l0,0c0,0.4-0.1,0.9-0.5,1.2c-0.8,0.7-1.3,1.5-1.6,2.3	c-0.1,0.3-0.3,0.5-0.6,0.6c-0.9,0.2-1.5,0.7-1.8,1.3c0,0,0,0,0,0c0,0,0,0,0,0c0,0,0-0.1-0.1-0.1c0,0,0,0,0,0c0,0,0,0,0,0	c0,0,0,0,0,0C21,26.7,21.1,26.6,21,26.5z M15.5,15.4c0-0.1,0.1-0.2,0.1-0.2c0.1-0.2,0.2-0.4,0.2-0.7c0.1-0.3,0.3-0.5,0.5-0.5	c0.1,0,0.2,0.1,0.2,0.1c0.1,0.1,0.1,0.2,0.2,0.4c0.2,1.1,0.2,2.3,0.2,3.4c0,0.7,0,1.4,0.1,2c-0.3,0.2-0.7,0.5-0.9,0.9l-0.3-3	L15.5,15.4z M26.6,17.3c0.1,0,0.2,0,0.3,0c0,0,0,0,0,0c0,0,0,0,0,0c0,0,0,0.1-0.1,0.1C26.8,17.4,26.7,17.3,26.6,17.3	C26.6,17.3,26.6,17.3,26.6,17.3C26.6,17.3,26.6,17.3,26.6,17.3z M27.5,16.9c0,0,0.1,0,0.1,0C27.6,16.9,27.6,16.9,27.5,16.9z M28.4,18c-0.1-0.1-0.1-0.1,0-0.1c0-0.1,0.2,0,0.2-0.1c0,0,0,0,0,0c0,0,0,0,0,0c0,0,0,0,0,0c0,0,0,0,0,0c0.8,0.1,1.7,0.5,2.5,1	c1.1,0.7,2,1.7,2.5,2.7c0,0,0,0,0,0c0,0,0,0,0,0c-0.4-0.1-0.9-0.2-1.2-0.2l-0.1,0c-1-0.1-1.8,0-2.3-0.7l-0.2-0.3	c-0.3-0.4-0.7-0.9-1.3-1.5c-0.3-0.3-0.6-0.7-0.7-0.8c0-0.1,0-0.1,0-0.1c0-0.1,0.2-0.1,0.2,0c0.1,0.1,0.4,0.4,0.5,0.3c0,0,0,0,0,0	C28.7,18.2,28.6,18.1,28.4,18z M36.5,18.2c-0.1-0.1-0.4-0.1-0.5-0.1c-0.1,0-0.6,0.1-0.8,0.1c-0.2,0-0.4,0.2-0.4,0.4	c0.1,0.2,0,0.6,0,0.8c0,0.2,0.2,0.5,0.3,0.5c0.1,0.1,0.2,0.4,0.1,0.5c0,0-0.1,0-0.2,0.1c-0.9-1-1.9-1.8-3.1-2.4c0,0,0,0,0,0	c0,0-0.1,0-0.1,0c-1-0.5-2-0.8-3.1-1c0,0,0,0,0,0c-0.4-0.1-0.7-0.1-1.1-0.1c0,0-0.1,0-0.1,0c0,0,0,0,0,0c0,0,0,0,0,0	c-0.1,0-0.2,0-0.3,0c-0.1-0.1-0.2-0.2-0.3-0.3c-0.1,0-0.2,0-0.1,0.1c0,0,0.1,0.1,0.1,0.2c-0.2,0-0.3,0-0.5,0c-0.1,0-0.4,0.1-0.5,0.2	c0,0,0,0-0.1,0c0,0,0,0,0,0c0,0,0,0-0.1,0c-0.2,0-0.4-0.1-0.5-0.1c0,0-0.2,0-0.3,0c-0.1,0-0.1,0-0.2-0.1c-0.1,0-0.1-0.1-0.1-0.2	c3.3-1.6,8-1.7,11.9,1.5C36.6,18.2,36.5,18.2,36.5,18.2z M29.3,14c-0.1,0.5-0.1,0.9-0.2,1.3c-0.5,0-2.1,0.2-2.7,0.3	c0-0.2,0.1-1.2,0.3-1.3c0.2,0,1.5-0.2,1.7-0.2C28.8,14.1,29,14,29.3,14C29.3,14,29.3,14,29.3,14C29.3,14,29.3,14,29.3,14z M12.8,39	c-2.4-2.5-4.2-5.7-4.9-9.3c-0.1-0.5-0.2-1-0.2-1.5c-0.1-0.7-0.1-1.4-0.1-2.1c0-7.5,4.5-14,10.9-16.9c0,0.2,0,0.3-0.1,0.5	c-0.2,0.6-0.3,1.2-0.3,2c0,0.2,0,0.4,0,0.7c0,0.7,0,1.7,0,2.5c0,1-0.2,2.9-0.1,4.5c-0.2,0.1-0.4,0.3-0.6,0.4c-0.1-1.6,0-3.5-0.3-5.3	c-0.2-0.9-1-0.9-1.3-0.1c-0.1,0.3-0.2,0.4-0.2,0.7c-0.1,0.3-0.3,0.5-0.7,0.5c-0.5,0.1-1,0.2-1.4,0.4c-0.1,0-0.2,0.1-0.2,0.2	c0,0.1-0.1,0.2,0,0.3c0.1,0.7,0.2,2.3,0.3,4.4c-0.2,0.1-0.5,0.2-0.6,0.4c-0.4,0.5-0.5,1.1-0.3,2c0.4,1.3,0.3,1.9,0,2.7	c-0.6,1.6-0.3,3.8,1,5.3c0,0,0,0.1,0.1,0.1c0.1,0.1,0.2,0.2,0.3,0.2c0,0,0,0,0,0c0,0,0,0,0,0h0c0.1,3.4,0.2,6.6,0.3,8.8	C13.8,39.9,13.3,39.4,12.8,39z M14.6,31.1C14.5,31.1,14.5,31.2,14.6,31.1c-0.2,0.2-0.3,0.3-0.5,0.3c-0.1,0-0.3-0.1-0.4-0.2	c-0.1-0.1-0.5-0.6-0.3-0.7c0,0,0,0,0.1-0.1c0.1-0.1,0-0.2-0.2-0.3c-0.1-0.1-0.3-0.3-0.2-0.4c0,0,0,0,0,0c0.1,0.1,0.5,0.3,0.7,0.5	c0.1,0.1,0.1,0.1,0.2,0c0,0,0-0.1-0.1-0.2c-0.2-0.1-0.6-0.5-0.8-0.7c-0.1-0.1-0.2-0.3-0.1-0.3c0,0,0,0,0.1,0	c0.1,0.1,0.6,0.4,0.7,0.5c0,0.1,0.1,0,0.1,0c0,0,0-0.1,0-0.1c-0.1-0.1-0.5-0.5-0.7-0.7c-0.4-0.3-0.3-0.8-0.2-0.9c0,0,0,0,0.1,0	c0.1,0,1,0.8,1.2,0.9c0,0,0.1,0,0.1,0c0,0,0-0.1-0.1-0.2c-0.1-0.2-1-0.9-1.1-1c-0.3-0.3-0.2-0.7-0.2-0.7c0,0,0.1-0.1,0.1-0.1	c0,0,0.1-0.1,0.1,0c0.1,0.1,0.8,0.8,0.9,0.9c0,0,0.1,0,0.1,0c0,0,0-0.1,0-0.1c-0.1-0.1-0.6-0.6-0.8-0.7c-0.1-0.1-0.1-0.2,0-0.2	c0,0,0.1-0.1,0.2,0c0.2,0.1,0.7,0.7,0.8,0.7c0,0,0.1,0,0.1,0c0,0,0-0.1,0-0.1c-0.1-0.1-0.9-0.9-1-1c0,0-0.2-0.1-0.1-0.3	c0-0.1,0.1-0.2,0.1-0.2c0.1-0.1,0.1-0.1,0.3,0c0.1,0,0.3,0.2,0.4,0.3c0,0,0.1,0,0.1,0c0,0,0-0.1,0-0.1c-0.1-0.1-0.5-0.4-0.6-0.5	c-0.1-0.1-0.1-0.1,0-0.2c0-0.1,0.1-0.1,0.2,0c0.2,0.1,0.6,0.5,0.7,0.6c0,0,0.1,0,0.1,0c0,0,0-0.1,0-0.1c-0.2-0.1-0.9-0.9-1-1	c0-0.2-0.1-0.9,0-1c0,0,0,0,0,0c0.1,0.1,0.4,0.3,0.6,0.5c0,0,0.1,0.1,0.1,0.1c0,0,0-0.2-0.1-0.3c-0.1-0.1-0.7-0.5-1-1	c0-0.1-0.1-0.2-0.1-0.2c-0.2-0.6-0.1-1.1,0.2-1.5c0.1-0.1,0.3-0.2,0.4-0.3c0.2-0.1,0.5-0.1,0.7,0c0.2,0,0.3,0.2,0.3,0.3	c0,0,0,0.1-0.1,0.1c0,0-0.1,0-0.2,0.1c0,0,0,0-0.1,0c-0.1,0-0.3,0.1-0.4,0.1c0,0,0,0,0,0c-0.1,0.1-0.2,0.2-0.3,0.3	c-0.1,0.3-0.1,0.5,0,0.8c0.1,0.2,0.3,0.4,0.4,0.7l0.4,0.6c0.6,0.9,0.7,2.2,0.5,3.1c0,0.5-0.1,1.1,0,2C15,29.9,14.9,30.6,14.6,31.1z M17.9,42.7c-1-0.5-1.9-1.1-2.8-1.7l0,0c0,0,0,0,0,0l0-0.2l0.2-0.8c0,0,0,0,0,0l0.2-0.8v-1.4v0c0,0,0-0.1,0.1-0.3	c0.1,0,0.1,0,0.1-0.1c0,0,0,0,0,0c0,0,0,0-0.1-0.1c0,0,0,0,0,0c0,0,0,0,0,0c0.1-0.3,0.1-0.6,0.2-1c0.1-0.5,0.4-0.5,0.5-0.4	c0.1,0,0.1,0.1,0.2,0.2l0,0c0,0,0,0,0,0l0.1,0.1c0.3,0.3,0.7,0.7,0.9,0.7c0.3,0,0.4,3.3,0.4,4.6c0,0.3,0,0.5,0,0.5	C17.8,42.2,17.9,42.5,17.9,42.7C17.9,42.7,17.9,42.7,17.9,42.7C17.9,42.7,17.9,42.7,17.9,42.7z M17.6,31.9	C17.5,31.9,17.5,31.9,17.6,31.9c-0.1-0.3-0.3-0.6-0.6-1c0,0,0-0.1-0.1-0.1c0,0,0-0.1-0.1-0.1c-0.1-0.2-0.4-0.6-0.4-0.7	c0,0,0-0.1-0.1-0.2c-0.1-0.2-0.3-0.5-0.4-0.6c0,0-0.1-0.1-0.1-0.1c-0.1-0.2-0.2-0.4-0.2-0.5c0-0.1,0.3,0.1,0.4,0.2v0c0,0,0,0,0,0	c0,0,0,0,0,0c0.1,0.1,0.4,0.6,0.4,0.6c0.2,0.4,0.5,0.7,0.7,1l0,0c0.2,0.3,0.4,1.1,1.2,1.4c0.1,0,0.9,0.6,1,0.7c0,0,0.1,0.1,0.1,0.2	c0,0,0.1,0.1,0.1,0.1c0.2,0.2,0.4,0.4,0.5,0.5c0.1,0.1,0.2,0.2,0.3,0.2c0.4,0.5,0.5,0.7,0.9,0.8c0,0,0.1,0.1,0.1,0.1	c0,0.1,0,0.1,0,0.1c0,0,0,0,0,0c0,0-0.1,0.1-0.2,0c-0.6-0.1-1-0.4-1.2-0.7c-0.4-0.5-0.9-1-1.4-1.2c-0.2-0.1-0.3-0.1-0.4-0.1	c-0.1,0-0.1,0.2-0.1,0.3c0.1,0.3,0.3,1.5,0.5,2.2c0,0.1,0,0.2,0,0.2c0,0,0,0-0.1,0c0,0,0,0,0,0c0,0,0,0,0,0c0,0,0,0,0,0	c-0.3-0.5-0.6-1.3-0.7-1.9C17.9,32.6,17.8,32.4,17.6,31.9z M24.2,44.6c-2.1-0.2-4.1-0.8-5.9-1.7c0-0.5,0-1,0-1.5	c0-1.2-0.1-2.4-0.1-3.5c0-0.2,0-0.3,0-0.5c0,0-0.1-0.1-0.1-0.1c0,0,0.1,0.1,0.1,0.1c0,0,0,0,0,0c0,0-0.1-0.1-0.1-0.1	c1.5,1.8,3.3,3.2,5.5,3.9C23.8,42.1,24,43.5,24.2,44.6C24.2,44.5,24.2,44.5,24.2,44.6C24.2,44.6,24.2,44.6,24.2,44.6z M24.8,39.8	c0.2,0-0.2-0.2-0.4-0.3c-0.9-0.3-0.4-0.9-0.2-0.8c0.3,0.1,1.2,0.4,1.5,0.4c0.3,0,0.1-0.2,0-0.2s-0.9-0.3-1.1-0.4	c-0.8-0.4,0.1-0.9,0.4-0.9c0.1,0,1,0.2,1.3,0.3c0.3,0.1,0.2-0.1-0.1-0.2c-0.3-0.1-0.4-0.1-0.7-0.3s0-0.1,0.1-0.2	c0.1,0,0.7,0.2,0.6,0.1c-0.1-0.2-0.5-0.3-0.9-0.4c-0.5-0.2-2.1-2,0.4-1.3c0.2,0.1,0.3-0.2,0.2-0.3c-0.1,0-1.4-0.6-1.6-0.6	c-0.6-0.2-0.7-0.9-0.5-0.8c0.1,0,1.3,0.5,1.4,0.5c0.2,0,0.2-0.2,0-0.3c-0.2-0.1-1.1-0.4-1.3-0.5c-0.2,0-0.4-0.2-0.3-0.3	c0-0.1-0.1-0.1-0.2-0.1c0-0.1-0.1-0.2-0.1-0.3c0.1,0,0.2,0,0.3,0c0.3,0.1,0.2-0.1,0.1-0.2c-0.1,0-0.2-0.1-0.4-0.3c0,0,0,0,0,0	c0.5,0,1.7,0.4,2.6,0.8c0.1,0.1,0.2,0,0.3-0.1c0-0.1,0-0.2-0.1-0.3c-0.9-0.5-2.3-1-2.9-1.2c-0.1,0-0.2-0.2-0.3-0.4c0,0,0.1,0,0.1,0	c0.2,0,0.1-0.1-0.1-0.2l-0.1-0.3c0,0,0,0,0-0.1c0.1,0,0.2,0,0.3,0c0.2,0,0.1-0.1-0.1-0.2c-0.1,0-0.1-0.1-0.2-0.1	c0-0.1,0-0.2-0.1-0.3c0.1,0,0.2,0,0.4,0c0.2,0,0.1-0.2-0.1-0.2c-0.1,0-0.2-0.1-0.4-0.1c0-0.2-0.1-0.3-0.1-0.5c0,0,0.1,0,0.2,0	c0.2,0,0.3,0,0.3-0.1c-0.1-0.2-0.4-0.1-0.5-0.1c0,0,0,0,0,0c-0.1-0.2-0.2-0.5-0.2-0.7c0,0,0.1,0,0.1,0c0.1,0,0.1-0.3-0.3-0.3	c-0.2-0.5-0.1-0.9,0.4-1.3c0.3-0.2,0.8-0.4,1.1-0.4c0.1,0,0.1,0,0.1,0c0,0,0.1,0.1,0.1,0.1c0,0,0,0.1,0.1,0.2c0.2,0.6,0.5,1.4,1,1.8	c0.4,0.5,0.6,0.8,0.8,1.3c0.1,0.2,0.2,0.2,0.2,0.2c0,0,0.2,0,0.1-0.3c0-0.5-0.3-1.1-0.6-1.5c-0.4-0.5-0.7-1.2-0.8-1.6	c-0.1-0.5,0-0.8,0.1-1.3c0.2-0.9,0.9-1.7,1.4-2.1c0.6-0.5,1-1.3,0.9-2.2c0-0.1,0-0.1,0.1-0.1c0.1,0,0.1,0,0.1,0.1	c0.5,1,1,1.8,1.6,2.2c0.8,0.5,1.4,1.2,1.4,1.8c0,0.6-0.2,1.2-0.8,1.5c-2.1,1.4-1.7,3.2-1,4.4c0.4,0.7,0.6,1,0.8,1.3l0,0	c0.2,0.3,0.3,0.6,0.1,1c-0.5,1.1-0.5,2.2,0.1,3c0.4,0.5,0.7,1,0.8,1.3c0.1,0.2,0.2,0.3,0.3,0.2c0.1,0,0.1-0.1,0.1-0.3	c-0.1-0.5-0.4-1-0.6-1.4l-0.1-0.1c-0.3-0.6-0.2-1.6,0-2l0.3-0.6l0.1-0.3c0-0.1,0.1-0.2,0.2-0.2c0,0,0.1,0,0.1,0.1	c0.4,0.4,0.7,1,0.8,1.4l0,0.1c0.2,0.5,0.5,0.7,0.9,0.8c0.6,0.3,1.3,0.7,1.5,1.4c0.1,0.2,0.2,0.2,0.2,0.2c0.1,0,0.1-0.1,0.1-0.3	c-0.2-0.8-0.7-1.2-1.4-1.7l-0.1,0c-0.4-0.3-0.6-0.4-0.7-0.8L31.6,34c-0.3-0.7-0.5-1.3-1-1.6l-0.3-0.2c-0.2-0.1-0.4-0.2-0.6-0.4	c-0.7-0.9-1.1-1.8-1-2.5c0-0.7,0.5-1.3,1.3-1.8c0.9-0.5,1.4-1.4,1.3-2.3c0-0.1,0-0.1,0.1-0.2c0.1,0,0.2-0.1,0.3,0	c1.1,0.3,1.8,1,2,2.1c0,0.2,0.1,0.2,0.2,0.2c0.1,0,0.2-0.1,0.2-0.3c-0.1-0.6-0.2-2-1.7-2.6c-0.2-0.1-0.3-0.2-0.4-0.1	c0,0-0.1,0-0.1,0c0,0-0.3-0.1-0.3-0.1l-0.1,0c-0.2,0-0.4-0.1-0.5-0.3c-0.4-0.7-1-1.2-1.5-1.4c-0.5-0.3-0.9-0.9-1.3-1.6	c-0.4-0.6-0.7-1.2-1.5-1.2c-0.9-0.1-1.6-0.3-2.2-0.8c-0.1-0.1-0.1-0.1-0.1-0.1c0-0.2,0.1-0.1,0.3-0.2c0.2-0.1,0.8,0.3,1.1,0.3	c0.3-0.1,0.8,0,1.2,0.2c0.2,0.2,0.7,0.3,1,0.4c0.3,0.3,0.6,0.7,0.9,1c0.1,0.1,0.2,0.3,0.2,0.3c0,0.2,0.4,0.5,0.6,1	c0.2,0.5,1.1,0.7,1.3,0.8c0.1,0,0.1-0.1,0.2-0.1c0.2,0,0.3,0,0.5,0c0,0,0,0,0,0c0.2,0,0.4,0,0.6,0c0,0,0,0,0,0c0.4,0,0.8,0,1.2,0.2	c0,0,0,0,0.1,0c0,0,0.1,0,0.1,0.1c0.1,0,0.2,0.1,0.2,0.1c0,0-0.1,0-0.1,0c0,0,0,0,0.1,0c0,0,0,0,0,0c0,0,0,0,0,0	c0.1,0.1,0.3,0.2,0.4,0.4c0,0,0,0.1,0.1,0.1c0,0.1,0.1,0.1,0.1,0.2c0,0,0,0.1,0.1,0.1c0.2,0.2,0.4,0.7,0.6,1.1	c0.4,1.2,0.4,2.2-0.1,2.9c-0.6,0.8-0.8,1.9-0.5,2.9c0.1,0.3,0.1,0.5,0.1,0.7c0,0.2,0,0.4,0.1,0.7c0.1,0.6,0.5,1.2,1.1,1.8	c0.4,0.4,0.5,0.7,0.6,1.2c0.1,0.4,0.3,0.9,0.7,1.4c0.1,0.1,0.2,0.1,0.3,0c0.1,0,0.1-0.2,0-0.3c0,0-0.3-0.5-0.4-1.2	c-0.1-0.7-0.4-1.1-0.6-1.4c-0.2-0.2-0.4-0.5-0.5-0.9c0-0.1,0-0.2,0-0.2c0,0,0.1,0,0.3,0c0.6,0.4,1.9,1.5,2.3,3.2	c0,0.2,0.2,0.2,0.2,0.2c0,0,0,0,0.1,0c0,0,0,0.1,0,0.1c0.1,0.2,0.1,0.9,0.1,1.2c0,0.3-0.5,1.3-0.6,1.5c0,0.1-0.1,0.2-0.2,0.3	c-0.1,0.1-0.1,0.1-0.2,0.2c-3.1,2.1-7.1,1.9-7.4,1.9c-0.2-0.1-1.6,0-1.7,0c-0.1,0-0.2,0.1-0.3,0.2c-0.1,0-0.3,0.1,0,0.1	c0.3,0,1.7-0.1,1.8-0.1c2.5,0.1,4.4-0.4,4.9-0.6c0.3-0.1,1.6-0.6,2.4-1.2c-0.4,0.6-2.7,2.9-10.5,2.2c-0.7-0.2-0.9-0.8-0.9-0.9	c0-0.2-1.1-0.7-1.3-0.7C24.6,40,24.6,39.8,24.8,39.8z M26.2,44.7c-0.1,0-0.3,0-0.4,0c0,0,0,0,0,0c0,0,0,0,0,0c0-0.3,0-0.6,0-0.7	c0-0.2,0.3-0.6,0.8-0.5c0.3,0,0.5-0.1,0.5-0.3c0-0.1-0.1-0.5,0-0.5c0.5,0,0.3-0.4,0.3-0.5c0.3,0,0.7,0,1.1-0.1c0,0,0.1,0,0.1,0	c0,0,0,0,0,0c0,0,0,0,0,0c0,0.1,0.3,1.2,0.5,2.3C28.2,44.6,27.2,44.7,26.2,44.7z M29.5,44.4L29.5,44.4	C29.5,44.3,29.5,44.3,29.5,44.4L29,42.1l0.2,0c0.5,0.1,1,0.1,1.5,0c1.9,0,3.7-0.3,5.2-0.9c1.4-0.6,2.4-1.5,3-2.5	c0.5-0.8,0.6-1.7,0.5-2.6c-0.1-0.5-0.3-1.1-0.6-1.6l0-0.1c-1-1.6-2-3.1-2.3-4.9c-0.1-0.7,0-1.5,0.1-2.3c0.1-0.6,0.1-1.3,0-1.9	c-0.1-0.6-0.3-1.3-0.6-1.9c0,0,0,0,0,0c0,0,0,0,0,0c0,0,0.1,0.1,0.1,0.1c0.2,0.2,0.5,0.5,0.7,0.6c0,0,0,0,0.1,0c0.3,0.1,0.8,0,1-0.2	c0.2-0.2,0.2-0.3,0-0.5c-0.1-0.1-0.2-0.3-0.3-0.5c-0.2-0.2-0.3-0.4-0.2-0.7c0.1-0.4,0-1-0.3-1.7c-0.4-1.1-0.2-1.6,0.4-1.8	c0.2-0.1,0.3-0.3,0.1-0.5c-0.5-0.5-1.1-0.9-1.6-1.2c-2.1-1.3-4.3-1.8-6.4-1.8c0,0,0,0,0,0c0,0,0,0,0,0c0.1-0.4,0.2-1,0.2-1.6	c0.1,0,0.2,0,0.3,0c0.3,0,0.8,0,1.1,0c0.2,0,0.4-0.1,0.4-0.2c0-0.1-0.3-0.6-0.6-0.7c-0.1,0-0.2-0.1-0.4-0.2c-0.1,0-0.2-0.1-0.3-0.2	c-0.1-0.1-0.2-0.1-0.3-0.1c0,0,0,0,0,0c0,0,0,0,0,0c0.1-1.2,0.2-2.6,0.2-3.8c0-0.3,0-0.6,0-0.8c1.6,0.3,3.1,0.9,4.5,1.6	c6.1,3.1,10.3,9.4,10.3,16.7C44.8,35.2,38.2,42.8,29.5,44.4z" class="st0"/><path d="M14,31.5C14,31.5,14,31.5,14,31.5C14,31.5,14,31.5,14,31.5C14,31.5,14,31.5,14,31.5z" class="st0"/><path d="M34.3,23.4c0,0.1,0.1,0.1,0.1,0.2C34.4,23.5,34.4,23.4,34.3,23.4c0,0,0-0.1-0.1-0.1c-0.1-0.1-0.2-0.3-0.4-0.4	c0,0,0,0,0,0c0.1,0.1,0.3,0.2,0.4,0.4C34.3,23.3,34.3,23.3,34.3,23.4z" class="st0"/><path d="M28.4,14.1c-0.2,0-1.4,0.2-1.7,0.2C27,14.3,28.2,14.1,28.4,14.1c0.4,0,0.6-0.1,0.9-0.1c0,0,0,0,0,0	C29,14,28.8,14.1,28.4,14.1z" class="st0"/><path d="M29.1,15.3c-0.5,0-2.1,0.2-2.7,0.3C27,15.5,28.6,15.3,29.1,15.3z" class="st0"/><path d="M20.9,10.5C20.9,10.5,20.9,10.4,20.9,10.5c0.1-0.7,0.2-1.7,0.2-2.3c1.1-0.3,2.3-0.5,3.5-0.6c0,0,0,0,0,0	c-1.2,0.1-2.4,0.3-3.5,0.6C21.1,8.7,21,9.8,20.9,10.5C20.9,10.4,20.9,10.4,20.9,10.5c-0.1,0.6-0.4,1.9-0.6,2.7c0,0,0,0,0,0	C20.5,12.4,20.9,11.1,20.9,10.5z" class="st0"/><path d="M26.8,17.4c0.1,0,0.1-0.1,0.1-0.1c0,0,0,0,0,0C26.9,17.3,26.9,17.4,26.8,17.4c-0.1,0-0.1,0-0.2-0.1c0,0,0,0,0,0	C26.7,17.3,26.8,17.4,26.8,17.4z" class="st0"/><path d="M26.4,12.3c0-0.4,0-0.9,0-1.3C26.5,11.4,26.5,11.9,26.4,12.3z" class="st0"/><path d="M29,12.5c-0.3,0-0.5,0-0.8-0.1c-0.7-0.2-1.3-0.2-1.7,0l0,0c0,0,0,0,0,0c0,0,0,0,0,0c0.4-0.2,1-0.2,1.7,0	C28.4,12.5,28.7,12.5,29,12.5c0.2,0,0.3,0,0.5,0c0.1-1.3,0.2-2.6,0.2-3.7c0,0,0,0,0,0c0,1.1-0.1,2.5-0.2,3.7	C29.3,12.5,29.1,12.5,29,12.5z" class="st0"/><path d="M25.7,7.6c0.3,0.4,0.5,1,0.6,1.8c0,0.2,0.1,0.4,0.1,0.7c0,0.1,0,0.3,0,0.4c0,0,0,0,0,0c0,0.2,0,0.4,0,0.6	c0,0,0,0,0,0c0-0.2,0-0.4,0-0.6c0,0,0,0,0,0c0-0.2,0-0.3,0-0.5c0-0.2-0.1-0.5-0.1-0.7C26.2,8.5,26,7.9,25.7,7.6	C25.7,7.5,25.6,7.5,25.7,7.6C25.6,7.5,25.6,7.5,25.7,7.6C25.6,7.5,25.7,7.5,25.7,7.6z" class="st0"/><path d="M16.3,35.9c0,0,0.1,0.1,0.2,0.2l0,0l0,0l0.1,0.1c0.3,0.3,0.7,0.7,0.9,0.7c0.3,0,0.4,3.3,0.4,4.6	c0-1.3,0-4.6-0.4-4.6c-0.2,0-0.6-0.3-0.9-0.7l-0.1-0.1c0,0,0,0,0,0l0,0C16.4,36,16.3,36,16.3,35.9c-0.2-0.1-0.4-0.2-0.5,0.3	c-0.1,0.4-0.2,0.8-0.2,1c0,0,0,0,0,0c0.1-0.3,0.1-0.6,0.2-1C15.9,35.8,16.1,35.8,16.3,35.9z" class="st0"/><path d="M15.3,40L15.3,40l0.2-0.8v0L15.3,40C15.3,40,15.3,40,15.3,40l-0.2,0.8l0,0.2c0,0,0,0,0,0l0-0.2L15.3,40z" class="st0"/><path d="M17.9,42C17.9,42,17.8,42,17.9,42c0,0.2,0,0.4,0,0.7c0,0,0,0,0,0C17.9,42.5,17.8,42.2,17.9,42z" class="st0"/><path d="M15.6,37.4c0,0-0.1,0.1-0.1,0.1c0,0.2-0.1,0.3-0.1,0.3v0c0,0,0-0.1,0.1-0.3C15.6,37.5,15.7,37.4,15.6,37.4z" class="st0"/><path d="M25.7,9.4c-0.1,0-0.5-0.3-0.6-0.4c-0.1-0.1-0.2,0-0.2,0.1C24.9,9,25,8.9,25.1,9C25.3,9.1,25.6,9.4,25.7,9.4	c0.1,0,0.1-0.1,0.1-0.2C25.8,9.3,25.8,9.4,25.7,9.4z" class="st0"/><path d="M19.2,18.6c-0.5-0.1-0.8-0.9-0.3-2.1C18.4,17.7,18.7,18.5,19.2,18.6z" class="st0"/><path d="M24.4,12.7C24.4,12.7,24.4,12.7,24.4,12.7c0-0.1,0-0.1,0-0.2c0.3-0.9,0.7-1.7,1.3-2.3c0,0,0,0,0,0	c-0.6,0.7-1,1.4-1.3,2.3C24.4,12.6,24.4,12.6,24.4,12.7z" class="st0"/><path d="M25.3,8.5c-0.1,0-0.2,0-0.1,0.1C25.2,8.6,25.2,8.5,25.3,8.5c0.1,0.1,0.2,0.2,0.3,0.1c0,0,0-0.1,0-0.1	c0,0,0,0.1,0,0.1C25.6,8.7,25.5,8.6,25.3,8.5z" class="st0"/><path d="M28.7,42.1c0,0.2,0.3,1.2,0.5,2.3c-1,0.2-1.9,0.3-2.9,0.3c-0.1,0-0.3,0-0.4,0c0,0,0,0,0,0c0.1,0,0.3,0,0.4,0	c1,0,2-0.1,2.9-0.3C28.9,43.4,28.7,42.3,28.7,42.1C28.7,42.1,28.7,42.1,28.7,42.1z" class="st0"/><path d="M20.7,27.2c-0.2,0-0.5-0.2-0.8-0.3c-0.2-0.1-0.3-0.1-0.3-0.1c-0.1,0-0.1-0.1-0.1-0.1c0,0,0,0,0,0	c0,0,0.1,0.1,0.1,0.1c0,0,0.2,0.1,0.3,0.1C20.2,27,20.5,27.2,20.7,27.2c0.2,0,0.3,0,0.3,0c0,0,0,0,0,0C21,27.2,20.9,27.2,20.7,27.2z" class="st0"/><path d="M23.5,41.2c-2.2-0.8-4.1-2.2-5.5-3.9c0,0,0.1,0.1,0.1,0.1c0,0,0,0,0,0C19.5,39.1,21.3,40.4,23.5,41.2L23.5,41.2	c0.2,0.9,0.5,2.3,0.7,3.4c0,0,0,0,0,0C24,43.5,23.8,42.1,23.5,41.2z" class="st0"/><path d="M18.3,41.4c0-1.2-0.1-2.4-0.1-3.5C18.2,38.9,18.2,40.2,18.3,41.4z" class="st0"/><path d="M18.2,12.3c0,0.7,0,1.6,0,2.5C18.2,14,18.2,13.1,18.2,12.3z" class="st0"/><path d="M18.5,9.6c-0.2,0.6-0.3,1.2-0.3,2C18.2,10.8,18.3,10.2,18.5,9.6z" class="st0"/><path d="M13.3,16.4c0.1,0.7,0.2,2.3,0.3,4.4C13.4,18.7,13.3,17.1,13.3,16.4z" class="st0"/><path d="M14,31.5c-0.1,0-0.2-0.1-0.3-0.2C13.8,31.4,13.9,31.5,14,31.5C14,31.5,14,31.5,14,31.5z" class="st0"/><path d="M13.6,31.2c-1.2-1.5-1.6-3.8-1-5.3C12,27.5,12.3,29.7,13.6,31.2z" class="st0"/><path d="M15.8,14.3c0.3-0.8,1.1-0.8,1.3,0.1C17,13.5,16.1,13.5,15.8,14.3z" class="st0"/><path d="M13.3,16.4c0-0.1,0-0.3,0-0.3C13.3,16.2,13.2,16.3,13.3,16.4z" class="st0"/><path d="M14,31.5C14,31.5,14,31.5,14,31.5C14,31.5,14,31.5,14,31.5C14,31.5,14,31.5,14,31.5z" class="st0"/><path d="M14,31.5C14,31.5,14,31.5,14,31.5c0.1,3.4,0.2,6.6,0.3,8.8c-0.5-0.4-1-0.9-1.5-1.3c0.5,0.5,1,0.9,1.5,1.4	C14.2,38.1,14.1,34.9,14,31.5L14,31.5z" class="st0"/><path d="M33.8,22.8C33.8,22.9,33.9,22.9,33.8,22.8c0,0-0.1,0-0.1-0.1c0,0-0.1-0.1-0.1-0.1c0,0,0,0,0.1,0.1	C33.7,22.8,33.8,22.8,33.8,22.8z" class="st0"/><path d="M15.8,17.8l-0.3-2.4c0-0.1,0.1-0.1,0.1-0.2c0.1-0.2,0.2-0.4,0.2-0.7c0.1-0.3,0.3-0.5,0.5-0.5	c0.1,0,0.2,0.1,0.2,0.1C16.6,14,16.5,14,16.4,14c-0.2,0-0.4,0.1-0.5,0.5c-0.1,0.3-0.1,0.5-0.2,0.7c0,0.1-0.1,0.2-0.1,0.2L15.8,17.8	l0.3,3L15.8,17.8z" class="st0"/><path d="M19.2,27.2c0-0.1,0,0,0.2,0c0.2,0,0.6,0.2,1,0.3c0.2,0,0.3,0.1,0.4,0.2c0,0,0.1,0,0.1,0c0,0-0.1,0-0.1-0.1	c-0.1,0-0.2-0.1-0.4-0.2c-0.3-0.1-0.8-0.3-1-0.3C19.3,27.1,19.2,27.1,19.2,27.2c0,0,0,0.1,0.1,0.2c0,0,0,0,0,0	C19.2,27.3,19.2,27.2,19.2,27.2z" class="st0"/><path d="M36.9,21.8C36.9,21.8,36.9,21.8,36.9,21.8C36.9,21.8,36.9,21.8,36.9,21.8C36.9,21.8,36.9,21.8,36.9,21.8	C36.9,21.8,36.9,21.8,36.9,21.8z" class="st0"/><path d="M36.6,22.6c0-0.1,0-0.2,0-0.3C36.6,22.4,36.6,22.5,36.6,22.6z" class="st0"/><path d="M36.6,22.9c0.1,0.1,0.2,0.2,0.2,0.3c0.1,0.1,0.1,0.1,0.2,0.2c-0.1-0.1-0.1-0.1-0.2-0.2	C36.8,23,36.7,22.9,36.6,22.9z" class="st0"/><path d="M36.4,20.1c0,0.2,0.1,0.4,0.2,0.7C36.5,20.6,36.5,20.3,36.4,20.1z" class="st0"/><polygon points="28.6 17.8 28.6 17.8 28.6 17.8" class="st0"/><path d="M32.4,21.3c-1,0-1.8,0-2.3-0.7l-0.2-0.3c-0.3-0.4-0.7-0.9-1.3-1.5C28.3,18.4,28,18.1,28,18c0,0,0-0.1,0-0.1	c0,0,0,0.1,0,0.1c0.1,0.1,0.4,0.4,0.7,0.8c0.6,0.6,1,1.2,1.3,1.5l0.2,0.3C30.6,21.3,31.4,21.2,32.4,21.3L32.4,21.3	c0.4,0,0.8,0.1,1.2,0.3c0,0,0,0,0,0C33.2,21.4,32.8,21.3,32.4,21.3L32.4,21.3z" class="st0"/><path d="M28.4,18C28.4,17.9,28.4,17.9,28.4,18C28.4,17.9,28.4,17.9,28.4,18c0.1,0.2,0.2,0.3,0.2,0.3	C28.7,18.2,28.6,18.2,28.4,18z" class="st0"/><path d="M24.2,20.1c0,0-0.1-0.1-0.1-0.1c0,0,0,0,0,0C24.1,20,24.2,20,24.2,20.1C24.2,20.1,24.2,20.1,24.2,20.1z" class="st0"/><path d="M20,23.1C20,23.1,20,23.1,20,23.1c0.1,0.1,0.1,0.1,0.3,0.1c0,0,0.1,0,0.1,0.1c0,0-0.1-0.1-0.1-0.1	C20.1,23.2,20.1,23.2,20,23.1z" class="st0"/><path d="M25.8,21.4L25.8,21.4c-0.1,0.5-0.1,0.9-0.5,1.3c-0.8,0.7-1.3,1.5-1.6,2.3c-0.1,0.3-0.3,0.5-0.7,0.6	c-0.9,0.2-1.5,0.7-1.8,1.3c0,0,0,0,0,0c0.3-0.6,1-1.1,1.8-1.3c0.4-0.1,0.6-0.4,0.6-0.6c0.2-0.8,0.8-1.6,1.6-2.3	C25.7,22.3,25.8,21.9,25.8,21.4L25.8,21.4c0.1-0.2,0-0.4-0.1-0.5C25.8,21,25.8,21.2,25.8,21.4z" class="st0"/><path d="M21.1,26.8C21.1,26.8,21.2,26.8,21.1,26.8C21.2,26.8,21.1,26.8,21.1,26.8C21.1,26.8,21.1,26.8,21.1,26.8z" class="st0"/><path d="M19.7,26.1C19.7,26.1,19.7,26.1,19.7,26.1c0.3,0.1,1.1,0.4,1.3,0.4c0,0,0,0,0,0C20.9,26.5,20.1,26.2,19.7,26.1z" class="st0"/><path d="M20.1,24.4C20.1,24.4,20.1,24.3,20.1,24.4C20.1,24.4,20.1,24.4,20.1,24.4c0.2,0.1,0.4,0.1,0.5,0.1c0,0,0,0,0,0	C20.5,24.4,20.3,24.5,20.1,24.4z" class="st0"/><path d="M20.7,20.7C20.7,20.7,20.7,20.7,20.7,20.7c0.3,0.2,0.4,0.1,0.5,0.1c0,0,0.1,0,0.1,0.1c0,0,0-0.1-0.1-0.1	C21.1,20.8,21,20.9,20.7,20.7z" class="st0"/><path d="M20.7,19.7C20.7,19.7,20.7,19.7,20.7,19.7c0.2,0.1,0.8,0.3,1,0.3c0.1,0,0.1,0,0.1,0.1c0,0-0.1-0.1-0.1-0.1	C21.5,19.9,20.9,19.8,20.7,19.7z" class="st0"/><path d="M20.6,21.6C20.6,21.6,20.6,21.6,20.6,21.6c0.1,0.1,0.3,0.1,0.4,0.2c0.1,0,0.1,0.1,0.1,0.1c0,0-0.1-0.1-0.1-0.1	C20.9,21.7,20.8,21.6,20.6,21.6z" class="st0"/><path d="M20.4,22.2C20.4,22.2,20.4,22.2,20.4,22.2c0.1,0.1,0.2,0.1,0.3,0.2c0,0,0,0,0.1,0.1c0,0,0-0.1-0.1-0.1	C20.6,22.3,20.5,22.2,20.4,22.2z" class="st0"/><path d="M22.9,19.1c-0.1-0.1-0.2-0.2-0.3-0.3C22.7,18.9,22.8,19,22.9,19.1C22.8,19.1,22.8,19.1,22.9,19.1z" class="st0"/><path d="M20,25.1c0,0.1,0.1,0.1,0.2,0.1c0.3,0.1,0.5,0.2,0.6,0.2c-0.1-0.1-0.3-0.1-0.6-0.2C20.1,25.2,20,25.2,20,25.1z" class="st0"/><path d="M35.6,28.5c-0.1,0.2-0.1,0.3-0.2,0.5C35.5,28.8,35.5,28.7,35.6,28.5C35.6,28.5,35.6,28.5,35.6,28.5z" class="st0"/><path d="M35.4,30.2c0-0.2,0-0.3,0-0.5c0,0,0,0,0,0C35.3,29.9,35.3,30,35.4,30.2c0.2,0.7,0.6,1.2,1.1,1.5c0,0,0,0,0,0	C36,31.3,35.5,30.9,35.4,30.2z" class="st0"/><path d="M14.1,28.8c0.1,0,0.1,0,0.1,0C14.2,28.9,14.1,28.9,14.1,28.8c-0.2-0.1-1.1-0.9-1.2-0.9c0,0,0,0-0.1,0	c0,0,0,0,0,0C13,27.9,13.9,28.7,14.1,28.8z" class="st0"/><path d="M13.8,30.2c0.1,0.1,0.2,0.1,0.2,0C13.9,30.2,13.8,30.2,13.8,30.2c-0.2-0.1-0.5-0.4-0.7-0.5c0,0,0,0,0,0	c0,0,0,0,0,0C13.2,29.8,13.6,30.1,13.8,30.2z" class="st0"/><path d="M14.3,21.1c0.2,0.1,0.3,0.2,0.3,0.3c0,0,0,0.1-0.1,0.1c0,0,0.1-0.1,0.1-0.1C14.6,21.3,14.5,21.1,14.3,21.1	c-0.2-0.1-0.5-0.1-0.7,0c-0.2,0.1-0.3,0.2-0.4,0.3c0.1-0.1,0.3-0.2,0.4-0.3C13.8,21,14.1,21,14.3,21.1z" class="st0"/><path d="M13.5,30.4C13.4,30.4,13.4,30.5,13.5,30.4C13.4,30.5,13.4,30.5,13.5,30.4C13.5,30.4,13.5,30.4,13.5,30.4z" class="st0"/><path d="M13.5,25.4c0.2,0.1,0.7,0.5,0.7,0.6c0,0,0.1,0,0.2,0c0,0-0.1,0-0.1,0C14.1,25.9,13.7,25.4,13.5,25.4	c-0.1-0.1-0.1,0-0.2,0C13.3,25.3,13.4,25.3,13.5,25.4z" class="st0"/><path d="M13.4,26.6c0.2,0.1,0.7,0.7,0.8,0.7c0,0,0.1,0,0.1,0c0,0,0,0-0.1,0C14,27.3,13.5,26.7,13.4,26.6	c-0.1,0-0.1,0-0.2,0C13.2,26.6,13.3,26.6,13.4,26.6z" class="st0"/><path d="M14.9,27.1c0.1-0.9,0-2.3-0.5-3.1L14,23.4c-0.2-0.3-0.3-0.5-0.4-0.7c-0.1-0.2-0.1-0.5,0-0.8	c0.1-0.1,0.2-0.3,0.3-0.3c-0.1,0.1-0.3,0.2-0.3,0.4c-0.1,0.3-0.1,0.5,0,0.8c0.1,0.2,0.3,0.4,0.5,0.7l0.4,0.6	C15,24.9,15,26.3,14.9,27.1c-0.1,0.5-0.2,1.1,0,2c0.1,0.8,0,1.5-0.4,2c0,0,0,0,0,0.1c0,0,0,0,0.1-0.1c0.4-0.6,0.5-1.2,0.3-2	C14.8,28.2,14.9,27.6,14.9,27.1z" class="st0"/><path d="M14,24.4c0.1,0.1,0.1,0.1,0.1,0.1C14.1,24.4,14,24.4,14,24.4c-0.2-0.2-0.5-0.4-0.6-0.5c0,0,0,0,0,0c0,0,0,0,0,0	C13.5,24,13.8,24.2,14,24.4z" class="st0"/><path d="M13.7,29.6c0.1,0.1,0.1,0.1,0.1,0C13.8,29.6,13.7,29.7,13.7,29.6c-0.1-0.1-0.5-0.5-0.7-0.6c0,0-0.1,0-0.1,0	c0,0,0,0,0.1,0C13.1,29.2,13.5,29.5,13.7,29.6z" class="st0"/><path d="M13.5,25.8c0.1,0,0.3,0.2,0.4,0.3c0,0,0.1,0,0.1,0c0,0-0.1,0-0.1,0C13.8,26,13.6,25.9,13.5,25.8	c-0.1-0.1-0.2-0.1-0.3,0C13.3,25.8,13.3,25.8,13.5,25.8z" class="st0"/><path d="M13.9,27.7c0,0.1,0.1,0,0.1,0C14,27.7,13.9,27.7,13.9,27.7c-0.1-0.1-0.8-0.8-0.9-0.9c0,0-0.1,0-0.1,0	c0,0,0.1,0,0.1,0C13.1,26.9,13.8,27.6,13.9,27.7z" class="st0"/><path d="M30,13.8c0.3,0,0.8,0,1.1,0c0.2,0,0.4-0.1,0.4-0.2c0-0.1-0.3-0.6-0.6-0.7c0,0,0,0,0,0c0.3,0.1,0.5,0.6,0.6,0.7	c0,0.1-0.2,0.2-0.4,0.2C30.8,13.8,30.3,13.8,30,13.8c-0.1,0-0.2,0-0.3,0c-0.1,0.6-0.1,1.1-0.2,1.6c0,0,0,0,0,0	c0.1-0.4,0.2-1,0.2-1.6C29.8,13.8,29.9,13.8,30,13.8z" class="st0"/><path d="M37.9,24c0.2-0.2,0.2-0.3,0-0.5c-0.1-0.1-0.2-0.3-0.3-0.5c-0.2-0.2-0.3-0.4-0.2-0.7c0.1-0.4,0-1-0.3-1.7	c-0.4-1.1-0.2-1.6,0.4-1.8c0.2-0.1,0.3-0.3,0.1-0.5c-0.5-0.5-1.1-0.9-1.6-1.2c0.5,0.3,1.1,0.7,1.6,1.2c0.2,0.2,0.1,0.4-0.1,0.5	c-0.5,0.2-0.8,0.7-0.4,1.8c0.3,0.7,0.4,1.2,0.3,1.7c0,0.3,0.1,0.5,0.2,0.7c0.1,0.2,0.2,0.4,0.3,0.5C38,23.7,38.1,23.8,37.9,24	c-0.3,0.2-0.7,0.3-1,0.2c0,0,0,0-0.1,0c0,0,0.1,0,0.1,0C37.2,24.3,37.7,24.2,37.9,24z" class="st0"/><path d="M30,7.8c1.6,0.3,3.1,0.9,4.5,1.6C33.1,8.7,31.6,8.2,30,7.8c0,0.3,0,0.5,0,0.8c0,1.2-0.1,2.6-0.2,3.8	c0,0,0,0,0,0c0.1-1.2,0.2-2.6,0.2-3.8C30.1,8.4,30.1,8.1,30,7.8z" class="st0"/><path d="M29.2,42.1c0.5,0.1,1,0.1,1.5,0c1.9,0,3.7-0.3,5.2-0.9c1.4-0.6,2.4-1.5,3-2.5c0.5-0.8,0.6-1.7,0.5-2.6	c-0.1-0.5-0.3-1.1-0.6-1.6l0-0.1c-1-1.6-2-3.1-2.3-4.9c-0.1-0.7,0-1.5,0.1-2.3c0.1-0.6,0.1-1.3,0-1.9c-0.1-0.6-0.3-1.3-0.6-1.8	c0,0,0,0,0,0c0.3,0.6,0.5,1.2,0.6,1.9c0.1,0.7,0.1,1.3,0,1.9c-0.1,0.8-0.3,1.6-0.1,2.3c0.3,1.8,1.3,3.3,2.3,4.9l0,0.1	c0.3,0.5,0.5,1,0.6,1.6c0.2,0.9,0,1.8-0.5,2.6c-0.6,1-1.6,1.9-3,2.5c-1.5,0.7-3.3,1-5.2,0.9C30.2,42.1,29.7,42.2,29.2,42.1l-0.2,0	l0.5,2.3c0,0,0,0,0,0l-0.5-2.2L29.2,42.1z" class="st0"/><path d="M17.5,19.9c0.2-0.1,0.4-0.3,0.6-0.4c0,0,0,0,0,0C17.8,19.6,17.6,19.7,17.5,19.9c-0.8,0.6-1.5,1.3-2,2.3	c0-0.1,0.1-0.1,0.1-0.2C16.1,21,16.7,20.3,17.5,19.9z" class="st0"/><path d="M29,35.1c0-0.5,0.1-1,0.4-1.5c0.1-0.2,0.1-0.3,0.1-0.5c0-0.2-0.1-0.5-0.2-0.7l0,0c-0.2-0.3-0.5-0.6-0.8-1.3	c-0.7-1.2-1-2.9,1-4.2c0.7-0.4,1-1,1-1.7c0-0.8-0.5-1.5-1.4-2c-0.7-0.4-1.3-1.2-1.7-2.1c-0.1-0.2-0.3-0.2-0.4-0.2c0,0,0,0-0.1,0	c0.1,0,0.3,0,0.4,0.2c0.5,0.9,1.1,1.7,1.7,2.1c0.9,0.6,1.4,1.3,1.4,2c0,0.7-0.4,1.3-1,1.7c-2,1.3-1.6,3-1,4.2c0.4,0.7,0.6,1,0.8,1.3	l0,0c0.2,0.2,0.2,0.4,0.2,0.7c0,0.2,0,0.3-0.1,0.5C29.1,34.1,29,34.6,29,35.1c-0.1,0.5,0.1,1,0.4,1.4c0.4,0.5,0.7,1,0.8,1.4	c0,0,0,0.1,0,0.1c0,0,0,0,0-0.1c0-0.2-0.1-0.3-0.2-0.5c-0.2-0.3-0.4-0.6-0.6-0.9C29.2,36.1,29,35.6,29,35.1z" class="st0"/><path d="M31.5,34.8L31.5,34.8c-0.2-0.5-0.5-1.2-0.9-1.6c-0.1-0.1-0.2-0.1-0.3-0.1c-0.1,0-0.1,0-0.2,0.1	c0,0,0.1-0.1,0.1-0.1c0.1,0,0.2,0,0.3,0.1c0.4,0.4,0.7,1.1,0.9,1.5L31.5,34.8c0.1,0.5,0.4,0.6,0.7,0.7c0.6,0.3,1.4,0.8,1.6,1.5	c0,0,0,0,0,0v0c-0.1-0.3-0.2-0.5-0.3-0.7c-0.3-0.4-0.8-0.7-1.2-0.8C32,35.3,31.7,35.2,31.5,34.8z" class="st0"/><path d="M23.1,32.3C23.1,32.3,23,32.3,23.1,32.3c0,0,0.1,0,0.1,0c0.5,0,1.7,0.4,2.7,0.8c0,0,0,0,0,0c0,0,0,0,0,0	c-0.1-0.1-0.3-0.2-0.5-0.2c-0.8-0.3-1.8-0.5-2.2-0.6C23.2,32.3,23.1,32.3,23.1,32.3z" class="st0"/><path d="M24,26.8c0-0.1-0.1-0.2-0.1-0.2v0l0,0l-0.1-0.1l0,0c-0.1,0-0.1-0.1-0.2-0.1c-0.2,0-0.7,0.1-1,0.3	c0.3-0.2,0.7-0.3,0.9-0.3c0.1,0,0.2,0,0.2,0.1l0,0l0.1,0.1l0,0v0C23.8,26.7,23.9,26.8,24,26.8c0.1,0.7,0.5,1.4,0.9,1.8	c0.4,0.5,0.7,0.9,0.8,1.4c0,0,0,0,0,0.1c0,0,0,0,0,0c0,0,0,0,0,0c0-0.1,0-0.2-0.1-0.3c-0.1-0.3-0.4-0.7-0.7-1	C24.5,28.1,24.1,27.4,24,26.8z" class="st0"/><path d="M24,25c0.2-0.8,0.7-1.5,1.5-2.2c0.5-0.4,0.5-0.9,0.6-1.4l0,0c0-0.1,0-0.2,0-0.2c0-0.4-0.2-0.7-0.6-0.8	c-0.2-0.1-0.4-0.2-0.7-0.3c-0.8-0.4-1.5-0.9-2-1.7c-0.1-0.2-0.3-0.5-0.7-0.4c-0.2,0-0.5,0.2-0.7,0.3c0.2-0.1,0.5-0.2,0.7-0.2	c0.4-0.1,0.6,0.2,0.7,0.4c0.5,0.9,1.2,1.3,2,1.7c0.2,0.1,0.4,0.2,0.7,0.3c0.4,0.2,0.6,0.4,0.6,0.8c0,0.1,0,0.1,0,0.2l0,0	c-0.1,0.4-0.1,0.9-0.6,1.4C24.7,23.5,24.2,24.2,24,25c-0.1,0.2-0.3,0.5-0.5,0.7C23.8,25.5,24,25.2,24,25z" class="st0"/><path d="M19.5,23.7l0-0.2c0-0.1,0-0.2,0-0.2c0-0.3,0.1-0.7,0.2-1l0.1-0.3c0.1-0.2,0.2-0.5,0.3-0.7	C20,21.2,20,21,20,20.8c0-0.3,0-0.6-0.1-0.9c0-0.2-0.1-0.4-0.2-0.5c-0.1-0.1-0.2-0.1-0.5,0c-0.4,0.1-0.8,0.3-1.2,0.5	c0.3-0.2,0.7-0.3,1.1-0.4c0.2-0.1,0.4,0,0.5,0c0.1,0.1,0.2,0.3,0.2,0.5c0,0.3,0.1,0.7,0.1,0.9c0,0.2,0,0.4-0.1,0.6	c-0.1,0.3-0.2,0.5-0.3,0.7l-0.1,0.3c-0.1,0.3-0.2,0.6-0.2,1c0,0.1,0,0.2,0,0.2L19.5,23.7c0,0.4,0,0.8,0,1.2c0,0.6-0.1,1.3-0.5,1.9	c0,0,0,0,0,0c0,0,0,0,0,0c0,0,0-0.1,0.1-0.1c0.3-0.6,0.4-1.2,0.4-1.8C19.5,24.5,19.5,24.1,19.5,23.7z" class="st0"/><path d="M35.6,25.5c-0.1-0.4-0.2-0.7-0.3-1.1c-0.6-1.6-1.4-2.2-2.9-2.2c-1.1,0-2.2-0.1-3-1.2c-0.3-0.4-0.6-0.8-1-1.3	c-0.1-0.1-0.1-0.1-0.2-0.2c-0.1-0.2-0.3-0.3-0.5-0.5c-0.1-0.1-0.3-0.2-0.4-0.3c-0.1-0.1-0.3-0.2-0.4-0.3c-0.8-0.5-1.7-0.7-3-0.7	c-0.1,0-0.1,0-0.2,0c-0.1,0-0.1,0.1-0.1,0.1c0,0,0,0,0,0c0-0.1,0.1-0.1,0.1-0.1c0.1,0,0.1,0,0.2,0c1.3,0.1,2.3,0.3,3,0.7	c0.1,0.1,0.3,0.2,0.4,0.3c0.2,0.1,0.3,0.2,0.4,0.3c0.2,0.2,0.3,0.3,0.5,0.5c0.1,0.1,0.1,0.1,0.2,0.2c0.4,0.4,0.7,0.8,1,1.3	c0.8,1.1,1.9,1.2,3,1.2c1.4,0,2.3,0.6,2.9,2.2C35.4,24.9,35.5,25.2,35.6,25.5c0,0.3,0.1,0.5,0.1,0.7c0,0.3,0,0.6-0.1,0.8	c0.1-0.3,0.1-0.5,0.1-0.8C35.7,26,35.6,25.8,35.6,25.5z" class="st0"/><path d="M27,17.8c0.1,0,0.2,0.1,0.3,0.1C27.2,17.9,27,17.9,27,17.8z" class="st0"/><path d="M35.9,33.7c-0.5-0.6-0.9-1.2-1-1.7c-0.1-0.3-0.1-0.5-0.1-0.7c0-0.2,0-0.5-0.1-0.8c-0.1-0.3-0.1-0.6-0.1-0.8	c0-0.3,0-0.7,0.1-1c-0.1,0.3-0.2,0.7-0.2,1c0,0.3,0,0.5,0.1,0.8c0.1,0.3,0.1,0.5,0.1,0.8c0,0.2,0,0.4,0.1,0.7	C35,32.6,35.4,33.2,35.9,33.7c0.4,0.5,0.5,0.8,0.6,1.3c0.1,0.4,0.3,0.9,0.6,1.3c0,0,0,0,0,0c0,0,0,0,0,0c0,0,0,0,0-0.1	c-0.3-0.4-0.5-0.8-0.6-1.2C36.5,34.5,36.3,34.1,35.9,33.7z" class="st0"/><path d="M32.4,21.7c-1-0.1-1.8-0.2-2.4-0.9C30.6,21.5,31.4,21.6,32.4,21.7z" class="st0"/><path d="M35.6,28.1c-0.2,0.3-0.3,0.6-0.4,0.8C35.3,28.7,35.5,28.4,35.6,28.1c0-0.1,0.1-0.1,0.1-0.2	c0.1-0.2,0.2-0.4,0.2-0.7c-0.1,0.2-0.1,0.5-0.2,0.6C35.7,28,35.7,28,35.6,28.1z" class="st0"/><path d="M38.5,35.4c-0.3-0.9-0.7-1.6-1.2-2.1c-0.4-0.5-0.9-0.8-1.1-1c-0.2-0.1-0.4-0.1-0.5,0c0,0,0,0.1-0.1,0.1	c0,0,0-0.1,0.1-0.1c0.1-0.1,0.3-0.1,0.5,0c0.3,0.2,0.7,0.5,1.1,1C37.8,33.9,38.2,34.6,38.5,35.4c0,0.1,0,0.1,0,0.2c0,0,0,0,0,0.1	c0,0,0,0,0,0s0,0,0,0s0,0,0,0c0,0,0,0,0,0c0,0,0,0,0,0C38.5,35.5,38.5,35.5,38.5,35.4z" class="st0"/><path d="M33.9,22L33.9,22C33.9,21.9,33.9,21.9,33.9,22C33.9,21.9,33.9,21.9,33.9,22C33.9,22,33.9,22,33.9,22z" class="st0"/><path d="M31.6,24.8c-0.2,0-0.3,0-0.4,0.1c0,0,0,0,0,0C31.3,24.8,31.4,24.8,31.6,24.8c0.8,0.2,1.8,0.8,2.1,2.3	c0,0.1,0,0.1,0,0.1c0,0,0,0,0-0.1c0,0,0,0,0,0c0,0,0,0,0-0.1C33.5,25.5,32.5,25,31.6,24.8z" class="st0"/><path d="M24.8,17.2c0,0-0.5-0.1-0.6-0.1c-0.2,0-0.5,0-0.6,0c0.2,0,0.4,0,0.6,0L24.8,17.2z" class="st0"/><path d="M22.1,30.7c-0.2-0.7-0.3-1.1-0.6-1.9l-0.1-0.4c-0.1-0.2-0.1-0.4-0.1-0.6c0-0.2,0.1-0.4,0.1-0.6	c0,0,0-0.1,0.1-0.2c0.1-0.3,0.4-0.5,0.7-0.7c-0.3,0.2-0.6,0.5-0.7,0.8c0,0,0,0.1-0.1,0.2c-0.1,0.2-0.1,0.4-0.1,0.6	c0,0.2,0,0.4,0.1,0.6l0.1,0.4C21.7,29.6,21.9,30,22.1,30.7c0.1,0.8,0.5,2.1,0.8,3c0.5,1.3,1,2.4,1.5,3c0,0,0,0,0,0c0,0,0,0,0,0	c-0.1-0.1-0.2-0.3-0.2-0.5c-0.4-0.6-0.8-1.6-1.2-2.6C22.7,32.7,22.3,31.5,22.1,30.7z" class="st0"/><path d="M29.9,20.7C29.9,20.7,30,20.8,29.9,20.7C30,20.8,29.9,20.7,29.9,20.7l-0.2-0.3c-0.3-0.4-0.8-1.1-1.5-1.8	c0.7,0.7,1.2,1.4,1.5,1.8L29.9,20.7z" class="st0"/><polygon points="25.2 17.2 25.2 17.2 24.8 17.2 25.2 17.2" class="st0"/><path d="M15.9,29c0,0.1,0.1,0.1,0.1,0.1c0.1,0.1,0.3,0.4,0.4,0.6c-0.1-0.2-0.3-0.6-0.4-0.6C15.9,29.1,15.9,29.1,15.9,29	z" class="st0"/><path d="M16.1,28.7C16.1,28.7,16.1,28.7,16.1,28.7C16.1,28.7,16.1,28.7,16.1,28.7L16.1,28.7	C16.1,28.7,16.1,28.7,16.1,28.7z" class="st0"/><path d="M18.7,35C18.7,35,18.7,35.1,18.7,35C18.7,35,18.7,35,18.7,35C18.7,35,18.7,35,18.7,35z" class="st0"/><path d="M16.8,30.7c0,0,0.1,0.1,0.1,0.1c0,0,0,0.1,0.1,0.1C17,30.9,16.9,30.8,16.8,30.7C16.9,30.7,16.9,30.7,16.8,30.7z" class="st0"/><path d="M17.5,31.9C17.5,31.9,17.5,31.9,17.5,31.9C17.6,31.9,17.6,31.9,17.5,31.9C17.5,31.9,17.5,31.9,17.5,31.9z" class="st0"/><path d="M18.2,32.7c0.1,0.4,0.3,1.5,0.5,2.2C18.5,34.2,18.3,33,18.2,32.7z" class="st0"/><path d="M21.4,34.4c0,0-0.1,0.1-0.2,0.1c-0.6-0.1-1-0.5-1.2-0.7c-0.4-0.5-0.9-1-1.4-1.2c-0.2-0.1-0.3-0.1-0.4-0.1	c-0.1,0.1-0.1,0.2,0,0.3c0-0.2,0-0.3,0.1-0.3c0.1-0.1,0.2,0,0.4,0.1c0.5,0.3,1,0.7,1.4,1.2c0.2,0.3,0.6,0.6,1.2,0.7	C21.3,34.5,21.4,34.4,21.4,34.4C21.4,34.4,21.4,34.4,21.4,34.4c0,0,0-0.1,0-0.1C21.4,34.3,21.4,34.3,21.4,34.4	C21.4,34.4,21.4,34.4,21.4,34.4z" class="st0"/><path d="M32.1,40.4C32.1,40.4,32.1,40.4,32.1,40.4c-0.4,0-0.1-0.4,0.2-0.4C31.9,40,31.6,40.3,32.1,40.4z" class="st0"/><path d="M35,40c-0.9,0.2-2.5,0.4-2.9,0.4C32.5,40.4,34.1,40.2,35,40z" class="st0"/><path d="M32.1,40.4C32.1,40.4,32.1,40.4,32.1,40.4c0.5,0,2-0.2,2.9-0.4c0.3-0.1,0.6-0.1,0.7-0.2	c0.4-0.2,0.6-0.6,0.3-0.6c0,0-0.1,0-0.1,0c-0.5,0.1-2.8,0.9-3.3,0.7c0,0-0.1,0-0.1,0c0,0-0.1,0-0.1,0C31.9,40,31.6,40.3,32.1,40.4z" class="st0"/></svg>